<?xml version="1.0" encoding="UTF-8" standalone="no"?>
<!-- Created with Inkscape (http://www.inkscape.org/) -->

<svg
   version="1.1"
   id="svg2"
   width="382.84"
   height="392.60001"
   viewBox="0 0 382.84 392.60001"
   sodipodi:docname="fr-map.eps"
   xmlns:inkscape="http://www.inkscape.org/namespaces/inkscape"
   xmlns:sodipodi="http://sodipodi.sourceforge.net/DTD/sodipodi-0.dtd"
   xmlns="http://www.w3.org/2000/svg"
   xmlns:svg="http://www.w3.org/2000/svg">
  <defs>
    <filter id="shadow">
      <feDropShadow dx="0.2" dy="0.4" stdDeviation="0.2" />
    </filter>
  </defs>
  <sodipodi:namedview
     id="namedview4"
     pagecolor="#ffffff"
     bordercolor="#000000"
     borderopacity="0.25"
     inkscape:showpageshadow="2"
     inkscape:pageopacity="0.0"
     inkscape:pagecheckerboard="0"
     inkscape:deskcolor="#ff0000" />

  <g
     id="g8"
     inkscape:groupmode="layer"
     inkscape:label="ink_ext_XXXXXX"
     transform="matrix(1.3333333,0,0,-1.3333333,0,392.6)"
     >
    <g
       id="g10"
       transform="scale(0.1)"
    >
      <path
         d="m 1376.94,11.1523 c -2.98,11.3985 -10.1,13.668 -48.09,15.3477 -40.43,1.7813 -44.79,3.375 -46.73,17.0664 -1.82,12.7813 -6.26,15.0977 -28.96,15.0977 -39.73,0 -52.78,9.4218 -52.78,38.082 0,15.1679 -4.38,27.5159 -11.75,33.1059 -14.94,11.343 -39.94,11.89 -43.72,0.953 -1.8,-5.192 -15.96,3.754 -37.18,23.488 -22.25,20.684 -40.27,31.875 -51.35,31.875 -9.38,0 -17.06,3.02 -17.06,6.711 0,3.691 -5.67,6.711 -12.6,6.711 -6.93,0 -16.36,4.531 -20.95,10.066 -4.8,5.782 -19.438,10.067 -34.379,10.067 -24.692,0 -26.024,-1.078 -26.024,-21.039 v -21.043 l -85.562,4.859 c -82.996,4.715 -102.336,9.805 -102.336,26.938 0,13.726 -23.461,30.417 -42.75,30.417 -27.895,0 -81.793,27.997 -93.66,48.653 -7.196,12.523 -16.094,18.453 -27.692,18.453 -9.398,0 -17.09,2.781 -17.09,6.18 0,3.398 -8.336,8.007 -18.519,10.246 -10.188,2.234 -24.531,13.035 -31.879,24 -10.141,15.14 -18.504,19.937 -34.77,19.953 -25.429,0.023 -32.289,8.219 -21.433,25.605 11.609,18.586 -5.246,52.356 -32.613,65.34 -13.657,6.481 -21.844,15.278 -21.844,23.473 0,7.207 2.808,13.105 6.246,13.105 3.433,0 16.269,6.684 28.519,14.856 25.594,17.066 62.137,86.332 69.293,131.332 4.45,27.988 10.442,42.047 37.047,86.933 7.086,11.95 11.246,25.989 9.25,31.196 -2,5.207 -0.41,11.461 3.535,13.898 3.942,2.438 7.168,12.809 7.168,23.047 0,10.238 2.266,20.883 5.032,23.652 2.769,2.766 5.289,7.043 5.597,9.504 2.043,16.25 17.785,41.754 29.715,48.137 19.672,10.527 16.07,42.715 -5.113,45.723 -10.809,1.535 -15.098,6.664 -15.098,18.058 0,8.754 3.067,17.813 6.82,20.129 3.75,2.32 5.211,6.817 3.247,10 -1.969,3.18 -0.508,7.68 3.246,9.996 3.75,2.321 6.82,9.438 6.82,15.824 0,6.382 6.039,23.452 13.418,37.932 7.383,14.48 13.422,32.87 13.422,40.86 0,8 4.531,18.3 10.066,22.89 5.539,4.6 10.067,13.85 10.067,20.56 0,6.71 2.418,13.7 5.375,15.52 6.984,4.32 41.601,-39.03 41.601,-52.1 0,-5.52 3.02,-11.9 6.711,-14.18 3.692,-2.28 6.711,-12.5 6.711,-22.71 0,-11.13 6.723,-24.88 16.777,-34.33 0,0 -0.339,-28.985 9.168,-32.356 1.735,-0.617 0.641,7.461 1.555,9.059 4.594,7.992 6.055,25.087 6.055,25.087 0,9.66 -2.672,19.2 -5.938,21.22 -6.539,4.04 -5.297,41.81 1.602,48.71 8,8 4.433,60.77 -5.391,79.71 -13.023,25.11 -70.156,83.45 -81.715,83.45 -5.07,0 -9.222,4.53 -9.222,10.07 0,5.53 -3.621,10.06 -8.051,10.06 -6.113,0 -6.047,2.01 0.277,8.33 6.637,6.64 9.594,6.3 14.52,-1.68 7.676,-12.41 14.379,-10.02 24.894,8.89 11.035,19.85 10.594,39.54 -1.398,62.54 -12.742,24.43 -12.754,38.87 -0.043,49.43 15.098,12.52 12.262,28.13 -9.793,53.93 -10.922,12.78 -19.981,26.49 -20.133,30.46 -0.43,11.33 -27.609,33.02 -61.234,48.87 -44.121,20.79 -79.965,67.37 -79.965,103.93 0,9.36 -3.02,18.89 -6.711,21.17 -8.699,5.38 -8.699,34.89 0,40.26 3.691,2.29 6.711,9.64 6.711,16.36 0,6.71 4.531,15.96 10.066,20.55 12.711,10.55 13.289,40.27 0.785,40.27 -5.109,0 -11.027,6.66 -13.156,14.8 -4.14,15.84 2.114,27.79 7.153,13.68 1.656,-4.64 5.773,-6.73 9.148,-4.64 13.168,8.14 4.969,16.45 -20.195,20.47 -28.188,4.51 -71.973,41.91 -55.875,47.73 13.769,4.97 9.738,40.39 -6.297,55.33 -8.078,7.53 -22.461,13.68 -31.965,13.68 -11.406,0 -19.609,5.13 -24.145,15.1 -3.777,8.31 -10.851,14.24 -15.718,13.19 -4.867,-1.05 -13.028,1.55 -18.137,5.79 -5.637,4.68 -18.539,5.98 -32.848,3.29 -22.793,-4.28 -23.558,-3.75 -23.558,16.23 0,13.54 -4.043,22.14 -11.746,24.97 -6.457,2.38 -21.067,11.33 -32.465,19.89 -11.399,8.56 -22.754,13.53 -25.238,11.05 -2.481,-2.48 -12.782,3.13 -22.895,12.47 -18.629,17.21 -40.719,28.79 -50.699,26.58 -3.008,-0.66 -13.578,4.43 -23.485,11.32 -18.308,12.73 -47.7067,10.7 -76.0152,-5.24 -13.9883,-7.88 -19.1758,-2.61 -19.1758,19.47 0,9.64 -4.7071,24.24 -10.4571,32.45 -14.8359,21.18 -7.0273,28.32 30.9844,28.32 39.4297,0 43.7027,11.75 15.125,41.58 -9.918,10.35 -14.7734,18.82 -10.793,18.82 3.9805,0 9.2227,7.9 11.6485,17.56 5.6133,22.37 -10.7852,42.04 -31.707,38.04 -18.3555,-3.5 -47.36333,24.74 -43.941456,42.78 2.707036,14.27 42.988256,21.25 54.757856,9.48 8.664,-8.67 55.8988,-9.64 61.0778,-1.26 2.016,3.26 17.606,8.02 34.645,10.58 26.265,3.94 33.305,2.46 46.265,-9.72 22.098,-20.76 70.211,-16.99 81.825,6.42 8.914,17.97 23.25,25.83 48.441,26.57 19.949,0.59 74.508,-42.96 74.508,-59.47 0,-6.63 5.363,-19.27 11.922,-28.07 6.554,-8.8 16.125,-24.31 21.265,-34.46 11.692,-23.08 33.016,-24.07 53.313,-2.46 8.762,9.32 26.578,17.83 42.777,20.42 15.27,2.44 31.285,7.37 35.59,10.94 5.246,4.36 10.613,3.15 16.254,-3.65 4.633,-5.58 13.934,-10.15 20.668,-10.15 6.734,0 26.445,-7.55 43.797,-16.77 32.164,-17.11 72.406,-22.18 79.887,-10.07 2.281,3.69 10.007,6.71 17.171,6.71 15.434,0 16.082,5.46 2.747,23.09 -11.243,14.86 -13.161,47.89 -3.141,54.08 3.691,2.28 6.711,30.85 6.711,63.47 0,52.93 -2.168,63.44 -20.133,97.59 -12.383,23.54 -20.133,48.34 -20.133,64.43 v 26.16 h 32.524 c 17.886,0 42.234,4.85 54.101,10.77 20.672,10.31 39.453,7.51 21.992,-3.29 -11.773,-7.27 -16.265,-45.46 -9.562,-81.29 l 5.648,-30.2 31.719,1.65 c 24.152,1.25 40.254,-2.91 67.496,-17.45 19.676,-10.5 48.945,-21.2 65.043,-23.77 16.094,-2.58 31.207,-7.83 33.587,-11.67 6.3,-10.2 60.43,-8.91 79.96,1.91 9.23,5.11 24.99,14.81 35.02,21.55 13.63,9.17 24.77,11.15 44.14,7.88 19.3,-3.26 28.13,-1.71 34.6,6.08 4.78,5.76 6.05,10.78 2.83,11.18 -3.22,0.39 -11.84,1.15 -19.16,1.67 -7.53,0.55 -14.39,6.8 -15.82,14.39 -3.31,17.63 -14.48,31 -22.02,26.34 -9.9,-6.12 -14.75,16.68 -5.83,27.43 4.56,5.49 16.6,9.98 26.78,9.98 10.16,0 22.05,4.3 26.4,9.54 4.36,5.25 19.81,11.55 34.34,14.01 14.53,2.45 28.13,7.22 30.21,10.59 2.08,3.37 10.4,6.15 18.49,6.17 8.09,0.02 23.35,4.55 33.93,10.07 10.57,5.51 27.73,10.02 38.14,10.02 32.78,0 50.5,10.04 100.9,57.17 5.84,5.47 14.15,9.94 18.45,9.94 4.31,0 7.83,5.43 7.83,12.08 0,6.64 3.24,15.32 7.2,19.27 3.95,3.96 8.93,36.38 11.06,72.03 2.13,35.66 6.44,66.42 9.58,68.36 3.14,1.94 5.71,12.49 5.71,23.43 0,14.84 4.1,21.46 16.13,26.04 8.87,3.37 18.11,9.33 20.53,13.25 2.42,3.92 17.81,7.12 34.2,7.12 16.39,0 29.81,3.02 29.81,6.72 0,3.69 4.15,6.71 9.24,6.71 5.08,0 13,4.53 17.6,10.06 16.46,19.84 37.05,11.45 72.81,-29.67 19.01,-21.85 34.56,-42.46 34.56,-45.8 0,-9.51 29.96,-35.25 41.03,-35.25 5.49,0 13.34,-3.37 17.46,-7.49 4.12,-4.12 14.48,-10.97 23.02,-15.23 10.03,-5 16.05,-14.51 17,-26.84 1.96,-25.46 18.1,-42.04 48,-49.29 21.54,-5.22 24.37,-8.22 22.68,-24.02 -1.51,-14.17 0.93,-18.06 11.35,-18.06 7.3,0 15.14,-3.02 17.43,-6.71 2.28,-3.69 13.93,-6.71 25.89,-6.71 29.97,0 37.86,-10.49 37.86,-50.33 0,-18.83 2.8,-37.1 6.23,-40.61 3.43,-3.5 7.2,-16.94 8.39,-29.85 2.11,-23.05 2.78,-23.53 35.27,-25.59 44.67,-2.83 60.05,1.96 70.8,22.05 12.08,22.56 20.23,21.44 20.23,-2.78 0,-10.86 2.94,-21.55 6.54,-23.77 6.17,-3.82 21.32,-34 29.16,-58.09 3.98,-12.25 40.51,-32.62 58.49,-32.62 6.38,0 19.65,-10.57 29.51,-23.49 11.66,-15.29 23.51,-23.48 33.95,-23.48 8.82,0 17.91,-3.02 20.19,-6.71 2.28,-3.7 13.03,-6.72 23.88,-6.72 15.27,0 19.74,-3.04 19.74,-13.42 0,-8.97 4.47,-13.42 13.51,-13.42 7.43,0 19.51,-3.75 26.84,-8.32 10.61,-6.63 16.05,-6.63 26.66,0 21.28,13.28 52.72,9.82 76.67,-8.46 12.1,-9.22 25.49,-16.77 29.76,-16.77 4.26,0 7.75,-4.53 7.75,-10.07 0,-5.54 3.62,-10.07 8.05,-10.07 6.27,0 6.27,-1.79 0,-8.05 -10.35,-10.35 -10.35,-33.94 0,-44.29 10.42,-10.42 54.01,-10.42 64.43,0 6.26,6.26 8.05,5.3 8.05,-4.33 0,-11.19 4.37,-12.01 45.58,-8.56 44.29,3.71 45.94,3.29 58.22,-14.98 10.9,-16.22 18.23,-19.29 53.4,-22.41 40.45,-3.58 77.52,-16.48 77.62,-27.01 0.03,-3.01 -7.5,-15.37 -16.72,-27.47 -9.23,-12.1 -16.78,-24.89 -16.78,-28.44 0,-3.54 -10.57,-16.68 -23.49,-29.2 -12.92,-12.52 -23.49,-28.03 -23.49,-34.47 0,-6.44 -2.62,-13.34 -5.84,-15.32 -3.21,-1.99 -7.3,-18.81 -9.09,-37.38 -1.78,-18.57 -8.01,-39.03 -13.85,-45.48 -8.48,-9.37 -10.58,-28.35 -10.49,-94.67 0.08,-50.73 -2.7,-85.77 -7.14,-90.21 -4,-4 -7.27,-14.4 -7.27,-23.11 0,-8.71 -10.15,-29.13 -22.56,-45.37 l -22.55,-29.55 -15.53,16.53 c -10.22,10.88 -22.85,16.52 -37.02,16.52 -29.11,0 -43.55,-18.4 -79.02,-100.67 -9.72,-22.56 -38.45,-53.68 -49.55,-53.68 -4.94,0 -11.92,-6.8 -15.51,-15.1 -3.59,-8.3 -9.23,-19.63 -12.54,-25.16 -3.3,-5.54 -9.47,-17.62 -13.7,-26.85 -15.84,-34.54 -26.94,-49.9 -39.37,-54.5 -7.05,-2.61 -19.64,-17.83 -27.99,-33.84 -12.61,-24.19 -14.49,-35.6 -11.14,-67.68 3.88,-37.17 3.45,-38.59 -11.74,-38.59 -19.24,0 -51.13,-23.91 -51.13,-38.33 0,-21.96 52.57,-40.15 63.75,-22.07 2.28,3.7 9.01,6.72 14.96,6.72 5.95,0 16.57,5.2 23.61,11.57 7.03,6.36 23.87,12.09 37.43,12.74 13.56,0.65 36.74,2.24 51.5,3.53 l 26.84,2.35 2.13,-30.19 c 1.3,-18.53 7.27,-35.7 15.44,-44.43 14.93,-15.93 11.62,-49.52 -4.87,-49.52 -6.62,0 -9.34,-8.97 -9.34,-30.81 0,-25.83 3.25,-33.66 20.13,-48.47 15.7,-13.77 20.13,-23.25 20.13,-43.01 0,-20.878 2.37,-25.351 13.43,-25.351 10.69,0 13.41,-4.476 13.41,-21.996 0,-21.793 -12.32,-38.109 -35.52,-47.008 -6.3,-2.418 -11.45,-9.019 -11.45,-14.672 0,-7.582 -7.48,-10.332 -28.52,-10.488 -29.33,-0.219 -52.01,-11.707 -52.01,-26.336 0,-20.301 42.81,-80.824 57.17,-80.824 14.21,0 30.68,-24.121 25.69,-37.617 -2.59,-6.993 -7.42,-14.543 -10.74,-16.778 -3.32,-2.238 -7.72,-17.336 -9.78,-33.554 -2.07,-16.219 -6.84,-33.391 -10.62,-38.161 -4.73,-5.988 -4.45,-11.082 0.91,-16.441 4.27,-4.273 7.77,-12.016 7.77,-17.207 0,-5.187 9.31,-21.195 20.69,-35.566 20.08,-25.344 21.95,-26.129 62.42,-26.129 65.94,0 100.65,-25.414 59.46,-43.532 -9.47,-4.167 -16.58,-14.773 -19.18,-28.597 -2.27,-12.082 -6.8,-23.625 -10.07,-25.649 -3.27,-2.023 -5.95,-9.539 -5.95,-16.703 0,-7.164 -3.02,-13.023 -6.71,-13.023 -3.69,0 -6.71,4.527 -6.71,10.062 0,6.903 -6.92,10.067 -22.02,10.067 -18.45,0 -23.53,-3.532 -31.35,-21.809 -5.14,-11.996 -10.59,-24.074 -12.1,-26.844 -1.52,-2.765 3.24,-5.031 10.57,-5.031 8.97,0 15.85,7.121 21.05,21.809 7.05,19.886 8.51,20.773 16.5,10.066 4.82,-6.457 14.72,-11.742 22,-11.742 7.29,0 15.23,-1.988 17.66,-4.418 8.58,-8.578 -10.8,-22.426 -31.52,-22.523 -27.54,-0.133 -52.39,-13.165 -62.06,-32.547 -10.33,-20.735 -56.87,-68.016 -66.94,-68.016 -4.38,0 -9.82,-7.355 -12.07,-16.344 -2.26,-8.988 -17.95,-27.691 -34.87,-41.558 -26.63,-21.813 -36.36,-25.59 -72.13,-28.004 -22.74,-1.539 -44.22,-5.485 -47.73,-8.778 -18,-16.894 -72.25,-0.464 -178.16,53.954 -5.54,2.847 -11.05,13.363 -12.23,23.378 -1.93,16.145 -4.3,17.735 -20.97,14.075 -13.53,-2.973 -19.91,-1.215 -22.78,6.285 -4.7,12.234 1.13,30.543 9.72,30.543 3.29,0 5.99,6.039 5.99,13.422 0,20.574 -32.29,16.824 -60.14,-6.985 -26.22,-22.41 -67.71,-27.183 -85.1,-9.793 -5.54,5.539 -17.22,10.067 -25.97,10.067 -8.74,0 -17.77,3.019 -20.05,6.711 -2.28,3.691 -12.27,6.754 -22.2,6.804 -36.33,0.184 -48.46,6.829 -44.11,24.161 3.45,13.746 1.59,16.011 -13.13,16.011 -9.44,0 -31.35,-7.551 -48.71,-16.777 -17.35,-9.227 -35.06,-16.777 -39.36,-16.777 -4.3,0 -16.49,-9.059 -27.1,-20.133 -15.54,-16.227 -24.86,-20.133 -48,-20.133 -21.85,0 -33.97,-4.535 -50.75,-19 -12.12,-10.449 -27.33,-20.922 -33.79,-23.277 -6.45,-2.352 -11.74,-7.254 -11.74,-10.899 0,-3.644 -7.55,-17.75 -16.78,-31.344 -14.56,-21.461 -16.77,-32.078 -16.77,-80.433 0,-30.641 3.02,-57.5744 6.71,-59.8557 3.69,-2.2812 6.71,-17.0507 6.71,-32.8242 V 20.6523 l -37.12,3.0782 c -26.87,2.2265 -40.31,0.3047 -48.65,-6.961 -6.35,-5.5195 -32.18,-12.05075 -57.4,-14.51559 -42.15,-4.11329 -46.14,-3.39063 -49.36,8.89839"
         style="fill:#000000;fill-opacity:1;fill-rule:nonzero;stroke:none;transform: translate(-100px, -100px)"
         id="path12" />
    </g>
  </g>
  <g
     id="g8"
     inkscape:groupmode="layer"
     inkscape:label="ink_ext_XXXXXX"
     transform="matrix(1.3333333,0,0,-1.3333333,0,392.6)"
     >
    <g
       id="g10"
       transform="scale(0.1)"
    >
      <path
         d="m 1376.94,11.1523 c -2.98,11.3985 -10.1,13.668 -48.09,15.3477 -40.43,1.7813 -44.79,3.375 -46.73,17.0664 -1.82,12.7813 -6.26,15.0977 -28.96,15.0977 -39.73,0 -52.78,9.4218 -52.78,38.082 0,15.1679 -4.38,27.5159 -11.75,33.1059 -14.94,11.343 -39.94,11.89 -43.72,0.953 -1.8,-5.192 -15.96,3.754 -37.18,23.488 -22.25,20.684 -40.27,31.875 -51.35,31.875 -9.38,0 -17.06,3.02 -17.06,6.711 0,3.691 -5.67,6.711 -12.6,6.711 -6.93,0 -16.36,4.531 -20.95,10.066 -4.8,5.782 -19.438,10.067 -34.379,10.067 -24.692,0 -26.024,-1.078 -26.024,-21.039 v -21.043 l -85.562,4.859 c -82.996,4.715 -102.336,9.805 -102.336,26.938 0,13.726 -23.461,30.417 -42.75,30.417 -27.895,0 -81.793,27.997 -93.66,48.653 -7.196,12.523 -16.094,18.453 -27.692,18.453 -9.398,0 -17.09,2.781 -17.09,6.18 0,3.398 -8.336,8.007 -18.519,10.246 -10.188,2.234 -24.531,13.035 -31.879,24 -10.141,15.14 -18.504,19.937 -34.77,19.953 -25.429,0.023 -32.289,8.219 -21.433,25.605 11.609,18.586 -5.246,52.356 -32.613,65.34 -13.657,6.481 -21.844,15.278 -21.844,23.473 0,7.207 2.808,13.105 6.246,13.105 3.433,0 16.269,6.684 28.519,14.856 25.594,17.066 62.137,86.332 69.293,131.332 4.45,27.988 10.442,42.047 37.047,86.933 7.086,11.95 11.246,25.989 9.25,31.196 -2,5.207 -0.41,11.461 3.535,13.898 3.942,2.438 7.168,12.809 7.168,23.047 0,10.238 2.266,20.883 5.032,23.652 2.769,2.766 5.289,7.043 5.597,9.504 2.043,16.25 17.785,41.754 29.715,48.137 19.672,10.527 16.07,42.715 -5.113,45.723 -10.809,1.535 -15.098,6.664 -15.098,18.058 0,8.754 3.067,17.813 6.82,20.129 3.75,2.32 5.211,6.817 3.247,10 -1.969,3.18 -0.508,7.68 3.246,9.996 3.75,2.321 6.82,9.438 6.82,15.824 0,6.382 6.039,23.452 13.418,37.932 7.383,14.48 13.422,32.87 13.422,40.86 0,8 4.531,18.3 10.066,22.89 5.539,4.6 10.067,13.85 10.067,20.56 0,6.71 2.418,13.7 5.375,15.52 6.984,4.32 41.601,-39.03 41.601,-52.1 0,-5.52 3.02,-11.9 6.711,-14.18 3.692,-2.28 6.711,-12.5 6.711,-22.71 0,-11.13 6.723,-24.88 16.777,-34.33 0,0 -0.339,-28.985 9.168,-32.356 1.735,-0.617 0.641,7.461 1.555,9.059 4.594,7.992 6.055,25.087 6.055,25.087 0,9.66 -2.672,19.2 -5.938,21.22 -6.539,4.04 -5.297,41.81 1.602,48.71 8,8 4.433,60.77 -5.391,79.71 -13.023,25.11 -70.156,83.45 -81.715,83.45 -5.07,0 -9.222,4.53 -9.222,10.07 0,5.53 -3.621,10.06 -8.051,10.06 -6.113,0 -6.047,2.01 0.277,8.33 6.637,6.64 9.594,6.3 14.52,-1.68 7.676,-12.41 14.379,-10.02 24.894,8.89 11.035,19.85 10.594,39.54 -1.398,62.54 -12.742,24.43 -12.754,38.87 -0.043,49.43 15.098,12.52 12.262,28.13 -9.793,53.93 -10.922,12.78 -19.981,26.49 -20.133,30.46 -0.43,11.33 -27.609,33.02 -61.234,48.87 -44.121,20.79 -79.965,67.37 -79.965,103.93 0,9.36 -3.02,18.89 -6.711,21.17 -8.699,5.38 -8.699,34.89 0,40.26 3.691,2.29 6.711,9.64 6.711,16.36 0,6.71 4.531,15.96 10.066,20.55 12.711,10.55 13.289,40.27 0.785,40.27 -5.109,0 -11.027,6.66 -13.156,14.8 -4.14,15.84 2.114,27.79 7.153,13.68 1.656,-4.64 5.773,-6.73 9.148,-4.64 13.168,8.14 4.969,16.45 -20.195,20.47 -28.188,4.51 -71.973,41.91 -55.875,47.73 13.769,4.97 9.738,40.39 -6.297,55.33 -8.078,7.53 -22.461,13.68 -31.965,13.68 -11.406,0 -19.609,5.13 -24.145,15.1 -3.777,8.31 -10.851,14.24 -15.718,13.19 -4.867,-1.05 -13.028,1.55 -18.137,5.79 -5.637,4.68 -18.539,5.98 -32.848,3.29 -22.793,-4.28 -23.558,-3.75 -23.558,16.23 0,13.54 -4.043,22.14 -11.746,24.97 -6.457,2.38 -21.067,11.33 -32.465,19.89 -11.399,8.56 -22.754,13.53 -25.238,11.05 -2.481,-2.48 -12.782,3.13 -22.895,12.47 -18.629,17.21 -40.719,28.79 -50.699,26.58 -3.008,-0.66 -13.578,4.43 -23.485,11.32 -18.308,12.73 -47.7067,10.7 -76.0152,-5.24 -13.9883,-7.88 -19.1758,-2.61 -19.1758,19.47 0,9.64 -4.7071,24.24 -10.4571,32.45 -14.8359,21.18 -7.0273,28.32 30.9844,28.32 39.4297,0 43.7027,11.75 15.125,41.58 -9.918,10.35 -14.7734,18.82 -10.793,18.82 3.9805,0 9.2227,7.9 11.6485,17.56 5.6133,22.37 -10.7852,42.04 -31.707,38.04 -18.3555,-3.5 -47.36333,24.74 -43.941456,42.78 2.707036,14.27 42.988256,21.25 54.757856,9.48 8.664,-8.67 55.8988,-9.64 61.0778,-1.26 2.016,3.26 17.606,8.02 34.645,10.58 26.265,3.94 33.305,2.46 46.265,-9.72 22.098,-20.76 70.211,-16.99 81.825,6.42 8.914,17.97 23.25,25.83 48.441,26.57 19.949,0.59 74.508,-42.96 74.508,-59.47 0,-6.63 5.363,-19.27 11.922,-28.07 6.554,-8.8 16.125,-24.31 21.265,-34.46 11.692,-23.08 33.016,-24.07 53.313,-2.46 8.762,9.32 26.578,17.83 42.777,20.42 15.27,2.44 31.285,7.37 35.59,10.94 5.246,4.36 10.613,3.15 16.254,-3.65 4.633,-5.58 13.934,-10.15 20.668,-10.15 6.734,0 26.445,-7.55 43.797,-16.77 32.164,-17.11 72.406,-22.18 79.887,-10.07 2.281,3.69 10.007,6.71 17.171,6.71 15.434,0 16.082,5.46 2.747,23.09 -11.243,14.86 -13.161,47.89 -3.141,54.08 3.691,2.28 6.711,30.85 6.711,63.47 0,52.93 -2.168,63.44 -20.133,97.59 -12.383,23.54 -20.133,48.34 -20.133,64.43 v 26.16 h 32.524 c 17.886,0 42.234,4.85 54.101,10.77 20.672,10.31 39.453,7.51 21.992,-3.29 -11.773,-7.27 -16.265,-45.46 -9.562,-81.29 l 5.648,-30.2 31.719,1.65 c 24.152,1.25 40.254,-2.91 67.496,-17.45 19.676,-10.5 48.945,-21.2 65.043,-23.77 16.094,-2.58 31.207,-7.83 33.587,-11.67 6.3,-10.2 60.43,-8.91 79.96,1.91 9.23,5.11 24.99,14.81 35.02,21.55 13.63,9.17 24.77,11.15 44.14,7.88 19.3,-3.26 28.13,-1.71 34.6,6.08 4.78,5.76 6.05,10.78 2.83,11.18 -3.22,0.39 -11.84,1.15 -19.16,1.67 -7.53,0.55 -14.39,6.8 -15.82,14.39 -3.31,17.63 -14.48,31 -22.02,26.34 -9.9,-6.12 -14.75,16.68 -5.83,27.43 4.56,5.49 16.6,9.98 26.78,9.98 10.16,0 22.05,4.3 26.4,9.54 4.36,5.25 19.81,11.55 34.34,14.01 14.53,2.45 28.13,7.22 30.21,10.59 2.08,3.37 10.4,6.15 18.49,6.17 8.09,0.02 23.35,4.55 33.93,10.07 10.57,5.51 27.73,10.02 38.14,10.02 32.78,0 50.5,10.04 100.9,57.17 5.84,5.47 14.15,9.94 18.45,9.94 4.31,0 7.83,5.43 7.83,12.08 0,6.64 3.24,15.32 7.2,19.27 3.95,3.96 8.93,36.38 11.06,72.03 2.13,35.66 6.44,66.42 9.58,68.36 3.14,1.94 5.71,12.49 5.71,23.43 0,14.84 4.1,21.46 16.13,26.04 8.87,3.37 18.11,9.33 20.53,13.25 2.42,3.92 17.81,7.12 34.2,7.12 16.39,0 29.81,3.02 29.81,6.72 0,3.69 4.15,6.71 9.24,6.71 5.08,0 13,4.53 17.6,10.06 16.46,19.84 37.05,11.45 72.81,-29.67 19.01,-21.85 34.56,-42.46 34.56,-45.8 0,-9.51 29.96,-35.25 41.03,-35.25 5.49,0 13.34,-3.37 17.46,-7.49 4.12,-4.12 14.48,-10.97 23.02,-15.23 10.03,-5 16.05,-14.51 17,-26.84 1.96,-25.46 18.1,-42.04 48,-49.29 21.54,-5.22 24.37,-8.22 22.68,-24.02 -1.51,-14.17 0.93,-18.06 11.35,-18.06 7.3,0 15.14,-3.02 17.43,-6.71 2.28,-3.69 13.93,-6.71 25.89,-6.71 29.97,0 37.86,-10.49 37.86,-50.33 0,-18.83 2.8,-37.1 6.23,-40.61 3.43,-3.5 7.2,-16.94 8.39,-29.85 2.11,-23.05 2.78,-23.53 35.27,-25.59 44.67,-2.83 60.05,1.96 70.8,22.05 12.08,22.56 20.23,21.44 20.23,-2.78 0,-10.86 2.94,-21.55 6.54,-23.77 6.17,-3.82 21.32,-34 29.16,-58.09 3.98,-12.25 40.51,-32.62 58.49,-32.62 6.38,0 19.65,-10.57 29.51,-23.49 11.66,-15.29 23.51,-23.48 33.95,-23.48 8.82,0 17.91,-3.02 20.19,-6.71 2.28,-3.7 13.03,-6.72 23.88,-6.72 15.27,0 19.74,-3.04 19.74,-13.42 0,-8.97 4.47,-13.42 13.51,-13.42 7.43,0 19.51,-3.75 26.84,-8.32 10.61,-6.63 16.05,-6.63 26.66,0 21.28,13.28 52.72,9.82 76.67,-8.46 12.1,-9.22 25.49,-16.77 29.76,-16.77 4.26,0 7.75,-4.53 7.75,-10.07 0,-5.54 3.62,-10.07 8.05,-10.07 6.27,0 6.27,-1.79 0,-8.05 -10.35,-10.35 -10.35,-33.94 0,-44.29 10.42,-10.42 54.01,-10.42 64.43,0 6.26,6.26 8.05,5.3 8.05,-4.33 0,-11.19 4.37,-12.01 45.58,-8.56 44.29,3.71 45.94,3.29 58.22,-14.98 10.9,-16.22 18.23,-19.29 53.4,-22.41 40.45,-3.58 77.52,-16.48 77.62,-27.01 0.03,-3.01 -7.5,-15.37 -16.72,-27.47 -9.23,-12.1 -16.78,-24.89 -16.78,-28.44 0,-3.54 -10.57,-16.68 -23.49,-29.2 -12.92,-12.52 -23.49,-28.03 -23.49,-34.47 0,-6.44 -2.62,-13.34 -5.84,-15.32 -3.21,-1.99 -7.3,-18.81 -9.09,-37.38 -1.78,-18.57 -8.01,-39.03 -13.85,-45.48 -8.48,-9.37 -10.58,-28.35 -10.49,-94.67 0.08,-50.73 -2.7,-85.77 -7.14,-90.21 -4,-4 -7.27,-14.4 -7.27,-23.11 0,-8.71 -10.15,-29.13 -22.56,-45.37 l -22.55,-29.55 -15.53,16.53 c -10.22,10.88 -22.85,16.52 -37.02,16.52 -29.11,0 -43.55,-18.4 -79.02,-100.67 -9.72,-22.56 -38.45,-53.68 -49.55,-53.68 -4.94,0 -11.92,-6.8 -15.51,-15.1 -3.59,-8.3 -9.23,-19.63 -12.54,-25.16 -3.3,-5.54 -9.47,-17.62 -13.7,-26.85 -15.84,-34.54 -26.94,-49.9 -39.37,-54.5 -7.05,-2.61 -19.64,-17.83 -27.99,-33.84 -12.61,-24.19 -14.49,-35.6 -11.14,-67.68 3.88,-37.17 3.45,-38.59 -11.74,-38.59 -19.24,0 -51.13,-23.91 -51.13,-38.33 0,-21.96 52.57,-40.15 63.75,-22.07 2.28,3.7 9.01,6.72 14.96,6.72 5.95,0 16.57,5.2 23.61,11.57 7.03,6.36 23.87,12.09 37.43,12.74 13.56,0.65 36.74,2.24 51.5,3.53 l 26.84,2.35 2.13,-30.19 c 1.3,-18.53 7.27,-35.7 15.44,-44.43 14.93,-15.93 11.62,-49.52 -4.87,-49.52 -6.62,0 -9.34,-8.97 -9.34,-30.81 0,-25.83 3.25,-33.66 20.13,-48.47 15.7,-13.77 20.13,-23.25 20.13,-43.01 0,-20.878 2.37,-25.351 13.43,-25.351 10.69,0 13.41,-4.476 13.41,-21.996 0,-21.793 -12.32,-38.109 -35.52,-47.008 -6.3,-2.418 -11.45,-9.019 -11.45,-14.672 0,-7.582 -7.48,-10.332 -28.52,-10.488 -29.33,-0.219 -52.01,-11.707 -52.01,-26.336 0,-20.301 42.81,-80.824 57.17,-80.824 14.21,0 30.68,-24.121 25.69,-37.617 -2.59,-6.993 -7.42,-14.543 -10.74,-16.778 -3.32,-2.238 -7.72,-17.336 -9.78,-33.554 -2.07,-16.219 -6.84,-33.391 -10.62,-38.161 -4.73,-5.988 -4.45,-11.082 0.91,-16.441 4.27,-4.273 7.77,-12.016 7.77,-17.207 0,-5.187 9.31,-21.195 20.69,-35.566 20.08,-25.344 21.95,-26.129 62.42,-26.129 65.94,0 100.65,-25.414 59.46,-43.532 -9.47,-4.167 -16.58,-14.773 -19.18,-28.597 -2.27,-12.082 -6.8,-23.625 -10.07,-25.649 -3.27,-2.023 -5.95,-9.539 -5.95,-16.703 0,-7.164 -3.02,-13.023 -6.71,-13.023 -3.69,0 -6.71,4.527 -6.71,10.062 0,6.903 -6.92,10.067 -22.02,10.067 -18.45,0 -23.53,-3.532 -31.35,-21.809 -5.14,-11.996 -10.59,-24.074 -12.1,-26.844 -1.52,-2.765 3.24,-5.031 10.57,-5.031 8.97,0 15.85,7.121 21.05,21.809 7.05,19.886 8.51,20.773 16.5,10.066 4.82,-6.457 14.72,-11.742 22,-11.742 7.29,0 15.23,-1.988 17.66,-4.418 8.58,-8.578 -10.8,-22.426 -31.52,-22.523 -27.54,-0.133 -52.39,-13.165 -62.06,-32.547 -10.33,-20.735 -56.87,-68.016 -66.94,-68.016 -4.38,0 -9.82,-7.355 -12.07,-16.344 -2.26,-8.988 -17.95,-27.691 -34.87,-41.558 -26.63,-21.813 -36.36,-25.59 -72.13,-28.004 -22.74,-1.539 -44.22,-5.485 -47.73,-8.778 -18,-16.894 -72.25,-0.464 -178.16,53.954 -5.54,2.847 -11.05,13.363 -12.23,23.378 -1.93,16.145 -4.3,17.735 -20.97,14.075 -13.53,-2.973 -19.91,-1.215 -22.78,6.285 -4.7,12.234 1.13,30.543 9.72,30.543 3.29,0 5.99,6.039 5.99,13.422 0,20.574 -32.29,16.824 -60.14,-6.985 -26.22,-22.41 -67.71,-27.183 -85.1,-9.793 -5.54,5.539 -17.22,10.067 -25.97,10.067 -8.74,0 -17.77,3.019 -20.05,6.711 -2.28,3.691 -12.27,6.754 -22.2,6.804 -36.33,0.184 -48.46,6.829 -44.11,24.161 3.45,13.746 1.59,16.011 -13.13,16.011 -9.44,0 -31.35,-7.551 -48.71,-16.777 -17.35,-9.227 -35.06,-16.777 -39.36,-16.777 -4.3,0 -16.49,-9.059 -27.1,-20.133 -15.54,-16.227 -24.86,-20.133 -48,-20.133 -21.85,0 -33.97,-4.535 -50.75,-19 -12.12,-10.449 -27.33,-20.922 -33.79,-23.277 -6.45,-2.352 -11.74,-7.254 -11.74,-10.899 0,-3.644 -7.55,-17.75 -16.78,-31.344 -14.56,-21.461 -16.77,-32.078 -16.77,-80.433 0,-30.641 3.02,-57.5744 6.71,-59.8557 3.69,-2.2812 6.71,-17.0507 6.71,-32.8242 V 20.6523 l -37.12,3.0782 c -26.87,2.2265 -40.31,0.3047 -48.65,-6.961 -6.35,-5.5195 -32.18,-12.05075 -57.4,-14.51559 -42.15,-4.11329 -46.14,-3.39063 -49.36,8.89839"
         style="fill:#ffbd6d;fill-opacity:1;fill-rule:nonzero;stroke:none"
         id="path12" />
    </g>
  </g>
</svg>
