<?xml version="1.0" encoding="UTF-8" standalone="no"?>
<!-- Created with Inkscape (http://www.inkscape.org/) -->

<svg
   version="1.1"
   id="svg2"
   width="508"
   height="640"
   viewBox="0 0 508 640"
   sodipodi:docname="moldova-map.eps"
   xmlns:inkscape="http://www.inkscape.org/namespaces/inkscape"
   xmlns:sodipodi="http://sodipodi.sourceforge.net/DTD/sodipodi-0.dtd"
   xmlns="http://www.w3.org/2000/svg"
   xmlns:svg="http://www.w3.org/2000/svg">
  <defs
     id="defs6" />
  <sodipodi:namedview
     id="namedview4"
     pagecolor="#ffffff"
     bordercolor="#000000"
     borderopacity="0.25"
     inkscape:showpageshadow="2"
     inkscape:pageopacity="0.0"
     inkscape:pagecheckerboard="0"
     inkscape:deskcolor="#d1d1d1" />
  <g
     id="g8"
     inkscape:groupmode="layer"
     inkscape:label="ink_ext_XXXXXX"
     transform="matrix(1.3333333,0,0,-1.3333333,0,640)">
    <g
       id="g10"
       transform="scale(0.1)">
      <path
         d="m 2783.57,3427.36 c 24.45,-2.96 10.95,-1.03 21.13,-12.72 -10.31,-4.42 -21.13,-13.42 -16.91,-21.18 -11.41,-102.11 -73.61,-62.14 -105.58,-118.62 18.58,-3.21 20.58,-54.15 46.46,-67.78 6.12,12.02 25.29,29.65 33.79,4.24 -13.28,-6.25 -4.95,-23.18 4.22,-42.37 -13.65,-8.37 -16.24,-11.78 -21.11,-29.66 5.63,2.82 11.26,5.66 16.89,8.48 -0.8,-21.59 2.23,0.32 4.22,-21.18 -14.39,-3.66 -5.63,-13.7 -8.44,-42.38 32.31,8.04 53.08,46.2 63.35,55.08 -1.11,-33.71 -4.38,-69.78 8.45,-80.49 2.64,17.6 14.95,32.32 29.57,46.6 14.08,1.41 28.16,2.82 42.24,4.23 0,-2.82 0,-5.64 0,-8.47 4.22,-36.71 8.44,-73.43 12.67,-110.14 5.64,1.4 11.26,2.81 16.9,4.22 16.9,4.25 33.79,8.48 50.68,12.72 1.41,-16.94 2.81,-33.9 4.23,-50.84 -9.96,-5.81 -17.79,3.19 -12.67,-12.71 2.8,-21.17 5.63,-42.36 8.44,-63.55 11.27,2.83 22.53,5.66 33.8,8.48 1.39,-7.06 2.8,-14.12 4.22,-21.18 22.42,8.38 41.53,7.9 50.68,21.18 12.43,15.95 3.55,33.86 21.12,50.83 -4.31,4.15 -4.21,4.24 -4.21,4.24 0.15,16.72 0.01,12.85 8.44,33.89 23.93,4.24 47.88,8.48 71.81,12.72 4.22,-4.24 8.45,-8.48 12.67,-12.72 0.43,-54.17 14.49,-115.81 25.34,-169.46 -16.89,-1.41 -33.79,-2.82 -50.69,-4.24 9.86,-62.12 19.72,-124.27 29.57,-186.4 -1.4,-1.41 -2.81,-2.82 -4.22,-4.24 -23.5,0.27 -60.47,-2.96 -76.03,-12.7 -8.78,-8.58 -5.77,-4.24 -8.45,-21.19 23.37,-0.55 25.45,3.92 21.12,-16.94 4.22,-9.89 8.44,-19.78 12.68,-29.66 9.94,-10.52 9.4,-4.28 21.11,-8.47 0,9.88 0,19.77 0,29.65 22.52,2.83 45.06,5.65 67.59,8.48 0,-1.42 0,-2.83 0,-4.24 5.63,-28.24 11.26,-56.49 16.89,-84.73 -8.45,-2.82 -16.89,-5.65 -25.34,-8.48 -1.41,-39.54 -2.82,-79.08 -4.23,-118.62 -29.94,-5.17 -34.29,-7.25 -46.46,-25.42 2.81,0 5.63,0 8.45,0 -1.42,-2.83 -2.82,-5.65 -4.22,-8.47 4.22,-1.42 8.44,-2.83 12.67,-4.23 22.52,7.05 45.05,14.11 67.58,21.17 1.41,0 2.81,0 4.22,0 1.41,-16.94 2.83,-33.9 4.23,-50.83 40.39,-2.08 52.25,-1.55 76.03,16.93 30.81,-33.18 22.5,-79.05 46.45,-114.37 33.79,7.06 67.59,14.13 101.38,21.19 0,7.05 0,14.12 0,21.17 11.27,-2.81 22.53,-5.64 33.8,-8.47 1.79,-43.66 13.88,-60.89 21.11,-93.21 32.72,7.36 17.79,19.87 38.03,21.19 7.03,1.42 14.07,2.81 21.11,4.23 4.22,-5.64 8.45,-11.3 12.68,-16.94 -8.46,-9.89 -16.9,-19.78 -25.35,-29.66 -16.91,-4.22 -2.12,1.29 -12.68,-12.71 64.19,-31.12 20.63,-243.72 21.13,-326.22 -8.45,-4.24 -16.89,-8.46 -25.35,-12.7 7.26,-20.23 0.14,-21.69 16.9,-25.42 -2.82,-5.65 -5.64,-11.3 -8.44,-16.95 -6.44,-8.7 -41.87,-22.8 -59.14,-16.95 12.05,-40.29 33.26,-37.69 42.23,-72.01 24.09,1.8 42.62,9.09 38.02,-16.94 17.03,8.05 12.18,9.5 25.35,21.18 16.18,-24.92 3.26,-48.76 38.01,-50.84 -1.42,-4.24 -2.81,-8.48 -4.22,-12.72 -16.41,-2.02 -4.05,3.44 -16.9,-4.23 1.41,-4.23 2.82,-8.47 4.23,-12.71 26.99,4.43 62.54,-29.95 92.93,-42.37 4.21,4.23 8.44,8.47 12.66,12.71 19.99,-12.22 32.04,-32.27 50.7,-33.9 1.78,17.08 -0.71,14.31 16.89,25.42 0,-8.46 0,-16.94 0,-25.42 -25.34,-14.12 -50.68,-28.24 -76.04,-42.36 -11.25,8.48 -22.52,16.94 -33.78,25.42 -59.47,-47.63 -83.51,-18.11 -143.62,-4.24 -8.94,-19.01 -31.61,-29.6 -46.46,-38.13 4.02,-18.67 5.03,-18.53 -8.45,-29.66 -6.1,12.27 -51.32,42.72 -67.59,38.14 0,4.24 0,8.47 0,12.71 10.39,8.28 1.71,2.4 12.68,4.24 -12.17,20.28 -37.81,29.98 -46.47,50.84 24.25,12.83 -26.09,68.61 -46.45,76.26 0,-2.82 0,-5.66 0,-8.48 -2.82,1.42 -5.65,2.82 -8.46,4.24 -1.41,-5.65 -2.82,-11.3 -4.23,-16.94 12.07,-7.03 12.6,-32.26 8.45,-25.42 -7.83,-14.19 -35.47,-19.09 -54.91,-25.43 -0.68,20.93 0.77,14.06 -21.12,21.19 4.23,-42.37 8.45,-84.74 12.68,-127.1 -52.23,0.23 -63.02,2.1 -105.6,4.24 -4.22,29.65 -8.45,59.3 -12.67,88.96 -38.1,-11.18 -84.09,9.61 -88.71,33.9 1.82,10.48 14.44,22.83 16.9,29.66 1.4,1.41 2.81,2.82 4.22,4.23 -18.3,19.77 -36.61,39.55 -54.91,59.31 -2.81,0 -5.64,0 -8.46,0 -8.45,-14.94 -45.08,-80.95 -71.79,-76.26 -21.11,21.62 -8.32,59.78 -42.25,80.5 0,-2.81 0,-5.65 0,-8.47 -2.8,1.42 -5.63,2.82 -8.44,4.23 11.93,-40.05 -7.29,-33.49 -25.34,-63.54 12.74,-6.47 7.41,-11.7 12.67,-25.42 -18.88,-0.77 -4.13,4.7 -16.9,-8.48 7.04,-9.88 14.08,-19.78 21.12,-29.66 -12.44,-15.9 -42.77,-16.71 -59.13,-12.7 -2.11,-33.49 -16.43,-38.47 -33.8,-55.09 0,2.83 0,5.66 0,8.48 -9.85,1.41 -19.71,2.82 -29.57,4.24 12.68,19.77 25.36,39.54 38.02,59.31 -34.71,17.79 -18.78,70.67 -4.22,88.96 10.98,1.82 2.31,-4.13 12.67,4.25 -3.17,12.15 -10.75,105.8 -29.57,122.85 -14.52,-15.09 -42.4,-7.1 -54.9,-21.19 -9.26,-9.81 -8.98,-35.86 -12.68,-50.82 -58.61,0.51 -84.28,-7.62 -130.95,-12.71 -2.43,-16.99 0.2,-12.68 -8.44,-21.18 -18.86,-6.51 -36.29,0.05 -46.47,-16.95 12.68,0 25.34,0 38.01,0 -1.4,-11.3 -2.8,-22.6 -4.21,-33.89 -37.35,2.12 -76.47,2.54 -92.93,-16.96 27.54,-20.71 29.52,-132.41 50.68,-152.52 1.35,-1.27 9.36,-28.05 12.68,-16.94 -5.63,-18.36 -11.27,-36.71 -16.89,-55.07 -1.42,-1.41 -2.82,-2.81 -4.23,-4.24 0,-1.41 0,-2.82 0,-4.23 -4.23,-2.83 -8.44,-5.65 -12.68,-8.47 -0.81,-1.5 -21.26,-80.26 4.24,-67.79 4.63,-12.25 88.32,-82.56 101.38,-93.21 -23.82,-25.85 -120.48,-138.939 -109.84,-156.752 4.4,-24.187 31.52,-40.867 50.69,-63.539 -11.73,-27.461 -24.14,-49.289 -25.35,-72.027 -54.85,-10.434 -173.63,-18.922 -211.19,-50.832 -11.12,-6.93 -4.71,-14.449 -29.56,-21.191 15.52,-52.821 -7.5,-151.149 33.79,-186.411 -2.82,-2.816 -5.64,-5.636 -8.46,-8.468 -26.07,-2.469 -63.47,-8.5 -88.7,-21.188 -0.08,-24.832 7.76,-45.293 -8.44,-55.082 -19.26,-28.281 -79.96,-24.121 -105.61,-8.461 -2.8,-1.418 -5.62,-2.828 -8.44,-4.23 0.07,-36.207 2.13,-33.949 8.44,-63.547 -12.04,-6.801 -5.33,3.808 -12.67,-8.473 -24.59,9.77 -51.44,19.289 -76.02,12.711 6.25,-31.769 -10.43,-60.449 -33.8,-76.262 1.41,-12.707 2.82,-25.418 4.24,-38.128 2.8,1.41 5.62,2.82 8.43,4.242 9.86,1.41 19.71,2.82 29.58,4.226 1.04,-36.316 12.26,-109.207 29.57,-135.566 -27.46,-4.492 -42.86,-1.621 -59.15,-21.192 18.55,-17.21 23.95,-63.5698 25.35,-101.6597 -4.22,1.4102 -8.45,2.8203 -12.68,4.2305 -13.69,-15.9492 -48.89,-20.3399 -76.02,-25.4219 -2.82,19.7695 -5.63,39.5508 -8.45,59.3203 -40.82,-19.6289 -121.4,46.3398 -135.17,29.6528 -40.01,-8.2 -89.19,-87.3207 -88.7,-127.102 -5.63,5.64063 -11.27,11.3008 -16.9,16.9414 -37.21,6.25 -53.59,134.8786 -46.46,156.7576 -20.1,-3.75 -42.7,-15.668 -38.02,16.93 -20.29,9.453 -19.16,12.519 -33.78,38.141 2.8,0 5.64,0 8.44,0 4.82,18.531 58.78,23.339 54.92,29.66 8.44,9.879 16.89,19.769 25.34,29.66 -1.42,2.808 -2.82,5.648 -4.23,8.461 -12.46,2.57 -4.52,-4.422 -12.67,8.48 19.23,3.188 5.94,49.719 0,72.028 16.12,6.031 3.38,0.972 12.67,16.929 -11.34,1.66 -22.45,81.223 -16.9,101.672 -9.85,-1.398 -19.7,-2.808 -29.56,-4.219 -3.01,8.641 -7.11,97.508 -21.12,127.098 8.45,5.641 16.89,11.293 25.35,16.941 -7.05,11.301 -14.09,22.61 -21.13,33.891 37.32,53.41 -19.85,150.84 -25.33,220.301 10.28,0.578 4.48,12.816 21.11,8.469 0,4.238 0,8.48 0,12.718 -11.8,7.821 -0.58,3.063 -16.89,4.231 1.24,5.269 13.7,35.808 -4.22,25.422 7.68,17.57 18.89,20.59 21.11,25.418 10.23,71.21 64.23,142.33 8.45,194.88 -5.03,-10.59 2.7,-4.17 -8.45,-8.48 2.81,21.19 5.64,42.37 8.45,63.56 16.87,1.33 11.94,1.61 29.57,8.47 -11.27,21.42 -11.19,24.51 -4.24,46.61 18.72,5.55 18.46,5.8 42.25,4.24 -4.38,20.02 15,38.78 29.57,42.36 -7.04,25.42 -14.09,50.83 -21.12,76.25 11.07,5.22 38.32,34.38 33.79,55.07 20.04,-4.78 15.48,-11.26 29.57,0 -5.64,5.65 -11.26,11.31 -16.9,16.95 2.82,2.82 5.64,5.65 8.45,8.48 7.04,5.64 14.09,11.3 21.12,16.94 -3.21,10.05 0.23,36.04 -4.23,46.6 -10.99,1.81 -2.3,-4.13 -12.66,4.24 4.22,4.24 8.44,8.48 12.66,12.71 -0.36,15.65 -26.79,47.02 -46.46,67.79 13.63,20.86 14.44,57.9 16.9,59.29 2.35,16.89 7.09,13.06 12.67,29.67 -11.39,4.3 -10.93,12.74 -16.89,29.66 56.48,12.24 17.67,110.12 21.12,156.75 -5.64,-2.81 -11.28,-5.66 -16.9,-8.47 -0.45,21.23 1.02,16.95 -16.9,16.95 6.97,52.73 -20.85,93.06 -38.01,101.67 13.66,22.35 8.23,20.25 4.22,50.84 -26.08,12.78 -70.77,39.29 -76.03,97.44 17.47,4.65 13.74,8.79 21.12,21.18 -8.44,4.24 -16.9,8.47 -25.34,12.71 8.12,20.22 8.67,18.14 8.44,42.37 -8.44,2.82 -16.89,5.65 -25.33,8.47 8.44,8.48 16.89,16.94 25.33,25.41 0,1.42 0,2.83 0,4.24 -27.35,44.79 -10.69,37.68 -33.78,80.5 18.47,9.42 9.78,8.31 16.89,21.17 -21.88,7.65 -35.25,33.18 -63.36,46.61 5.63,8.47 11.26,16.95 16.89,25.42 -2.81,-1.41 -5.63,-2.82 -8.45,-4.24 -15.55,16.28 -85.56,2.56 -101.37,63.55 -25.19,-4.51 -105.63,64.87 -130.94,93.21 14.74,13.11 18.64,-4.22 25.35,21.18 -28.39,-8.58 -60.22,6.21 -67.58,21.19 2.8,-1.42 5.62,-2.84 8.44,-4.25 2.81,8.47 5.63,16.95 8.45,25.43 -0.16,16.77 -12.68,79.43 -29.57,72.02 1.41,2.82 2.81,5.64 4.22,8.47 -1.41,8.47 -2.81,16.95 -4.22,25.42 -34.9,27.05 -27.46,40.3 -33.79,80.49 0,1.41 0,2.83 0,4.24 0,4.23 0,8.47 0,12.71 -1.41,1.41 -2.82,2.82 -4.22,4.24 -15.8,-0.09 -20.26,5.2 -29.58,8.47 -2.8,1.41 -5.63,2.82 -8.44,4.23 -7.21,-12.54 -2.51,-20.56 -21.12,-25.42 -2.43,21.17 -6.95,30.15 -25.34,38.14 -13.52,-23.76 -8.41,-6.37 -29.57,-12.72 -1.37,26.97 -9,28.44 -25.35,38.13 -1.79,-11.02 4.12,-2.3 -4.22,-12.71 -5.63,2.83 -11.27,5.66 -16.9,8.48 13.42,13.05 9.68,10.35 25.35,8.48 -8.88,25.29 -13.66,21.18 -21.13,50.82 10.16,2.6 4.51,8.57 8.45,25.43 -7.03,-5.65 -14.08,-11.3 -21.11,-16.95 -8.26,10.41 -2.4,1.71 -4.23,12.7 -7.47,5.81 -5.15,-0.94 -4.22,8.48 -15.03,16.31 -3.53,26.52 8.45,42.36 -16.48,27.82 -31.04,30.03 -33.8,46.61 8.29,21.75 34.97,29.8 25.35,50.84 -19.25,-3.71 -46.252,10.94 -38.022,29.66 -16.765,-10.77 -6.351,-10.08 -25.335,-12.72 -5.625,5.66 -11.27,11.3 -16.903,16.96 -19.582,-8.97 -13.777,-13.51 -21.117,4.24 -4.551,2.48 -29.129,25.16 -25.34,33.88 -2.262,19.22 1.402,25.42 8.445,38.13 -11.269,1.41 -22.527,2.81 -33.793,4.23 5.161,73.52 -172.144,166.66 -147.835,233.01 -18.219,0.88 -20.391,1.12 -29.567,8.48 4.219,8.48 8.445,16.95 12.672,25.41 -12.937,0.1 -5.914,-4.06 -16.898,4.24 -1.411,9.89 -2.817,19.78 -4.227,29.66 26.969,2.59 17.59,-8.07 29.57,12.71 -12.23,13.79 -11.257,31.09 -4.222,46.61 -19.082,2.79 -50.368,54.28 -54.91,72.01 8.968,9.93 1.859,-0.47 4.226,12.71 -9.957,1.26 -30.367,-8.56 -21.121,8.48 -16.336,9.54 -16.414,98.62 -21.121,135.57 -21.652,7.17 -35.223,13.96 -42.238,29.66 -1.274,11.59 8.379,23.21 16.89,38.12 -11.261,12.71 -22.531,25.42 -33.789,38.14 10.293,0.72 17.168,23 16.899,29.64 -2.754,14.67 3.796,6.91 -12.676,16.95 -6.731,-12.34 -7.235,-9.23 -25.344,-8.47 1.406,9.88 2.816,19.77 4.223,29.65 -7.035,1.41 -14.082,2.83 -21.117,4.24 -6.118,-9.46 -7.399,-5.33 -21.125,-12.71 0,5.65 0,11.3 0,16.95 12.914,0.3 10.222,9.26 21.125,25.42 -4.223,1.41 -8.454,2.82 -12.672,4.24 -29.071,1.07 -47.465,76.64 -76.035,88.96 19.222,31.79 10.792,42.47 0,55.07 -1.403,5.65 -2.813,11.31 -4.223,16.95 -5.625,-1.41 -11.262,-2.82 -16.895,-4.24 -2.402,-10.64 4.684,-13.76 -16.894,-16.94 -1.938,10.43 -28.457,19.83 -46.465,38.13 2.812,1.41 5.641,2.83 8.453,4.24 0,2.83 0,5.65 0,8.47 20.703,-9.78 16.156,-10.81 38.012,-12.71 1.406,4.24 2.82,8.47 4.222,12.71 -12.828,8.23 -4.414,1.39 -8.445,12.71 -18.301,0 -36.613,0 -54.914,0 1.984,16.4 0.379,11.3 4.227,16.94 1.398,12.71 2.816,25.42 4.214,38.13 -1.398,2.82 -2.816,5.65 -4.214,8.47 -13.934,-4.68 -14.461,-0.29 -21.121,-8.47 -8.797,-14.99 -3.707,-17.42 -21.122,-25.42 1.407,2.83 2.817,5.65 4.223,8.47 -12.922,2.8 -6.523,-4.18 -12.672,12.71 16.91,4.23 2.129,-1.28 12.672,12.71 -44.683,0.73 -46.863,16.38 -50.683,55.08 -16.567,-5.66 -17.325,-9.11 -29.567,0 -14.125,10.73 -9.93,15.81 -16.898,29.66 -40.442,-12.97 -63.246,4.62 -97.153,0 0,-5.65 0,-11.3 0,-16.94 -1.406,0 -2.816,0 -4.222,0 -12.2621,15.21 -10.7699,11.85 -16.891,29.65 -4.2304,-1.42 -8.4531,-2.83 -12.6757,-4.24 -14.4883,-7.01 -4.3555,-15.32 -25.3477,-21.19 1.4102,2.83 2.8164,5.66 4.2266,8.48 -9.4258,3.68 -9.7266,13.55 -21.1172,21.18 -2.1758,-10.21 -0.1367,-7.61 -12.6758,-16.94 -5.6289,5.64 -11.26173,11.3 -16.89454,16.94 -1.40625,8.47 -2.8125,16.94 -4.22266,25.42 16.3984,9.61 76.0313,84.74 76.0313,84.74 -0.8165,12.6 -1.125,23.77 -12.6758,29.65 2.8164,5.65 5.6367,11.3 8.4492,16.94 1.4101,0 2.8203,0 4.2266,0 15.4843,-25.41 30.9767,-50.83 46.4647,-76.25 32.399,8.11 31.371,-16.09 54.906,-38.14 14.082,1.42 28.164,2.84 42.243,4.24 -13.778,47.04 10.359,69.83 -16.895,93.21 -5.633,-4.24 -11.266,-8.47 -16.895,-12.71 -7.011,5.29 -29.824,24.99 -29.566,25.41 -17.043,6.09 -24.109,55.33 -54.918,63.56 5.41,11.9 0.371,10.46 12.672,21.18 7.926,-18.04 25.586,-13.71 42.246,-16.95 2.813,9.89 5.629,19.77 8.441,29.65 27.29,-0.31 99.336,-2.66 101.379,-4.22 38.598,-24.87 28.77,-52.22 46.457,-80.5 38.551,8.41 64.172,-0.09 97.161,-8.48 -3.829,17.16 -1.372,19.18 4.218,33.9 14.078,-2.83 28.164,-5.66 42.243,-8.48 -0.68,56.84 -19.094,46.04 -25.348,80.5 27.777,-2.64 58.215,8.41 67.582,0 -2.598,-36.37 20.426,-48.86 38.019,-80.5 13.696,2.6 40.879,0.2 67.582,12.72 1.93,11.32 -2.597,6.38 8.454,16.94 11.839,-7.53 37.05,-25.35 42.234,-25.42 20.727,-20.05 34.23,14.44 46.461,-8.48 24.558,9.53 46.141,85.24 42.242,105.92 15.481,5.65 30.981,11.3 46.465,16.94 6.652,-16.46 7.973,-7.74 21.117,-16.94 -0.133,-15.6 0.953,-35.4 12.672,-46.6 16.387,4.54 72.035,-0.31 67.582,8.48 5.629,4.68 29.566,67.77 29.566,67.77 64.45,-2.59 79.424,42.29 130.944,59.32 0.66,-3.39 0.03,-8.5 4.22,-4.24 -4.94,-30.47 -4.23,-30.25 -12.67,-55.08 14.02,-2.93 76.37,-21.61 92.94,-33.89 30.06,15.91 58.47,43.8 97.14,29.66 l 118.27,-88.97 c 32.04,-39.55 -1.33,-73.78 67.58,-114.38 56.76,-33.44 111.38,14.48 156.3,-38.14 22.7,-26.6 -13.06,-90.78 4.22,-118.62 9.84,1.42 19.7,2.82 29.57,4.24 11.26,15.53 22.52,31.06 33.79,46.6 17.95,-9.14 24.64,-4.97 38.01,-21.18 -11.72,-39.67 7.77,-70.02 21.12,-72.02 77.97,-5.45 73.46,71.26 160.51,63.54 6.05,-16.68 19.25,-5.5 12.67,-21.18 49.17,-44.16 -45.11,-97.29 -63.36,-110.15 2.55,-21.76 1.3,-35.08 12.67,-50.84 33.5,-0.58 38.15,0.35 42.24,16.95 29.69,20.41 3.01,52.54 63.36,59.31 7.03,-7.06 14.08,-14.13 21.12,-21.18 -4.6,-53.09 -14.4,-188.69 67.58,-160.98 2.83,35.28 5.64,70.61 8.45,105.9 10.99,1.81 2.31,-4.13 12.68,4.24 -6.18,7.27 2.35,14.34 -12.68,12.71 22.53,18.36 45.05,36.72 67.59,55.07 5.55,-13.87 88.48,-57.27 122.49,-50.83 -0.08,-21.61 -0.12,-16.41 4.23,-21.19 9.53,-14.24 131.98,2.81 168.95,-16.94 3.14,-13.96 8.15,-20.49 16.91,-21.18 -20.53,-108.07 -1.11,-158.63 71.79,-241.49 13,9.64 29.81,13.99 33.79,29.66 21.83,-9.95 48.73,-25.59 67.59,-55.08 35.92,7.18 53.76,-17.35 71.81,21.18 -10.45,5.25 -7.49,4.46 -12.67,21.2 7.03,-2.84 14.07,-5.66 21.11,-8.48 0,9.88 0,19.76 0,29.66 20.93,-1.68 21.33,-4.97 33.79,4.23 -1.41,4.23 -2.8,8.47 -4.22,12.71 23.79,1.25 46.94,1.17 59.14,-8.48 9.85,-56.47 19.71,-112.98 29.58,-169.45 2.8,2.82 5.62,5.64 8.42,8.47 8.99,9.92 1.87,-0.48 4.24,12.7 19.74,-16.01 35.85,-14.9 67.58,-8.47 -15.23,-31.77 -124.63,-92.2 -80.24,-127.1 5.62,-8.47 11.26,-16.94 16.88,-25.41 16.47,4.32 25.65,3.14 21.12,12.71 4.22,4.23 8.45,8.47 12.67,12.7 0,-2.82 0,-5.64 0,-8.47 12.56,-1.69 11.72,2.32 21.12,-12.71 -9.73,-51.49 -27.37,-78.88 -67.59,-105.91 -0.7,-43.3 16.9,-76.26 16.9,-76.26 -5.11,-26.89 -12.61,-44.09 -16.9,-67.78"
         style="fill:#000000;fill-opacity:1;fill-rule:evenodd;stroke:none;transform: translate(-150px, -150px)"
         id="path12" />
      <path
         d="m 422.398,4689.85 c 1.403,-2.82 2.817,-5.65 4.223,-8.48 -1.406,2.83 -2.82,5.66 -4.223,8.48"
         style="fill:#000000;fill-opacity:1;fill-rule:evenodd;stroke:none;transform: translate(-150px, -150px)"
         id="path14" />
      <path
         d="m 139.395,4520.39 c 2.812,-2.83 5.628,-5.66 8.441,-8.48 -2.813,2.82 -5.629,5.65 -8.441,8.48"
         style="fill:#000000;fill-opacity:1;fill-rule:evenodd;stroke:none;transform: translate(-150px, -150px)"
         id="path16" />
      <path
         d="m 688.5,3567.17 c 2.816,0 5.633,0 8.453,0 -2.82,0 -5.637,0 -8.453,0"
         style="fill:#000000;fill-opacity:1;fill-rule:evenodd;stroke:none;transform: translate(-150px, -150px)"
         id="path18" />
      <path
         d="m 861.684,3291.79 c 1.406,-2.83 2.82,-5.65 4.222,-8.48 -1.402,2.83 -2.816,5.65 -4.222,8.48"
         style="fill:#000000;fill-opacity:1;fill-rule:evenodd;stroke:none;transform: translate(-150px, -150px)"
         id="path20" />
      <path
         d="m 933.492,3164.69 c 2.817,0 5.629,0 8.446,0 -2.817,0 -5.629,0 -8.446,0"
         style="fill:#000000;fill-opacity:1;fill-rule:evenodd;stroke:none;transform: translate(-150px, -150px)"
         id="path22" />
      <path
         d="m 1203.83,2800.35 c 1.4,-2.83 2.81,-5.65 4.22,-8.47 -1.41,2.82 -2.82,5.64 -4.22,8.47"
         style="fill:#000000;fill-opacity:1;fill-rule:evenodd;stroke:none;transform: translate(-150px, -150px)"
         id="path24" />
      <path
         d="m 3636.82,1588.7 c 4.22,0 8.44,0 12.67,0 -2.81,-2.81 -5.63,-5.65 -8.45,-8.48 -1.41,2.83 -2.83,5.67 -4.22,8.48"
         style="fill:#000000;fill-opacity:1;fill-rule:evenodd;stroke:none;transform: translate(-150px, -150px)"
         id="path26" />
      <path
         d="m 2969.42,1533.62 c 2.83,0 5.65,0 8.45,0 -7.36,-4.13 -0.93,-3.85 -8.45,0"
         style="fill:#000000;fill-opacity:1;fill-rule:evenodd;stroke:none;transform: translate(-150px, -150px)"
         id="path28" />
      <path
         d="m 2973.66,1520.92 c 4.21,-1.42 8.44,-2.82 12.67,-4.24 -2.82,-4.24 -5.64,-8.48 -8.46,-12.72 -1.41,5.66 -2.8,11.31 -4.21,16.96"
         style="fill:#000000;fill-opacity:1;fill-rule:evenodd;stroke:none;transform: translate(-150px, -150px)"
         id="path30" />
      <path
         d="m 1600.87,254.191 c 2.83,0 5.63,0 8.46,0 -2.83,0 -5.63,0 -8.46,0"
         style="fill:#000000;fill-opacity:1;fill-rule:evenodd;stroke:none;transform: translate(-150px, -150px)"
         id="path32" />
    </g>
  </g>
  <g
     id="g8"
     inkscape:groupmode="layer"
     inkscape:label="ink_ext_XXXXXX"
     transform="matrix(1.3333333,0,0,-1.3333333,0,640)">
    <g
       id="g10"
       transform="scale(0.1)">
      <path
         d="m 2783.57,3427.36 c 24.45,-2.96 10.95,-1.03 21.13,-12.72 -10.31,-4.42 -21.13,-13.42 -16.91,-21.18 -11.41,-102.11 -73.61,-62.14 -105.58,-118.62 18.58,-3.21 20.58,-54.15 46.46,-67.78 6.12,12.02 25.29,29.65 33.79,4.24 -13.28,-6.25 -4.95,-23.18 4.22,-42.37 -13.65,-8.37 -16.24,-11.78 -21.11,-29.66 5.63,2.82 11.26,5.66 16.89,8.48 -0.8,-21.59 2.23,0.32 4.22,-21.18 -14.39,-3.66 -5.63,-13.7 -8.44,-42.38 32.31,8.04 53.08,46.2 63.35,55.08 -1.11,-33.71 -4.38,-69.78 8.45,-80.49 2.64,17.6 14.95,32.32 29.57,46.6 14.08,1.41 28.16,2.82 42.24,4.23 0,-2.82 0,-5.64 0,-8.47 4.22,-36.71 8.44,-73.43 12.67,-110.14 5.64,1.4 11.26,2.81 16.9,4.22 16.9,4.25 33.79,8.48 50.68,12.72 1.41,-16.94 2.81,-33.9 4.23,-50.84 -9.96,-5.81 -17.79,3.19 -12.67,-12.71 2.8,-21.17 5.63,-42.36 8.44,-63.55 11.27,2.83 22.53,5.66 33.8,8.48 1.39,-7.06 2.8,-14.12 4.22,-21.18 22.42,8.38 41.53,7.9 50.68,21.18 12.43,15.95 3.55,33.86 21.12,50.83 -4.31,4.15 -4.21,4.24 -4.21,4.24 0.15,16.72 0.01,12.85 8.44,33.89 23.93,4.24 47.88,8.48 71.81,12.72 4.22,-4.24 8.45,-8.48 12.67,-12.72 0.43,-54.17 14.49,-115.81 25.34,-169.46 -16.89,-1.41 -33.79,-2.82 -50.69,-4.24 9.86,-62.12 19.72,-124.27 29.57,-186.4 -1.4,-1.41 -2.81,-2.82 -4.22,-4.24 -23.5,0.27 -60.47,-2.96 -76.03,-12.7 -8.78,-8.58 -5.77,-4.24 -8.45,-21.19 23.37,-0.55 25.45,3.92 21.12,-16.94 4.22,-9.89 8.44,-19.78 12.68,-29.66 9.94,-10.52 9.4,-4.28 21.11,-8.47 0,9.88 0,19.77 0,29.65 22.52,2.83 45.06,5.65 67.59,8.48 0,-1.42 0,-2.83 0,-4.24 5.63,-28.24 11.26,-56.49 16.89,-84.73 -8.45,-2.82 -16.89,-5.65 -25.34,-8.48 -1.41,-39.54 -2.82,-79.08 -4.23,-118.62 -29.94,-5.17 -34.29,-7.25 -46.46,-25.42 2.81,0 5.63,0 8.45,0 -1.42,-2.83 -2.82,-5.65 -4.22,-8.47 4.22,-1.42 8.44,-2.83 12.67,-4.23 22.52,7.05 45.05,14.11 67.58,21.17 1.41,0 2.81,0 4.22,0 1.41,-16.94 2.83,-33.9 4.23,-50.83 40.39,-2.08 52.25,-1.55 76.03,16.93 30.81,-33.18 22.5,-79.05 46.45,-114.37 33.79,7.06 67.59,14.13 101.38,21.19 0,7.05 0,14.12 0,21.17 11.27,-2.81 22.53,-5.64 33.8,-8.47 1.79,-43.66 13.88,-60.89 21.11,-93.21 32.72,7.36 17.79,19.87 38.03,21.19 7.03,1.42 14.07,2.81 21.11,4.23 4.22,-5.64 8.45,-11.3 12.68,-16.94 -8.46,-9.89 -16.9,-19.78 -25.35,-29.66 -16.91,-4.22 -2.12,1.29 -12.68,-12.71 64.19,-31.12 20.63,-243.72 21.13,-326.22 -8.45,-4.24 -16.89,-8.46 -25.35,-12.7 7.26,-20.23 0.14,-21.69 16.9,-25.42 -2.82,-5.65 -5.64,-11.3 -8.44,-16.95 -6.44,-8.7 -41.87,-22.8 -59.14,-16.95 12.05,-40.29 33.26,-37.69 42.23,-72.01 24.09,1.8 42.62,9.09 38.02,-16.94 17.03,8.05 12.18,9.5 25.35,21.18 16.18,-24.92 3.26,-48.76 38.01,-50.84 -1.42,-4.24 -2.81,-8.48 -4.22,-12.72 -16.41,-2.02 -4.05,3.44 -16.9,-4.23 1.41,-4.23 2.82,-8.47 4.23,-12.71 26.99,4.43 62.54,-29.95 92.93,-42.37 4.21,4.23 8.44,8.47 12.66,12.71 19.99,-12.22 32.04,-32.27 50.7,-33.9 1.78,17.08 -0.71,14.31 16.89,25.42 0,-8.46 0,-16.94 0,-25.42 -25.34,-14.12 -50.68,-28.24 -76.04,-42.36 -11.25,8.48 -22.52,16.94 -33.78,25.42 -59.47,-47.63 -83.51,-18.11 -143.62,-4.24 -8.94,-19.01 -31.61,-29.6 -46.46,-38.13 4.02,-18.67 5.03,-18.53 -8.45,-29.66 -6.1,12.27 -51.32,42.72 -67.59,38.14 0,4.24 0,8.47 0,12.71 10.39,8.28 1.71,2.4 12.68,4.24 -12.17,20.28 -37.81,29.98 -46.47,50.84 24.25,12.83 -26.09,68.61 -46.45,76.26 0,-2.82 0,-5.66 0,-8.48 -2.82,1.42 -5.65,2.82 -8.46,4.24 -1.41,-5.65 -2.82,-11.3 -4.23,-16.94 12.07,-7.03 12.6,-32.26 8.45,-25.42 -7.83,-14.19 -35.47,-19.09 -54.91,-25.43 -0.68,20.93 0.77,14.06 -21.12,21.19 4.23,-42.37 8.45,-84.74 12.68,-127.1 -52.23,0.23 -63.02,2.1 -105.6,4.24 -4.22,29.65 -8.45,59.3 -12.67,88.96 -38.1,-11.18 -84.09,9.61 -88.71,33.9 1.82,10.48 14.44,22.83 16.9,29.66 1.4,1.41 2.81,2.82 4.22,4.23 -18.3,19.77 -36.61,39.55 -54.91,59.31 -2.81,0 -5.64,0 -8.46,0 -8.45,-14.94 -45.08,-80.95 -71.79,-76.26 -21.11,21.62 -8.32,59.78 -42.25,80.5 0,-2.81 0,-5.65 0,-8.47 -2.8,1.42 -5.63,2.82 -8.44,4.23 11.93,-40.05 -7.29,-33.49 -25.34,-63.54 12.74,-6.47 7.41,-11.7 12.67,-25.42 -18.88,-0.77 -4.13,4.7 -16.9,-8.48 7.04,-9.88 14.08,-19.78 21.12,-29.66 -12.44,-15.9 -42.77,-16.71 -59.13,-12.7 -2.11,-33.49 -16.43,-38.47 -33.8,-55.09 0,2.83 0,5.66 0,8.48 -9.85,1.41 -19.71,2.82 -29.57,4.24 12.68,19.77 25.36,39.54 38.02,59.31 -34.71,17.79 -18.78,70.67 -4.22,88.96 10.98,1.82 2.31,-4.13 12.67,4.25 -3.17,12.15 -10.75,105.8 -29.57,122.85 -14.52,-15.09 -42.4,-7.1 -54.9,-21.19 -9.26,-9.81 -8.98,-35.86 -12.68,-50.82 -58.61,0.51 -84.28,-7.62 -130.95,-12.71 -2.43,-16.99 0.2,-12.68 -8.44,-21.18 -18.86,-6.51 -36.29,0.05 -46.47,-16.95 12.68,0 25.34,0 38.01,0 -1.4,-11.3 -2.8,-22.6 -4.21,-33.89 -37.35,2.12 -76.47,2.54 -92.93,-16.96 27.54,-20.71 29.52,-132.41 50.68,-152.52 1.35,-1.27 9.36,-28.05 12.68,-16.94 -5.63,-18.36 -11.27,-36.71 -16.89,-55.07 -1.42,-1.41 -2.82,-2.81 -4.23,-4.24 0,-1.41 0,-2.82 0,-4.23 -4.23,-2.83 -8.44,-5.65 -12.68,-8.47 -0.81,-1.5 -21.26,-80.26 4.24,-67.79 4.63,-12.25 88.32,-82.56 101.38,-93.21 -23.82,-25.85 -120.48,-138.939 -109.84,-156.752 4.4,-24.187 31.52,-40.867 50.69,-63.539 -11.73,-27.461 -24.14,-49.289 -25.35,-72.027 -54.85,-10.434 -173.63,-18.922 -211.19,-50.832 -11.12,-6.93 -4.71,-14.449 -29.56,-21.191 15.52,-52.821 -7.5,-151.149 33.79,-186.411 -2.82,-2.816 -5.64,-5.636 -8.46,-8.468 -26.07,-2.469 -63.47,-8.5 -88.7,-21.188 -0.08,-24.832 7.76,-45.293 -8.44,-55.082 -19.26,-28.281 -79.96,-24.121 -105.61,-8.461 -2.8,-1.418 -5.62,-2.828 -8.44,-4.23 0.07,-36.207 2.13,-33.949 8.44,-63.547 -12.04,-6.801 -5.33,3.808 -12.67,-8.473 -24.59,9.77 -51.44,19.289 -76.02,12.711 6.25,-31.769 -10.43,-60.449 -33.8,-76.262 1.41,-12.707 2.82,-25.418 4.24,-38.128 2.8,1.41 5.62,2.82 8.43,4.242 9.86,1.41 19.71,2.82 29.58,4.226 1.04,-36.316 12.26,-109.207 29.57,-135.566 -27.46,-4.492 -42.86,-1.621 -59.15,-21.192 18.55,-17.21 23.95,-63.5698 25.35,-101.6597 -4.22,1.4102 -8.45,2.8203 -12.68,4.2305 -13.69,-15.9492 -48.89,-20.3399 -76.02,-25.4219 -2.82,19.7695 -5.63,39.5508 -8.45,59.3203 -40.82,-19.6289 -121.4,46.3398 -135.17,29.6528 -40.01,-8.2 -89.19,-87.3207 -88.7,-127.102 -5.63,5.64063 -11.27,11.3008 -16.9,16.9414 -37.21,6.25 -53.59,134.8786 -46.46,156.7576 -20.1,-3.75 -42.7,-15.668 -38.02,16.93 -20.29,9.453 -19.16,12.519 -33.78,38.141 2.8,0 5.64,0 8.44,0 4.82,18.531 58.78,23.339 54.92,29.66 8.44,9.879 16.89,19.769 25.34,29.66 -1.42,2.808 -2.82,5.648 -4.23,8.461 -12.46,2.57 -4.52,-4.422 -12.67,8.48 19.23,3.188 5.94,49.719 0,72.028 16.12,6.031 3.38,0.972 12.67,16.929 -11.34,1.66 -22.45,81.223 -16.9,101.672 -9.85,-1.398 -19.7,-2.808 -29.56,-4.219 -3.01,8.641 -7.11,97.508 -21.12,127.098 8.45,5.641 16.89,11.293 25.35,16.941 -7.05,11.301 -14.09,22.61 -21.13,33.891 37.32,53.41 -19.85,150.84 -25.33,220.301 10.28,0.578 4.48,12.816 21.11,8.469 0,4.238 0,8.48 0,12.718 -11.8,7.821 -0.58,3.063 -16.89,4.231 1.24,5.269 13.7,35.808 -4.22,25.422 7.68,17.57 18.89,20.59 21.11,25.418 10.23,71.21 64.23,142.33 8.45,194.88 -5.03,-10.59 2.7,-4.17 -8.45,-8.48 2.81,21.19 5.64,42.37 8.45,63.56 16.87,1.33 11.94,1.61 29.57,8.47 -11.27,21.42 -11.19,24.51 -4.24,46.61 18.72,5.55 18.46,5.8 42.25,4.24 -4.38,20.02 15,38.78 29.57,42.36 -7.04,25.42 -14.09,50.83 -21.12,76.25 11.07,5.22 38.32,34.38 33.79,55.07 20.04,-4.78 15.48,-11.26 29.57,0 -5.64,5.65 -11.26,11.31 -16.9,16.95 2.82,2.82 5.64,5.65 8.45,8.48 7.04,5.64 14.09,11.3 21.12,16.94 -3.21,10.05 0.23,36.04 -4.23,46.6 -10.99,1.81 -2.3,-4.13 -12.66,4.24 4.22,4.24 8.44,8.48 12.66,12.71 -0.36,15.65 -26.79,47.02 -46.46,67.79 13.63,20.86 14.44,57.9 16.9,59.29 2.35,16.89 7.09,13.06 12.67,29.67 -11.39,4.3 -10.93,12.74 -16.89,29.66 56.48,12.24 17.67,110.12 21.12,156.75 -5.64,-2.81 -11.28,-5.66 -16.9,-8.47 -0.45,21.23 1.02,16.95 -16.9,16.95 6.97,52.73 -20.85,93.06 -38.01,101.67 13.66,22.35 8.23,20.25 4.22,50.84 -26.08,12.78 -70.77,39.29 -76.03,97.44 17.47,4.65 13.74,8.79 21.12,21.18 -8.44,4.24 -16.9,8.47 -25.34,12.71 8.12,20.22 8.67,18.14 8.44,42.37 -8.44,2.82 -16.89,5.65 -25.33,8.47 8.44,8.48 16.89,16.94 25.33,25.41 0,1.42 0,2.83 0,4.24 -27.35,44.79 -10.69,37.68 -33.78,80.5 18.47,9.42 9.78,8.31 16.89,21.17 -21.88,7.65 -35.25,33.18 -63.36,46.61 5.63,8.47 11.26,16.95 16.89,25.42 -2.81,-1.41 -5.63,-2.82 -8.45,-4.24 -15.55,16.28 -85.56,2.56 -101.37,63.55 -25.19,-4.51 -105.63,64.87 -130.94,93.21 14.74,13.11 18.64,-4.22 25.35,21.18 -28.39,-8.58 -60.22,6.21 -67.58,21.19 2.8,-1.42 5.62,-2.84 8.44,-4.25 2.81,8.47 5.63,16.95 8.45,25.43 -0.16,16.77 -12.68,79.43 -29.57,72.02 1.41,2.82 2.81,5.64 4.22,8.47 -1.41,8.47 -2.81,16.95 -4.22,25.42 -34.9,27.05 -27.46,40.3 -33.79,80.49 0,1.41 0,2.83 0,4.24 0,4.23 0,8.47 0,12.71 -1.41,1.41 -2.82,2.82 -4.22,4.24 -15.8,-0.09 -20.26,5.2 -29.58,8.47 -2.8,1.41 -5.63,2.82 -8.44,4.23 -7.21,-12.54 -2.51,-20.56 -21.12,-25.42 -2.43,21.17 -6.95,30.15 -25.34,38.14 -13.52,-23.76 -8.41,-6.37 -29.57,-12.72 -1.37,26.97 -9,28.44 -25.35,38.13 -1.79,-11.02 4.12,-2.3 -4.22,-12.71 -5.63,2.83 -11.27,5.66 -16.9,8.48 13.42,13.05 9.68,10.35 25.35,8.48 -8.88,25.29 -13.66,21.18 -21.13,50.82 10.16,2.6 4.51,8.57 8.45,25.43 -7.03,-5.65 -14.08,-11.3 -21.11,-16.95 -8.26,10.41 -2.4,1.71 -4.23,12.7 -7.47,5.81 -5.15,-0.94 -4.22,8.48 -15.03,16.31 -3.53,26.52 8.45,42.36 -16.48,27.82 -31.04,30.03 -33.8,46.61 8.29,21.75 34.97,29.8 25.35,50.84 -19.25,-3.71 -46.252,10.94 -38.022,29.66 -16.765,-10.77 -6.351,-10.08 -25.335,-12.72 -5.625,5.66 -11.27,11.3 -16.903,16.96 -19.582,-8.97 -13.777,-13.51 -21.117,4.24 -4.551,2.48 -29.129,25.16 -25.34,33.88 -2.262,19.22 1.402,25.42 8.445,38.13 -11.269,1.41 -22.527,2.81 -33.793,4.23 5.161,73.52 -172.144,166.66 -147.835,233.01 -18.219,0.88 -20.391,1.12 -29.567,8.48 4.219,8.48 8.445,16.95 12.672,25.41 -12.937,0.1 -5.914,-4.06 -16.898,4.24 -1.411,9.89 -2.817,19.78 -4.227,29.66 26.969,2.59 17.59,-8.07 29.57,12.71 -12.23,13.79 -11.257,31.09 -4.222,46.61 -19.082,2.79 -50.368,54.28 -54.91,72.01 8.968,9.93 1.859,-0.47 4.226,12.71 -9.957,1.26 -30.367,-8.56 -21.121,8.48 -16.336,9.54 -16.414,98.62 -21.121,135.57 -21.652,7.17 -35.223,13.96 -42.238,29.66 -1.274,11.59 8.379,23.21 16.89,38.12 -11.261,12.71 -22.531,25.42 -33.789,38.14 10.293,0.72 17.168,23 16.899,29.64 -2.754,14.67 3.796,6.91 -12.676,16.95 -6.731,-12.34 -7.235,-9.23 -25.344,-8.47 1.406,9.88 2.816,19.77 4.223,29.65 -7.035,1.41 -14.082,2.83 -21.117,4.24 -6.118,-9.46 -7.399,-5.33 -21.125,-12.71 0,5.65 0,11.3 0,16.95 12.914,0.3 10.222,9.26 21.125,25.42 -4.223,1.41 -8.454,2.82 -12.672,4.24 -29.071,1.07 -47.465,76.64 -76.035,88.96 19.222,31.79 10.792,42.47 0,55.07 -1.403,5.65 -2.813,11.31 -4.223,16.95 -5.625,-1.41 -11.262,-2.82 -16.895,-4.24 -2.402,-10.64 4.684,-13.76 -16.894,-16.94 -1.938,10.43 -28.457,19.83 -46.465,38.13 2.812,1.41 5.641,2.83 8.453,4.24 0,2.83 0,5.65 0,8.47 20.703,-9.78 16.156,-10.81 38.012,-12.71 1.406,4.24 2.82,8.47 4.222,12.71 -12.828,8.23 -4.414,1.39 -8.445,12.71 -18.301,0 -36.613,0 -54.914,0 1.984,16.4 0.379,11.3 4.227,16.94 1.398,12.71 2.816,25.42 4.214,38.13 -1.398,2.82 -2.816,5.65 -4.214,8.47 -13.934,-4.68 -14.461,-0.29 -21.121,-8.47 -8.797,-14.99 -3.707,-17.42 -21.122,-25.42 1.407,2.83 2.817,5.65 4.223,8.47 -12.922,2.8 -6.523,-4.18 -12.672,12.71 16.91,4.23 2.129,-1.28 12.672,12.71 -44.683,0.73 -46.863,16.38 -50.683,55.08 -16.567,-5.66 -17.325,-9.11 -29.567,0 -14.125,10.73 -9.93,15.81 -16.898,29.66 -40.442,-12.97 -63.246,4.62 -97.153,0 0,-5.65 0,-11.3 0,-16.94 -1.406,0 -2.816,0 -4.222,0 -12.2621,15.21 -10.7699,11.85 -16.891,29.65 -4.2304,-1.42 -8.4531,-2.83 -12.6757,-4.24 -14.4883,-7.01 -4.3555,-15.32 -25.3477,-21.19 1.4102,2.83 2.8164,5.66 4.2266,8.48 -9.4258,3.68 -9.7266,13.55 -21.1172,21.18 -2.1758,-10.21 -0.1367,-7.61 -12.6758,-16.94 -5.6289,5.64 -11.26173,11.3 -16.89454,16.94 -1.40625,8.47 -2.8125,16.94 -4.22266,25.42 16.3984,9.61 76.0313,84.74 76.0313,84.74 -0.8165,12.6 -1.125,23.77 -12.6758,29.65 2.8164,5.65 5.6367,11.3 8.4492,16.94 1.4101,0 2.8203,0 4.2266,0 15.4843,-25.41 30.9767,-50.83 46.4647,-76.25 32.399,8.11 31.371,-16.09 54.906,-38.14 14.082,1.42 28.164,2.84 42.243,4.24 -13.778,47.04 10.359,69.83 -16.895,93.21 -5.633,-4.24 -11.266,-8.47 -16.895,-12.71 -7.011,5.29 -29.824,24.99 -29.566,25.41 -17.043,6.09 -24.109,55.33 -54.918,63.56 5.41,11.9 0.371,10.46 12.672,21.18 7.926,-18.04 25.586,-13.71 42.246,-16.95 2.813,9.89 5.629,19.77 8.441,29.65 27.29,-0.31 99.336,-2.66 101.379,-4.22 38.598,-24.87 28.77,-52.22 46.457,-80.5 38.551,8.41 64.172,-0.09 97.161,-8.48 -3.829,17.16 -1.372,19.18 4.218,33.9 14.078,-2.83 28.164,-5.66 42.243,-8.48 -0.68,56.84 -19.094,46.04 -25.348,80.5 27.777,-2.64 58.215,8.41 67.582,0 -2.598,-36.37 20.426,-48.86 38.019,-80.5 13.696,2.6 40.879,0.2 67.582,12.72 1.93,11.32 -2.597,6.38 8.454,16.94 11.839,-7.53 37.05,-25.35 42.234,-25.42 20.727,-20.05 34.23,14.44 46.461,-8.48 24.558,9.53 46.141,85.24 42.242,105.92 15.481,5.65 30.981,11.3 46.465,16.94 6.652,-16.46 7.973,-7.74 21.117,-16.94 -0.133,-15.6 0.953,-35.4 12.672,-46.6 16.387,4.54 72.035,-0.31 67.582,8.48 5.629,4.68 29.566,67.77 29.566,67.77 64.45,-2.59 79.424,42.29 130.944,59.32 0.66,-3.39 0.03,-8.5 4.22,-4.24 -4.94,-30.47 -4.23,-30.25 -12.67,-55.08 14.02,-2.93 76.37,-21.61 92.94,-33.89 30.06,15.91 58.47,43.8 97.14,29.66 l 118.27,-88.97 c 32.04,-39.55 -1.33,-73.78 67.58,-114.38 56.76,-33.44 111.38,14.48 156.3,-38.14 22.7,-26.6 -13.06,-90.78 4.22,-118.62 9.84,1.42 19.7,2.82 29.57,4.24 11.26,15.53 22.52,31.06 33.79,46.6 17.95,-9.14 24.64,-4.97 38.01,-21.18 -11.72,-39.67 7.77,-70.02 21.12,-72.02 77.97,-5.45 73.46,71.26 160.51,63.54 6.05,-16.68 19.25,-5.5 12.67,-21.18 49.17,-44.16 -45.11,-97.29 -63.36,-110.15 2.55,-21.76 1.3,-35.08 12.67,-50.84 33.5,-0.58 38.15,0.35 42.24,16.95 29.69,20.41 3.01,52.54 63.36,59.31 7.03,-7.06 14.08,-14.13 21.12,-21.18 -4.6,-53.09 -14.4,-188.69 67.58,-160.98 2.83,35.28 5.64,70.61 8.45,105.9 10.99,1.81 2.31,-4.13 12.68,4.24 -6.18,7.27 2.35,14.34 -12.68,12.71 22.53,18.36 45.05,36.72 67.59,55.07 5.55,-13.87 88.48,-57.27 122.49,-50.83 -0.08,-21.61 -0.12,-16.41 4.23,-21.19 9.53,-14.24 131.98,2.81 168.95,-16.94 3.14,-13.96 8.15,-20.49 16.91,-21.18 -20.53,-108.07 -1.11,-158.63 71.79,-241.49 13,9.64 29.81,13.99 33.79,29.66 21.83,-9.95 48.73,-25.59 67.59,-55.08 35.92,7.18 53.76,-17.35 71.81,21.18 -10.45,5.25 -7.49,4.46 -12.67,21.2 7.03,-2.84 14.07,-5.66 21.11,-8.48 0,9.88 0,19.76 0,29.66 20.93,-1.68 21.33,-4.97 33.79,4.23 -1.41,4.23 -2.8,8.47 -4.22,12.71 23.79,1.25 46.94,1.17 59.14,-8.48 9.85,-56.47 19.71,-112.98 29.58,-169.45 2.8,2.82 5.62,5.64 8.42,8.47 8.99,9.92 1.87,-0.48 4.24,12.7 19.74,-16.01 35.85,-14.9 67.58,-8.47 -15.23,-31.77 -124.63,-92.2 -80.24,-127.1 5.62,-8.47 11.26,-16.94 16.88,-25.41 16.47,4.32 25.65,3.14 21.12,12.71 4.22,4.23 8.45,8.47 12.67,12.7 0,-2.82 0,-5.64 0,-8.47 12.56,-1.69 11.72,2.32 21.12,-12.71 -9.73,-51.49 -27.37,-78.88 -67.59,-105.91 -0.7,-43.3 16.9,-76.26 16.9,-76.26 -5.11,-26.89 -12.61,-44.09 -16.9,-67.78"
         style="fill:#ffbd6d;fill-opacity:1;fill-rule:evenodd;stroke:none"
         id="path12" />
      <path
         d="m 422.398,4689.85 c 1.403,-2.82 2.817,-5.65 4.223,-8.48 -1.406,2.83 -2.82,5.66 -4.223,8.48"
         style="fill:#ffbd6d;fill-opacity:1;fill-rule:evenodd;stroke:none"
         id="path14" />
      <path
         d="m 139.395,4520.39 c 2.812,-2.83 5.628,-5.66 8.441,-8.48 -2.813,2.82 -5.629,5.65 -8.441,8.48"
         style="fill:#ffbd6d;fill-opacity:1;fill-rule:evenodd;stroke:none"
         id="path16" />
      <path
         d="m 688.5,3567.17 c 2.816,0 5.633,0 8.453,0 -2.82,0 -5.637,0 -8.453,0"
         style="fill:#ffbd6d;fill-opacity:1;fill-rule:evenodd;stroke:none"
         id="path18" />
      <path
         d="m 861.684,3291.79 c 1.406,-2.83 2.82,-5.65 4.222,-8.48 -1.402,2.83 -2.816,5.65 -4.222,8.48"
         style="fill:#ffbd6d;fill-opacity:1;fill-rule:evenodd;stroke:none"
         id="path20" />
      <path
         d="m 933.492,3164.69 c 2.817,0 5.629,0 8.446,0 -2.817,0 -5.629,0 -8.446,0"
         style="fill:#ffbd6d;fill-opacity:1;fill-rule:evenodd;stroke:none"
         id="path22" />
      <path
         d="m 1203.83,2800.35 c 1.4,-2.83 2.81,-5.65 4.22,-8.47 -1.41,2.82 -2.82,5.64 -4.22,8.47"
         style="fill:#ffbd6d;fill-opacity:1;fill-rule:evenodd;stroke:none"
         id="path24" />
      <path
         d="m 3636.82,1588.7 c 4.22,0 8.44,0 12.67,0 -2.81,-2.81 -5.63,-5.65 -8.45,-8.48 -1.41,2.83 -2.83,5.67 -4.22,8.48"
         style="fill:#ffbd6d;fill-opacity:1;fill-rule:evenodd;stroke:none"
         id="path26" />
      <path
         d="m 2969.42,1533.62 c 2.83,0 5.65,0 8.45,0 -7.36,-4.13 -0.93,-3.85 -8.45,0"
         style="fill:#ffbd6d;fill-opacity:1;fill-rule:evenodd;stroke:none"
         id="path28" />
      <path
         d="m 2973.66,1520.92 c 4.21,-1.42 8.44,-2.82 12.67,-4.24 -2.82,-4.24 -5.64,-8.48 -8.46,-12.72 -1.41,5.66 -2.8,11.31 -4.21,16.96"
         style="fill:#ffbd6d;fill-opacity:1;fill-rule:evenodd;stroke:none"
         id="path30" />
      <path
         d="m 1600.87,254.191 c 2.83,0 5.63,0 8.46,0 -2.83,0 -5.63,0 -8.46,0"
         style="fill:#ffbd6d;fill-opacity:1;fill-rule:evenodd;stroke:none"
         id="path32" />
    </g>
  </g>
</svg>
