<?xml version="1.0" encoding="UTF-8"?>
<svg width="721px" height="653px" viewBox="0 0 721 653" version="1.1" xmlns="http://www.w3.org/2000/svg" xmlns:xlink="http://www.w3.org/1999/xlink">
    <title>europe</title>
    <g id="Page-1" stroke="none" stroke-width="1" fill="none" fill-rule="evenodd" stroke-linecap="round" stroke-linejoin="round">
        <g id="europe" transform="translate(0.700000, 1.000000)" fill="#ECECEC" fill-rule="nonzero" stroke="#000000" stroke-width="0.1">
            <polygon id="AL" points="376 527.1 376.5 527.5 378.5 530.4 379.9 530.9 381.8 532.2 383.2 535.4 383.3 537.6 382.8 540.2 383.1 542.3 382.3 543.1 383 545.1 383.2 547 384.4 549.2 385.6 550.3 386.9 552.7 388.5 552.5 389.8 553.6 389.8 554.7 390.9 556.5 390.1 559.1 388.4 559.9 387.2 563 386.9 565 386.3 565.5 384.4 565.8 382.7 567.1 383.7 569.3 382.8 570 382.5 571.5 381.8 572.2 379.1 571.3 378.4 568.8 376.7 566.1 371.8 563.5 370.6 562.4 371 560.9 370.9 559.5 369.5 557.1 369.8 554.5 370.6 552.3 370.3 549.6 370.4 547.5 369.7 544.6 370.2 542.5 371.1 541.2 370.9 539 369.4 537.9 367.8 537.7 367.8 534.6 367.5 534 369.2 534 367.5 531.2 370.7 525.9 371.8 526.2 372.6 528.3 376 527.1"></polygon>
            <polygon id="AD" points="144.7 527.8 141.9 528.9 141.2 528.5 141.2 526.4 142.1 525.7 144.7 526.3"></polygon>
            <polygon id="AM" points="695.9 571.4 692.7 568.6 690.4 566.9 688.8 566.2 685.3 566.6 682.4 565.7 680.6 564.8 681.1 564.2 679.2 561.2 678.4 559.3 679.4 557.9 679.6 555.6 677.9 552.3 676.2 551.1 674.9 549.5 679.3 549.2 684.6 547.9 687.8 548.2 688.9 548 692.4 547.9 691.9 547.2 694.2 546.7 695.5 548.2 697.1 549.2 696.2 550.1 698.5 551.1 699.7 551.1 703 553.6 703 554.3 701.1 555.8 700.9 556.9 704.1 560.3 706.5 561.7 709.7 563.2 709.9 564.1 709 566.6 706 566.6 706.6 567.5 708.5 568.7 714.6 573.1 716.1 572.8 718.3 573.7 718.5 575 717.5 576.4 719.4 577.8 720.2 579.3 718.4 579.8 719.8 581.3 720.3 583.9 718.1 583.8 715.6 584.3 712.6 579.6 712.7 578.6 709.6 576.5 709.7 574.8 708.9 573.6 707.2 573.8 705.3 574.7 702.4 573.1 701.2 573.3 700.9 572.2 699.1 570.5 695.9 571.4"></polygon>
            <polygon id="AT" points="329.1 433.9 328.2 436.3 328.3 437.1 329.9 440 332.2 442.9 331.6 443.6 331 445.5 331.7 447.5 327.8 447.8 325.3 446.9 324 448.3 326.6 449 327.1 450.1 326.6 451.5 324.4 452.7 324.8 454.2 324.3 454.9 325.4 456.5 325.1 458.3 322.6 458.8 320.8 460.5 319.5 461.4 319.4 463.3 317 462.8 315.4 463 313.1 464.1 310.3 463.9 307.7 464.1 305.8 464.8 304.8 466.1 301.8 467.3 296.8 466.6 291.8 465.7 289.2 465.2 285.2 464.9 276.6 463.4 275.5 462.9 272.4 459.4 272.4 457.1 267.7 458.6 264.6 458.4 261.2 458.7 259.8 459.3 258.6 461.5 257.5 461.9 255.4 461.5 254.5 460.7 251.5 460.4 251 458.9 250.2 458.6 248.2 460.5 245.9 460.1 244.4 459.3 244 458.3 240.7 457.5 241 456.7 239.9 454.2 240.9 451.2 240 450.5 241.7 450 242.4 449.5 245.9 451.1 246.8 452.5 248 452.8 247.9 454.1 249.5 453.6 250.5 452 250.7 450.1 253.5 450 256.2 450.4 257.6 452.3 261.4 451.8 262.5 450.9 266.4 449.4 272.1 448.9 272.2 447.5 274.2 447.8 275.7 448.6 278.2 448.1 279.3 448.6 279.5 449.7 280.7 450.6 282.4 451 282.7 449.5 282.4 447.6 280.7 447.3 281.3 446 281.2 444.7 278.7 441.9 279.3 440.6 282.4 438.8 285.3 438 286.3 437 287 434.1 289.3 435 290.6 434.1 290.8 431.3 293 432.5 293.8 433.8 297.7 434.2 299.1 433.5 301.6 433.9 301.7 432.8 303 431.2 304.2 431.2 304.5 428 305.7 427.8 307.3 428.6 308.7 428.2 313.5 429.9 315 429.8 318 431.5 321.8 431.7 323 430.8 328.1 432.3 329.1 433.9"></polygon>
            <polygon id="BE" points="191.3 400.8 192.9 400.3 193.7 401.1 194.9 401.2 197.9 403.5 197.5 405 199.2 405.7 199.6 407.7 197.3 409 196.7 410.7 195 410 193.7 411.3 192.3 413.8 192.1 415.5 194.1 417.9 193 419.6 189.6 420 186.8 417.4 183.5 415.9 181.8 415.8 181.4 413.8 180.8 413.2 181.6 410.5 179.7 411.1 179.2 412.5 177.9 413.1 175.7 413.4 173.4 413.1 172.9 412.5 173.6 411.1 172.9 410.4 173.3 408.8 171.7 407.7 168.1 407.3 167.2 407.6 166.6 405.6 162.4 404.5 161.9 402.5 160.3 400.7 157.1 401.7 154.2 399.3 154.2 398.1 153.3 395.9 158.4 393.4 163.1 391.7 163.4 393 164.6 393.7 165.8 393.1 169.7 394.2 172.9 392.7 173.5 391.5 175.6 391.8 175.4 390.9 176.8 390.2 178.3 391 179.8 390 180.9 391.3 183.4 390.5 183.9 392.1 186.5 393.5 188.4 393.1 190.1 394.4 192.7 395.5 191.7 398.4 190.6 399.7 191.3 400.8"></polygon>
            <polygon id="BG" points="480.9 508.6 481.1 512.3 480.2 514.1 478.2 513.5 476 514 475 516 473.8 517.2 473.8 519.8 474.2 524 472.6 524.7 469.7 528.4 472.7 530.2 474.4 532.4 476.8 534.9 477.3 536.1 475.6 535.9 474.7 536.3 472.9 536.3 471.4 536.9 468 534.4 464.5 534.7 463 535.8 459.6 536.2 458.6 538.4 456.7 538.7 456.4 540.1 454.8 539.6 453.2 540.7 453.9 541.7 454.8 544.4 454.6 545.2 452.1 546.4 450.3 546.1 447.1 546.5 443.7 547.4 442 546.3 438.3 545.1 437.4 545.7 435 544.3 433.8 542.6 432.2 543.1 428 543 427.8 543.9 425.9 544.1 422.9 545.2 420.3 545 417.9 545.2 416.9 546.2 413.9 546 413.9 541.8 414.4 540.1 413.5 539.1 411.8 535.8 408.4 534 405.1 530.8 406.1 530.5 407.2 528.8 405.8 525.9 405.8 522.6 406.9 522 408.7 521.9 409.8 520.3 411.4 518.6 411.7 517.2 410.1 516.2 408.8 514.6 405.9 513.1 403.5 509.2 402.9 506.8 403.3 504.5 405.4 503.5 405.6 501.6 406.5 500.9 410.8 503.4 409 505.4 409.9 507.2 413.6 506.6 417.5 506.9 422.8 507.9 426.3 508.3 428.8 507.8 438.2 509.5 442.4 509.7 444.7 509.1 446.3 508.2 447.5 506.6 450.8 504.5 454 503.3 458.4 502.4 461.3 502 465.8 504.3 469 504.7 469.9 505.3 471.6 504.8 474.1 507.4 476.3 508.1 478.9 508.6 480.9 508.6"></polygon>
            <polygon id="BA" points="359.5 491.2 362.3 490.5 363.8 491.3 363.3 493.8 361.7 496.5 361.6 499.1 362.1 499.9 364.5 501.1 367.8 504 367.5 504.8 364.4 504.7 363.9 505.5 367.1 509.2 366.9 511.4 364.4 511.1 363.7 511.9 360.5 512.4 361.9 514.6 359.6 514.8 357.6 516.5 357.1 518.2 357.2 519.7 355.5 519.9 355 520.6 355.6 523.6 356.7 525.2 356.6 526 355.5 527 353.8 526.3 347.6 522.5 347 521.6 345.4 521.7 344.3 521.1 344.6 519.5 341.6 517 340.1 515.4 339.7 513.2 337.3 512.1 332.3 508 330.6 506 327.8 503.7 325.5 501.3 324.2 497.3 320.8 494.1 318.9 492.8 318.8 491.4 319.1 486.4 320.3 485.8 322.1 486.2 323.8 488 325.6 489 328.3 485.8 331.5 486.1 333 484.9 335.7 486.5 338.2 486.6 341 487.3 342.7 486.7 344.3 488 346.5 487 348.3 487.3 350.1 487.1 352.7 487.8 354.9 488 356 488.8 357.3 491 359.5 491.2"></polygon>
            <polygon id="BY" points="445.8 320.5 447.6 321.8 448.8 321.4 450.7 321.3 453.8 323.5 455.4 322.6 456.9 322.3 460.5 323.5 460.7 325.8 462.4 327.3 464.5 326 467.2 324.9 470.6 324.9 473.3 325.8 475.7 327.6 479.2 329 479.6 331.5 479 333.3 481.1 335.4 481.6 336.7 480.3 338.7 480.3 340.7 484.4 342.7 484.9 343.2 484.4 345 485.8 345.6 487.6 348 489.1 349.4 494 351.5 494.7 352.3 494.3 355.1 499.6 355.6 502.8 356.9 502.8 358 503.5 359.1 506.3 360.5 506.9 362.2 504.3 363.2 504 364.1 501 365.9 497.5 365.7 495.1 364.2 492.2 364.3 490.8 367 494.7 370.3 495.3 371.3 495.1 372.8 496.1 374.3 496.6 377.6 498.2 379 499.5 380.8 494.5 380.7 493.1 381.5 491.4 381.1 490.3 381.6 488.1 383.9 487.3 385.1 486.3 388.4 488.1 392 487.3 393.4 484.6 392.5 484.1 391.3 482.1 390.2 475 390.8 472.7 391.6 472.1 391.1 469.6 388.1 465.8 389.7 465.2 390.8 464.2 390.5 463.4 389.2 458.3 388.2 456.4 388.9 454.5 388.4 453.3 390.1 452.5 388.7 451.4 388.3 448.4 388.4 447.4 388.1 445.6 386 443.3 386 437.2 385.1 430.7 383.6 422.9 383.2 420.5 383.3 418.2 383.8 412.3 384.3 411.5 385.7 409.9 387.3 408 388.5 406.9 388 405 387.7 403.9 388.2 404 389.6 403 388 402.9 386.7 403.7 385.2 403.3 384.1 403.5 381.7 402.7 380.7 400.9 379.7 397.6 378.4 397.6 377.2 399.6 374.5 400.4 374 404.4 372.3 405 370.7 404.1 366.8 402.4 363.2 399.5 358.3 397.4 353.2 400.3 353.6 401.9 353.3 405.6 353 407.2 353.9 410.5 352.6 412.3 352.7 413.1 350.1 415.1 350.3 416.5 349.1 418.6 348.6 419.6 347.9 421.3 350.2 423.3 350 423.3 349 422.4 347.9 420.5 347.4 421 345.4 422 343.9 421.6 341.6 422.7 338.6 425.3 338 426.1 337.4 427.1 335.4 430.7 335.5 431.1 334.4 432.4 333.4 428.5 332.4 429.2 329.3 429.2 327.5 431.8 326.9 433 325.4 434.1 325.1 437.1 325.5 440.2 325.6 440.6 323.9 443.1 321.5 444.5 320.7 445.8 320.5"></polygon>
            <polygon id="CH" points="235.4 448.1 236.2 449.2 238.8 450.5 240 450.5 240.9 451.2 239.9 454.2 239.4 455.7 239.5 457.4 240.7 457.5 244 458.3 244.4 459.3 245.9 460.1 248.2 460.5 250.2 458.6 251 458.9 251.5 460.4 251 463.5 251.5 465.3 249.6 465.1 248.6 464.2 247.3 464.5 246.7 466.3 248.2 469.8 247 470.1 245.6 468.2 244.9 468.1 242 469.2 240 468.4 239.2 466.3 237.2 466.4 237.2 469.3 236.7 470.4 234.5 473 234.3 474 235 475.7 233.8 476.4 232.9 475 231.6 473.8 232 472.6 229.8 472 227.4 470 227.2 467.5 226.2 466.9 222.8 469.8 223.4 471.3 221.8 473.5 219.4 474.9 216.3 474.1 213.7 475.1 211.3 475.6 209.9 474.9 209 473.5 206.7 471.2 207.2 469.5 206.4 467.3 204.2 467 202.3 467.1 200 468.6 200.5 469.9 198.2 471.5 196.8 471.4 196.8 470.4 198.3 469.4 198.6 467.9 197.8 467.2 198.9 464.3 201.9 462.1 202.4 459.2 204.5 458.3 208.3 454.3 208.9 453.4 207.6 452.3 209.4 450.9 210.5 450.9 211.3 451.7 214 451.4 214.8 450 216.3 449.3 217.3 449.6 220.1 449.7 223.4 449.1 226 449.3 225.8 447.8 227.1 446.6 228.4 446.6 229.8 447.6 230.6 447.4 231.7 448.3 235.4 448.1"></polygon>
            <polygon id="CZ" points="300.2 399.5 302.3 399.1 302.2 397.2 305.5 398 305.8 399.1 306.8 400.2 311.4 401.3 314.1 402.4 314.9 403.3 318.1 402.6 319.9 403.8 319.2 404.9 317.6 406.1 319.2 407 321.2 408.8 322.7 410.7 323.7 411.1 327.2 408.6 325.5 406.2 326.8 406.2 329 406.8 332.3 408.7 335.9 408 335.9 409.6 334.5 410.1 337.2 412.4 338.2 413 340 412 343.5 413.8 344 413.6 346.7 414.4 347.2 416.2 350 418.4 350.5 420 347.7 420.3 345.7 421.8 345.1 422.6 342.8 423.8 342.1 426.8 340.5 427.6 338.4 429.5 336.9 430.2 335.2 430.4 331.6 429.9 330.2 431.1 329.1 433.9 328.1 432.3 323 430.8 321.8 431.7 318 431.5 315 429.8 313.5 429.9 308.7 428.2 307.3 428.6 305.7 427.8 304.5 428 304.2 431.2 303 431.2 301.7 432.8 301.6 433.9 299.1 433.5 297.7 434.2 293.8 433.8 293 432.5 290.8 431.3 290.2 430.6 287.3 428.4 286 428.4 284.7 426.8 282.2 425.3 279.3 422.7 278 422.7 275.7 420.7 273.9 418 272.5 416.5 273.7 414.8 273.1 413.2 270.8 411.9 268.3 408.5 268.8 407.8 270.7 409.8 272.6 407.2 273.7 406.6 276.3 406 278.4 406.4 279.2 405.1 281.2 404.8 281.8 403.8 283.4 403.1 284.5 403.2 285.1 402 289.5 401 293 399.5 294.9 398.9 293.4 397.4 294.2 396.8 296.4 397.2 297.9 398.7 297.9 399.6 299.3 400.2 300.2 399.5"></polygon>
            <path d="M289.2,354.2 L285.8,354.1 L285.6,352.4 L284.5,351.4 L284.4,350.4 L289.1,353 L289.2,354.2 Z M254.4,346.1 L252.6,346.1 L251.2,345.4 L252,344.4 L253.7,344.8 L254.4,346.1 L254.4,346.1 Z M282.7,346.6 L281.4,347.3 L280.1,347.3 L278.8,348.6 L276.7,347.5 L276.2,346.4 L276.3,344.2 L276.9,342.8 L278.9,341.9 L279.8,343.1 L281.5,343.7 L281,345.4 L282.7,346.6 L282.7,346.6 Z M236.1,340 L237.9,340.7 L239.5,342.3 L239.6,343.7 L237.9,345.3 L241.1,345 L241.9,346.2 L243.6,345.8 L248.1,347.6 L251.3,346.7 L252,348.1 L251.4,349.6 L249.2,351.2 L250.6,352.4 L252.7,352.2 L256.3,353.1 L259.6,350.6 L260.7,350.1 L264.3,349.8 L269.4,345.3 L274.7,346.2 L276.2,348.1 L279.9,350.2 L283.1,350 L284.4,352 L285.2,354.5 L287.1,355.8 L289.9,356.3 L290.6,358.9 L292.4,363 L292.1,365.7 L290.2,367.5 L289.5,369.1 L291.1,370.5 L294.4,372.6 L295.8,374.3 L295.2,376.9 L297.2,379.2 L298,381.1 L297.3,383.7 L296.5,384.8 L298.4,387.9 L298.4,389.5 L300.6,390.4 L302.2,393.6 L301.8,395.9 L300.2,399.5 L299.3,400.2 L297.9,399.6 L297.9,398.7 L296.4,397.2 L294.2,396.8 L293.4,397.4 L294.9,398.9 L293,399.5 L289.5,401 L285.1,402 L284.5,403.2 L283.4,403.1 L281.8,403.8 L281.2,404.8 L279.2,405.1 L278.4,406.4 L276.3,406 L273.7,406.6 L272.6,407.2 L270.7,409.8 L268.8,407.8 L268.3,408.5 L270.8,411.9 L273.1,413.2 L273.7,414.8 L272.5,416.5 L273.9,418 L275.7,420.7 L278,422.7 L279.3,422.7 L282.2,425.3 L284.7,426.8 L286,428.4 L287.3,428.4 L290.2,430.6 L290.8,431.3 L290.6,434.1 L289.3,435 L287,434.1 L286.3,437 L285.3,438 L282.4,438.8 L279.3,440.6 L278.7,441.9 L281.2,444.7 L281.3,446 L280.7,447.3 L282.4,447.6 L282.7,449.5 L282.4,451 L280.7,450.6 L279.5,449.7 L279.3,448.6 L278.2,448.1 L275.7,448.6 L274.2,447.8 L272.2,447.5 L272.1,448.9 L266.4,449.4 L262.5,450.9 L261.4,451.8 L257.6,452.3 L256.2,450.4 L253.5,450 L250.7,450.1 L250.5,452 L249.5,453.6 L247.9,454.1 L248,452.8 L246.8,452.5 L245.9,451.1 L242.4,449.5 L241.7,450 L239.5,448.8 L234.4,446.5 L235.4,448.1 L231.7,448.3 L230.6,447.4 L229.8,447.6 L228.4,446.6 L227.1,446.6 L225.8,447.8 L226,449.3 L223.4,449.1 L220.1,449.7 L217.3,449.6 L216.3,449.3 L215.2,448 L215.2,446.5 L215.8,444.5 L215.6,442.1 L215.9,440.6 L216.9,438.8 L218.3,433.3 L221.8,429.5 L221.7,428.2 L220.1,427.6 L215.3,426.8 L213.3,425.4 L210.3,426 L208.2,425.9 L207.9,425 L206.5,424.6 L204.7,425.3 L201.2,421 L199.8,420.9 L200.4,417.9 L201.3,417 L201.3,415.6 L198.5,414.5 L197,412.9 L196.7,410.7 L197.3,409 L199.6,407.7 L199.2,405.7 L197.5,405 L197.9,403.5 L194.9,401.2 L195.5,398.8 L193.6,397.6 L194.1,396.8 L196.3,395.2 L195.6,394 L196.9,391.2 L196.9,390 L193.8,385.9 L194.5,384.8 L196.3,384.1 L198.6,384.9 L203.1,383.6 L203.8,382.6 L202.8,381.7 L203.1,380.8 L205.7,379.2 L206.3,376.6 L205.5,375.6 L202.9,375.3 L202.2,374.3 L202.8,372.7 L205.9,372.8 L207,369 L207.7,367.3 L207.6,363 L205.9,361.6 L206.4,358.9 L207.5,357.5 L208.4,357.1 L212.4,356.8 L216.9,356.9 L218.8,359.1 L218.2,360.3 L219.8,360.6 L220.7,358.2 L222.1,359 L223.2,358.9 L222.7,357.2 L222.9,355.6 L223.8,354.2 L227.1,354.8 L230.7,354.5 L230.8,353.9 L228,353.4 L227.1,352.3 L226.9,348.4 L225.4,347.6 L223.8,347.9 L223.8,346.4 L227.2,345.3 L227.2,344.3 L223.8,340.5 L223.6,338.9 L226.3,339 L231.5,340.3 L234.6,339.6 L236.1,340 L236.1,340 Z" id="DE"></path>
            <path d="M254.8,339 L256.9,340 L259.3,340.3 L259.7,342.2 L256.2,342.9 L251.1,340.8 L251.2,338.3 L253.5,338.1 L254.8,339 L254.8,339 Z M268.5,337.9 L266.2,338 L264.3,339 L264,337.8 L265.6,336.8 L266.8,337 L268.5,337.9 L268.5,337.9 Z M239.7,339.1 L238.5,339.3 L236.8,338.8 L236.2,336.5 L238.9,337.6 L239.7,339.1 L239.7,339.1 Z M247.7,341.1 L246.3,339.6 L248.8,336.7 L249.5,336.5 L247.7,341.1 L247.7,341.1 Z M297.8,337.1 L295.4,336.9 L293,335.9 L293.1,333.9 L293.6,333 L298.1,335.3 L297.8,337.1 L297.8,337.1 Z M245.7,328.4 L248,332.7 L247.9,335.5 L246.1,336.7 L244,336.7 L238.6,335 L236.9,332.1 L236.8,329.8 L241.6,328.4 L244.2,329.2 L245.7,328.4 L245.7,328.4 Z M269,328.6 L268,329.2 L267.3,328.3 L268.2,327.4 L269,328.6 L269,328.6 Z M245.1,325.8 L244.2,325.8 L244.2,322.8 L245.7,324.4 L245.1,325.8 Z M267.7,325.8 L267.8,327.3 L267.1,328 L265.1,328.7 L264,330.5 L266,331.7 L266.5,333.2 L265.5,333.9 L262.9,334.6 L262.9,340.2 L260.7,340.8 L259.2,338.7 L259.1,337.8 L257.8,334.7 L255.8,334.3 L253.6,334.4 L252.1,332.6 L252.2,330.5 L251.2,328.5 L249.9,327.9 L250.3,326.5 L253.4,326.3 L254.9,324.4 L254.9,323.5 L256.7,323.3 L257.5,324 L257.6,326.6 L259.2,327.1 L260.3,324.2 L259.4,323.1 L263.3,320.9 L264.4,320.8 L267.4,321.7 L267,323.8 L267.7,325.8 L267.7,325.8 Z M236.1,340 L234.6,339.6 L231.5,340.3 L226.3,339 L223.6,338.9 L223.1,336.8 L222.3,335.4 L223.4,335.1 L222.5,331.2 L219.3,329.9 L216.8,328.5 L217.3,322.9 L216.3,320.6 L216.4,313.7 L217.7,313.6 L220.8,314.4 L222.3,315.3 L222.9,313.4 L224.5,311.8 L226.5,311 L228.1,312.3 L228.4,307.8 L226.8,307.3 L225.5,307.7 L224.2,309.6 L223.2,312 L221.3,312.2 L219.8,312.9 L217.4,311.5 L217.5,310.1 L219.1,308.2 L221.1,306.3 L223.3,306.3 L224.9,305.7 L228.8,305.8 L231.6,304.5 L234.4,300.9 L235.9,299.4 L239.2,298.9 L242.2,297.2 L241.4,299.7 L242.6,301.4 L242.6,304.4 L241.7,305.4 L240.3,307.9 L240.5,313.5 L243,315 L247.1,315 L248.1,316.1 L247.4,318.3 L244.8,319.7 L243.9,319.7 L242.5,318.6 L241.4,319.5 L240.2,324.6 L238.2,324.5 L237,325 L238.4,326.2 L237.1,327 L233.7,330.1 L234.8,333.5 L234.6,334.4 L233.1,335.7 L232.5,336.8 L234.8,337.1 L236.1,340 L236.1,340 Z" id="DK"></path>
            <path d="M376.8,284.3 L380.7,284.5 L384.7,286.3 L382.9,287 L379.2,289.5 L378.9,290 L376.3,289.9 L374.9,290.1 L373.9,291 L373,293.8 L371.4,294.3 L371.1,293.4 L372.7,291.6 L371.2,290.2 L369.3,289.5 L370.2,287.7 L368.6,286.1 L370.1,285.9 L371.1,286.4 L373.1,285.9 L373.6,284.9 L376.8,284.3 L376.8,284.3 Z M385.1,285.3 L384.2,285.5 L381.8,284.4 L382.8,283.4 L384.7,283.9 L385.1,285.3 L385.1,285.3 Z M379.7,281.3 L378.9,282 L378,281.4 L377.1,283 L375.8,283.3 L373.9,280.8 L371,280.3 L369.7,279.6 L374.2,279.2 L375.4,277.6 L376.7,277.7 L377.1,278.6 L379.2,278.9 L380.1,279.9 L379.7,281.3 L379.7,281.3 Z M432.9,300.2 L431,300 L427.6,299 L423.6,300.2 L420.8,299.1 L417.3,296.4 L416.7,295.7 L414.4,295.2 L408.8,292.7 L407.7,293.4 L406.2,292.4 L397.8,295.2 L398.8,291.8 L398.9,288.2 L396.6,287.8 L395.7,289.1 L394.4,289.4 L390.3,288.1 L389.1,286 L387.5,284.9 L386.7,283.7 L386.7,281.9 L385.2,279.9 L385.9,278.8 L385.2,276 L388.2,274.8 L391.5,274.6 L392.4,273.3 L394.4,272 L396.7,272.2 L399.8,271.2 L406.1,271.3 L406.5,269.6 L409.7,269.6 L417.3,270.8 L419.1,270.8 L421.9,272 L423.3,272.3 L427.3,272.3 L433.6,272.8 L434.8,271.8 L436.3,273 L435.3,274.4 L434.1,274.8 L433.2,278 L432.4,279 L430.7,278.7 L428.2,278.9 L426.2,279.4 L424.9,280.5 L425,281.6 L427.6,283.9 L429,286.7 L431.6,288.9 L432.4,290.2 L434.8,293.1 L436.6,295.6 L434.3,296.2 L433.1,298.2 L432.9,300.2 L432.9,300.2 Z" id="EE"></path>
            <path d="M367.8,259 L369.8,259.2 L369.2,262 L366.9,260.2 L367.8,259 Z M365.9,259.5 L363.8,258.9 L364.7,258.1 L365.9,259.5 L365.9,259.5 Z M359.4,256.8 L357.9,257.5 L357.6,255.8 L359.4,256.8 Z M384.9,193.9 L383.4,194.4 L382.1,194.1 L381.9,193.2 L383.9,192.6 L384.9,193.9 Z M415,139.3 L411.3,140.6 L412.9,141.4 L413.7,142.6 L411.7,145.8 L411.8,146.4 L414.9,150.4 L422.1,152.1 L424.4,153.9 L428,156.2 L429.8,157.1 L429.9,159 L426.9,162 L424.3,165.1 L423.1,166.8 L423.5,168.5 L426.1,170.6 L428.4,172.8 L431.4,176.3 L434.4,178.8 L437.4,183 L437.8,184.4 L434.1,185.1 L435.3,186 L434.7,187.3 L435,189.2 L434.5,190.7 L436.4,191 L436.7,192.3 L435,193.3 L435,194.2 L436.4,195.9 L437.4,196.5 L440.6,197.1 L441.5,198.7 L440.5,200.4 L442.3,202.6 L446.8,204.4 L447.5,205.7 L447.7,207.4 L445.3,210.4 L443.3,211.2 L444,212 L448.5,214.6 L455.1,217.5 L457.7,218.8 L459.8,220.7 L462,222.3 L462.5,223.3 L460.9,227.8 L460.2,229 L458,231.2 L454.6,234 L452.3,236.3 L447,242.2 L445.1,243.7 L443,245.9 L438.1,249.2 L437.4,250 L434.9,251.5 L429.3,256.7 L425.8,257.7 L423.2,256.6 L421.4,256.8 L420.2,257.6 L417.7,257.8 L415.7,258.4 L414.7,257.7 L414,258.3 L412.1,258.5 L410.1,257.5 L410.4,259 L407.1,260.5 L406.3,259.6 L404.3,260.6 L402.2,260.8 L401.1,261.6 L395.2,262.7 L393.7,264 L392.5,263.7 L385.8,264.8 L382.9,264.6 L380.2,266.6 L378.4,267 L379.9,264 L377.5,262.9 L376.3,261.3 L375.6,261.7 L375.3,263.2 L373.8,264 L371.8,263.9 L371.4,261.5 L372.2,259.2 L368.6,258.6 L364.8,257.2 L363.9,257.1 L363.2,255.8 L361.2,256.7 L359.1,255.8 L357.4,250.5 L357.4,249.2 L358.3,247.6 L358.2,244.2 L357.6,242.2 L358.7,241.6 L357.8,240 L355.6,237 L354,235.9 L354.5,232.6 L353.9,231 L352,229.9 L350.9,227 L351.5,224.6 L353.9,222.4 L353.9,221.2 L354.8,220.1 L354.3,218.8 L357,218.3 L358,218.7 L360.4,218.3 L362.3,217.3 L361.2,215.5 L362.7,214.8 L363.9,213.6 L363.8,212.6 L366.1,212.1 L368.5,210.2 L370.8,209.1 L373.1,207.2 L374.2,207.1 L374.5,205.8 L377,203.9 L377.8,202.3 L380.1,200.5 L382.3,196.6 L386.1,195.4 L389.9,195.7 L389.3,194 L390.3,193.7 L389.7,192.4 L388.7,191.8 L388.7,187.2 L387.4,186.3 L382.9,184.7 L381.2,184.6 L380,183.4 L375.4,182.7 L373.8,180.2 L371.9,178 L370.1,177.4 L368.8,174.8 L368.8,173.5 L370.3,172.2 L370.2,170.4 L370.9,169 L370.3,168.1 L367,165.5 L366.2,163.9 L366.3,162.8 L367.3,162 L366.7,160.7 L363.9,160.3 L364.2,158.4 L363.5,157 L363.1,154.6 L364.2,153.6 L362.4,152.7 L360.5,151.2 L359.1,151.1 L357.9,149.5 L354.4,147.7 L346.1,146 L341.9,144.2 L337.1,141.9 L334.2,140.8 L333.8,139.9 L330.9,139.1 L331.4,138.7 L333.5,138.7 L335.4,139.1 L335.9,138.5 L334.9,137.1 L336.8,136 L340.4,136 L348.3,141.5 L349.7,143.3 L356.6,143.9 L357.4,144.4 L359.2,144.3 L362.9,143.4 L364.1,142.2 L365.6,142.3 L369.2,143.4 L373.1,144.2 L375.7,145 L377,144.4 L377.5,142.7 L379.1,141.4 L381.2,141.1 L382.7,139.7 L382,136.5 L382.6,134.8 L383.3,131 L385.9,129.3 L387.6,127.5 L389.7,127.3 L393.5,127.7 L394.4,127.5 L397.9,125.9 L400.8,125.6 L402.6,126.8 L406.8,128.8 L411,129.9 L414.6,130.7 L417.2,133.4 L416.5,134.4 L413.3,137.3 L413.3,138 L415,139.3 L415,139.3 Z" id="FI"></path>
            <path d="M110.4,402.1 L108.8,403.4 L107.5,403.6 L105,402.4 L105,401.9 L107.5,400.8 L109.5,401.4 L110.4,402.1 L110.4,402.1 Z M73.9,362.4 L75.2,363.3 L71.8,365.2 L70.6,364.6 L69.7,363.4 L69.6,361.5 L70.8,361 L72.6,361 L73.9,362.4 L73.9,362.4 Z M50.6,351 L48.5,351.4 L45.6,351.4 L45.7,349.9 L44.3,349.4 L42.5,346.7 L41.2,346.2 L39.3,347.8 L39.8,348.7 L37.4,350.5 L34.5,350.2 L33.7,349.5 L31.6,349.1 L31.4,348.1 L28.7,346.1 L29.7,344.7 L32.6,343.8 L31.6,342.4 L31.8,341.6 L33.4,341.7 L35.6,340.9 L36.8,339.3 L37.8,337 L39.7,336.1 L41,336.7 L42.9,334.7 L45.7,334.6 L48.4,333.9 L52.3,334.2 L53.4,335.3 L53.9,337 L55.2,338.7 L56.9,340.1 L56.9,341 L54.9,342.1 L58.4,342.4 L59.6,344.9 L57.5,345.2 L57.4,346.6 L58.5,346.8 L57.9,348.2 L55.3,348.8 L53.9,351 L52.9,351.5 L50.6,351 L50.6,351 Z M64.3,330.8 L61.7,330.3 L61.1,328.3 L62,326.9 L63.8,327.6 L64.4,328.9 L64.3,330.8 L64.3,330.8 Z M52.8,323.7 L53.5,327.1 L51.1,328.4 L50.3,326 L48.9,327 L49.1,325.1 L50.6,324.8 L52.8,323.7 Z M54.5,325.4 L53.4,324.2 L55,322 L56.7,321 L56.6,322.6 L54.5,325.4 L54.5,325.4 Z M57,317.6 L52.4,318.4 L53,315.4 L51.1,314.5 L51.4,313.6 L53.5,313.1 L55.2,314.8 L57.3,315.4 L57,317.6 L57,317.6 Z M40.8,306.2 L39.3,306 L38.9,304.6 L39.1,302.3 L40.7,302.5 L40.8,306.2 L40.8,306.2 Z M53.6,300.5 L53.5,303.3 L56.4,304.1 L58.4,304 L58.8,304.6 L55.5,307.3 L54.8,307.2 L54.6,305 L53.2,305.3 L51.3,305 L50.1,303.1 L47.4,302.6 L46.5,301.5 L47.9,300.9 L48.2,299.7 L51,299.1 L52.5,298.4 L53.4,299.4 L53.6,300.5 Z M41.7,297.9 L42.9,298.8 L41.8,300.1 L40.3,300.1 L38.1,299.1 L38.3,298.6 L41.7,297.9 L41.7,297.9 Z M53.5,288 L51.9,290.6 L50.9,291.3 L50.7,293 L47.7,294.6 L44.5,297 L43.1,296 L45.7,294.3 L43.6,293.3 L43.4,290.7 L44.2,290 L45.6,290.7 L47.5,290.4 L46.8,289.2 L53.1,286 L53.5,288 Z M88.3,285.8 L88.3,287 L87,288.6 L84.8,289.8 L80.6,292.6 L78.1,293.9 L77.6,295.5 L79,295.6 L79.2,296.4 L77,298 L76.4,299.5 L79.4,299.1 L84.7,297.6 L88.3,298.1 L90.9,297.8 L97.8,298 L99.7,297.7 L102,299 L103,300.7 L100.2,304.1 L99.4,306.4 L97.4,309.9 L95.5,311.9 L93.5,314.4 L91.4,315.5 L88.3,316 L92.8,317.9 L91.4,319.7 L89,319.8 L86.7,321.5 L84.6,322.2 L88.2,323.3 L90.6,322.3 L93.3,322.2 L98.5,324.1 L102.1,327.5 L104.1,329 L104.6,330.1 L106.7,337 L108.2,340.8 L109.8,342.6 L114.3,344.2 L115.4,344.8 L118.8,348.1 L122.2,350.5 L120.8,352 L121.2,353.2 L123.3,356.1 L123.6,357.7 L122.3,357.6 L120,356.2 L119.7,356.9 L124.7,360.2 L126.3,362.2 L127.3,364.9 L126.7,366 L123.7,368.7 L126.5,370.1 L127.7,369.9 L129.7,367.8 L131.4,367.6 L135.6,367.9 L139.4,368.9 L142.7,371 L143.4,372.1 L143.8,375.2 L141.6,381 L138.8,382.9 L138.3,384.6 L136.2,385.5 L134.5,385.2 L132.1,386.4 L133.8,387 L133.8,388.7 L132.7,389.3 L130.2,389.5 L131.3,391.5 L133.8,391.9 L138.1,391.7 L140,391.9 L139.8,394.6 L139.4,395 L135.6,396.7 L134.6,398.5 L132.4,398.4 L131.3,399.1 L125.6,401 L120.7,400.2 L117.8,400.3 L113.8,400.9 L109.6,399.7 L107.8,399.5 L105,401.2 L100.8,401.7 L98.8,401.5 L99.7,403 L98.8,403.4 L95,402.9 L94,403.4 L92.6,403.2 L89.9,401.8 L87.3,401.7 L82.4,402.9 L81.4,404.2 L80.1,407.7 L79,408.9 L77.6,409.1 L73.1,406.6 L71.6,407.1 L69.1,407.4 L66.4,408.1 L62.5,410.5 L61.6,412 L60.3,412.2 L59.2,411.3 L57.8,411 L55.5,411.8 L55.2,410.5 L56.2,409.5 L59,408.8 L61.5,406.9 L63.7,404.6 L68.3,400.8 L69.1,397.7 L71.8,397 L73.2,394.5 L77.3,393.9 L80.1,393.9 L82.9,394.4 L85.8,394.3 L86.9,393.6 L88.8,391.2 L92.4,388.2 L87.7,389.2 L83.9,391.5 L80.7,391.1 L78.4,389.2 L76.3,388.4 L74.2,388.8 L73.5,387.9 L71.1,386.2 L68.5,386.2 L64.9,387.9 L62.3,386.7 L61.4,384.4 L61.7,383 L62.8,382.3 L65.3,381.7 L69.1,380 L71.3,379.3 L74.1,377.4 L75.3,375.1 L75,373.1 L75.5,371.7 L74.6,370 L74.9,368.5 L71.9,368.8 L69.2,370 L68.5,368.9 L71.3,367.1 L72.3,365.7 L74.9,364 L78.5,362.7 L80.4,362.8 L84.1,362.1 L86.8,363.4 L86,361.3 L87.2,360.9 L87.3,358.5 L88.9,356.3 L87.7,355.7 L87.8,353.7 L89.3,352.9 L90,350.3 L88.3,349.8 L86.2,350.4 L84.5,348.9 L81.7,345.3 L81.4,343.9 L83,340.8 L85.3,338.8 L83.4,338 L82,338.2 L79.3,339.4 L77.3,340.7 L75.2,340.7 L74.4,339.8 L73.3,339.9 L70.8,341 L67.3,339.7 L66.2,342 L63.6,339.5 L63.3,337.6 L64.6,337.6 L65.8,335.2 L68.7,331.2 L69.3,330 L68.8,328.6 L66.9,327.1 L67.2,324.5 L68,323.5 L69.5,323.1 L67.6,321.9 L64.7,322.8 L62.9,323.7 L63.2,321.7 L62.6,321.3 L61.1,322.7 L61.2,326 L59.1,331.7 L58,332.6 L56.6,332.1 L57.7,328.2 L59.1,325.7 L58.5,325.4 L58.8,321.8 L59.8,318.9 L61.5,315.1 L63.7,311.6 L59.6,314.3 L58.6,314.8 L56.2,314.4 L55.4,313.7 L54.4,311.4 L56.2,311.2 L57.9,310.1 L56.4,309.4 L57.9,308.5 L59.6,306.4 L60,304.5 L59,303 L57.4,302.4 L57.2,301.5 L58.9,299.6 L58.2,298.1 L59.8,295 L62.8,295.1 L64.7,294.7 L62.4,292.7 L63.1,289.8 L66.8,289.5 L66,287.7 L66.3,285.7 L67.9,284.8 L69.2,285 L70.2,285.9 L72.8,285 L73.4,285.8 L76.2,285.2 L79.9,284.9 L84.4,284.3 L86.6,283.9 L88.9,284.1 L88.3,285.8 L88.3,285.8 Z M87.7,281.8 L86.4,281.9 L85.1,280.5 L86.6,280.2 L87.7,281.8 L87.7,281.8 Z M89,278.4 L91.7,279 L91.1,280.4 L89.7,279.7 L87.7,280 L85.8,279 L86.2,276.9 L87.9,276.8 L89.1,277.3 L89,278.4 L89,278.4 Z M92.7,276.1 L91.7,276.4 L91.3,275.2 L89.6,274.6 L90,273.8 L92.7,276.1 Z M108.8,256.6 L110.4,258.4 L111.4,258.9 L110.1,262.7 L109.9,264.3 L108.9,266 L108.1,265.6 L109,262.7 L108.5,261.6 L106.8,261.9 L106.4,261 L108,259.6 L107.2,257.6 L106.1,257.4 L107.6,255.8 L108.8,256.6 L108.8,256.6 Z M111.7,257 L110.3,255.7 L111.6,255.1 L111.7,257 L111.7,257 Z" id="GB"></path>
            <polygon id="GE" points="694.2 546.7 691.9 547.2 692.4 547.9 688.9 548 687.8 548.2 684.6 547.9 679.3 549.2 674.9 549.5 673.6 548.3 671.7 548.1 670.6 546.4 667.1 543.9 665.9 543.5 665.3 542.4 663.9 542.1 662.5 542.5 661.6 544.4 658.2 543.6 654.6 543.5 653.5 544.5 649.2 543.2 651.1 540.2 651.5 538.5 651.1 536.1 649.4 533.4 645.7 525.4 644.6 524.2 640.6 522.8 639.5 521.2 636.3 519.1 632.2 518.2 627.4 515.3 624.5 513.6 625.4 511.5 626.2 511.3 631 512.2 632.5 511.8 638.4 514.3 642 515 645.1 516.7 651.1 517.2 653.9 516.6 655.7 516.6 657.7 517.7 660.1 517.5 663.3 518.7 664.8 520.3 668.3 521.7 671.1 522.5 674.3 524 674.5 526.4 677 526.8 681.3 524.7 683.4 524 685.2 524.2 687.1 526.1 687.9 523.9 692.5 525.6 694.6 527.4 697.4 527.3 699.6 528.3 699.4 532.5 702.3 533.9 703.9 535.1 707.3 535.8 710.4 537.3 709.2 539.4 708 539.7 708 541 709.1 541.8 710 543.3 714.5 545.9 715.4 546.7 715.2 548.7 713.4 550.1 709.3 548.1 707.6 548.6 704.4 547.7 703 546.7 703.1 546 699.1 544.6 697.2 544.2 694.2 546.7"></polygon>
            <path d="M434.2,636.7 L436.5,636.7 L438.2,635.7 L440.4,639.4 L442.1,639.3 L445.6,638.4 L449.3,638.6 L450.7,639.6 L453.3,639.8 L455.6,640.3 L458.9,639.6 L459.3,640 L459.4,642.8 L460.6,643 L461.3,642.3 L463,641.7 L464.8,641.7 L466.4,640.9 L466,644.4 L465.1,644.8 L460.7,644.7 L452.6,645.7 L447.3,646.1 L446.6,645.9 L445.9,643.7 L442.6,642.6 L436.4,641.6 L434.9,641.2 L431.8,641.4 L430.7,640.4 L430.3,638.6 L430.5,636.7 L431.9,637 L432.3,635.6 L434.2,636.7 L434.2,636.7 Z M477.6,637.8 L476,635.7 L477.1,635.2 L478.3,637.6 L477.6,637.8 Z M422.9,626.4 L421.5,626.6 L420.8,624.4 L421.3,623.4 L423.4,625.5 L422.9,626.4 Z M485.6,630.5 L483.9,630.1 L484.3,628.3 L483.6,626.7 L485.9,624 L489.1,622.7 L490,623.6 L489.1,626.1 L488.2,627.4 L488.6,628.4 L487,628.6 L485.6,630.5 L485.6,630.5 Z M466.6,620.2 L465.1,621.4 L464.2,620.8 L466.1,619.6 L466.6,620.2 Z M472.8,618 L472.8,617.3 L474.1,616.2 L476.6,615.2 L477.8,615.8 L475.3,617.2 L473.8,617.3 L472.8,618 Z M450.6,612.6 L449.7,613.9 L448.4,613.2 L448.8,612 L449.9,611.4 L450.6,612.6 L450.6,612.6 Z M454.2,614.2 L453.1,614.8 L451.7,612.6 L453.6,610.6 L454.5,611.3 L454.6,613.1 L454.2,614.2 Z M459.6,605.4 L460.2,603.8 L461.8,603.7 L461.8,604.8 L459.6,605.4 Z M437.9,604.7 L436.9,604.3 L437.3,603.1 L438.4,603.6 L437.9,604.7 Z M469.5,601 L472.3,601.7 L471.6,602.7 L470,603.6 L468.3,602.7 L467.1,601.5 L469.5,601 L469.5,601 Z M392.8,601.1 L393.2,602.3 L392.1,603.3 L390.5,602.1 L389.3,600.3 L390.2,599.2 L391.1,600.4 L392.8,601.1 L392.8,601.1 Z M445.9,601.8 L444.5,601.7 L442.1,599.6 L443,598.2 L443.9,599.4 L445.2,599.5 L445.9,601.8 Z M388.6,592.1 L388.9,593.9 L389.8,594.2 L391.1,595.8 L390.9,597 L388.8,596.2 L387.8,596.4 L386.7,594.4 L385.4,594.6 L386,592.8 L387.4,592.9 L388.6,592.1 L388.6,592.1 Z M459.4,594.6 L458.3,595.5 L456.5,593.8 L457.9,592.5 L455.8,590.1 L455.7,589.1 L457.8,588.6 L459.1,589.5 L459.7,590.7 L460.1,593.3 L459.4,594.6 L459.4,594.6 Z M389.2,588.5 L387.9,588.6 L387.5,587.7 L388.3,585.3 L389.4,585.6 L389.6,588.1 L389.2,588.5 L389.2,588.5 Z M423.8,583.1 L424.7,584.8 L430.2,587.3 L433,587.6 L434.7,590.2 L434.5,590.8 L436,594.6 L437.1,595.5 L439.8,595.8 L440.2,597.7 L439.3,598.5 L437.4,597.8 L435.3,596.2 L434.9,594.9 L432.7,592 L429.1,591.8 L427.6,591.1 L427,589.4 L425.5,588.5 L423.5,586.6 L422,585.5 L419,584.4 L418.4,583.7 L420.3,582.4 L422.4,581.9 L423.8,583.1 L423.8,583.1 Z M461.7,577.3 L461.6,578.2 L463.5,579.7 L464.2,580.7 L463,582.8 L459,582 L458.2,581.2 L459.8,579.9 L458.9,579.4 L457.7,580.9 L455.5,580.2 L454.6,579.3 L455.3,577.9 L456.8,578 L458.5,577.2 L458.5,576.6 L460.8,576.4 L461.7,577.3 L461.7,577.3 Z M380.4,575.7 L379.1,576 L377.9,575.2 L376.7,573.3 L374.5,571.1 L375.2,570 L376.8,569.6 L378.2,570.8 L377.1,572 L377.9,572.7 L378.8,575.1 L380.4,575.7 L380.4,575.7 Z M448.2,567.1 L447.5,568.5 L447.4,569.8 L443.6,569.1 L443.3,566.8 L445.5,566.7 L446.3,567.5 L447.3,566.6 L448.2,567.1 L448.2,567.1 Z M450.6,560.2 L449.2,560.6 L447.5,559.3 L448.9,558.8 L450.6,560.2 Z M438.7,557.2 L437.1,557.8 L435.3,556.7 L436.4,554.4 L437.7,554.5 L438.7,555.8 L438.7,557.2 Z M454.6,555.5 L454.1,554.8 L452,553.6 L447.4,553 L445.1,552.1 L444.2,552.3 L442.2,551.3 L441,551.7 L438.5,553.4 L437,553.2 L435.4,552.2 L433.2,552.6 L431.5,554.5 L429.7,555.5 L427.9,555.1 L425.6,555.1 L425.4,556.2 L427.4,558.3 L426.9,559.3 L427.4,560.3 L429.5,560.4 L432,561.7 L431.3,562.4 L428.1,561.2 L426.9,561.1 L425.7,562.3 L429.2,565 L429.7,566.4 L429.1,567.3 L427.6,566.5 L425.1,563.3 L422,562.7 L421.6,563.3 L422.8,565.7 L425.7,567.4 L425.1,568 L422.1,567 L421,565.4 L420.6,563.4 L415.1,560.6 L413.7,557.8 L411.5,559.1 L411.9,561.1 L411.3,564.9 L411.7,566.2 L415.2,569.9 L416.5,572.6 L419.1,574.7 L421.7,577.9 L422.4,579.7 L421.1,580.8 L419.8,580.3 L420.1,578.4 L417.9,577.2 L416,578.4 L417.5,580.7 L418,581.9 L417.6,583.2 L416,584 L413.4,584.1 L415.8,585.5 L419.1,586.5 L420.7,587.6 L422.2,587.7 L423.9,589.8 L426.5,590.4 L428.2,592.5 L430.2,593 L431.9,593.8 L432.9,595.9 L433.2,598.8 L433.8,600.9 L433.9,602.6 L432.8,603.1 L431.5,601.5 L427.3,597.9 L426.3,597.5 L425.3,598.2 L422.4,598.7 L420.5,600 L422,601.3 L422.1,602.5 L422.9,604 L424.9,604.4 L426.9,606.8 L423.9,607.8 L422.8,608.5 L422,608 L421.8,606.8 L417.5,604.6 L416.9,605.2 L417.6,607.6 L418.9,609.2 L421.1,613.5 L422.4,617.2 L422.2,619.3 L423.2,620.8 L423.3,622.3 L421.6,621.1 L419.4,618.6 L418.6,617.1 L416.4,617.2 L415.1,620.5 L415.3,622.4 L413.7,621.3 L413.5,618.4 L411.4,615.6 L410.5,615.2 L409.2,613.3 L407.7,613.9 L407.6,616.8 L407.2,617.8 L405,615.9 L402.7,612.4 L402.5,610.6 L403.9,608.9 L403.6,607.7 L402,605.2 L399.9,603.7 L398.7,603.2 L398,601.6 L396,600.3 L396,599.3 L398,597.6 L399,595 L400.9,595.5 L402.3,595.3 L404.3,592.9 L405.9,593 L409.8,595.1 L414,596.3 L416.1,597.3 L417.3,598.4 L418.9,598.7 L418.4,597.3 L419.2,596.9 L421.3,596.9 L421.5,595.3 L419.5,594.7 L418.7,594.9 L416.3,593.5 L414,592.7 L411.8,591.2 L410.6,592.5 L409.4,592.5 L406,591.6 L403.9,592.3 L399.7,593 L398.6,591.7 L396,592.7 L395,592 L393.1,587.8 L391.4,585.9 L390.2,585.4 L390,583.5 L391.5,583.3 L393.9,584.2 L394.8,583.6 L394.2,582 L391.7,581.8 L389.9,582.3 L387.1,580.1 L385.6,578.4 L383.4,577.3 L381.7,573.9 L379.1,571.3 L381.8,572.2 L382.5,571.5 L382.8,570 L383.7,569.3 L382.7,567.1 L384.4,565.8 L386.3,565.5 L386.9,565 L387.2,563 L388.4,559.9 L390.1,559.1 L390.9,556.5 L389.8,554.7 L389.8,553.6 L394.4,553.3 L395.3,552.7 L397.6,553.3 L400,552 L401.7,549.5 L402.5,549.2 L405.5,548.8 L408.8,549.4 L411.7,548.4 L411.9,546.3 L413.9,546 L416.9,546.2 L417.9,545.2 L420.3,545 L422.9,545.2 L425.9,544.1 L427.8,543.9 L428,543 L432.2,543.1 L433.8,542.6 L435,544.3 L437.4,545.7 L438.3,545.1 L442,546.3 L443.7,547.4 L447.1,546.5 L450.3,546.1 L452.1,546.4 L454.6,545.2 L454.8,544.4 L453.9,541.7 L453.2,540.7 L454.8,539.6 L456.4,540.1 L457.6,540.4 L459.9,541.9 L460.8,545 L457.4,547.5 L457.9,551.9 L455.4,555.1 L454.6,555.5 L454.6,555.5 Z" id="GR"></path>
            <path d="M332.5,520.2 L334.8,520.6 L333.7,521.5 L332.5,520.2 L332.5,520.2 Z M345.4,521.7 L347,521.6 L347.6,522.5 L353.8,526.3 L355.5,527 L356.7,528.9 L351.9,525.8 L347.5,523.3 L344.4,522.6 L340.1,520.6 L339.6,519.7 L345.4,521.7 L345.4,521.7 Z M339.1,518.2 L338.3,518.3 L332.7,518.2 L331,517.9 L330.5,516.6 L332.3,516.8 L332.8,517.4 L339.1,518.2 L339.1,518.2 Z M333.8,515.9 L331.8,516 L329.2,515.2 L329.5,514.1 L334.3,514.7 L333.8,515.9 L333.8,515.9 Z M312.6,499.4 L312.3,499.8 L309,497.1 L308.7,495.2 L311.5,497.9 L312.6,499.4 L312.6,499.4 Z M307.7,492.9 L305.8,492.7 L306.6,491.6 L307.7,492.9 Z M303.5,494.4 L302.6,494.3 L300.9,490.1 L301.3,488.9 L300.5,486.9 L301.4,486.6 L301.9,488.7 L302.9,489.6 L302.8,491.2 L303.5,494.4 Z M307.2,489.5 L305.7,489.8 L304.7,488.8 L303.4,488.6 L302.4,487.6 L303.4,486.9 L303.9,485.7 L307.2,489.5 L307.2,489.5 Z M356.7,474.8 L356,476.3 L357.6,479 L357.8,480.6 L359.1,481 L358.7,483 L359.9,484 L362.9,485 L363.8,486.5 L361.5,486.6 L359.8,487 L360.5,489.6 L359.5,491.2 L357.3,491 L356,488.8 L354.9,488 L352.7,487.8 L350.1,487.1 L348.3,487.3 L346.5,487 L344.3,488 L342.7,486.7 L341,487.3 L338.2,486.6 L335.7,486.5 L333,484.9 L331.5,486.1 L328.3,485.8 L325.6,489 L323.8,488 L322.1,486.2 L320.3,485.8 L319.1,486.4 L318.8,491.4 L318.9,492.8 L320.8,494.1 L324.2,497.3 L325.5,501.3 L327.8,503.7 L330.6,506 L332.3,508 L337.3,512.1 L339.7,513.2 L340.1,515.4 L341.6,517 L344.6,519.5 L344.3,521.1 L340.8,518.3 L338.2,516.8 L335.1,514 L331.3,512.9 L328.6,511.7 L325.3,512.3 L323.5,512.1 L322.8,509.9 L317,506 L312.7,502 L311.9,500.7 L315,499.5 L313.6,498.7 L309.7,495.3 L308.5,493.7 L308.4,489.6 L307.6,487.9 L304.7,485.7 L303.6,484.6 L301.5,483.9 L300.1,484.8 L299.8,486.7 L296.8,491.7 L295.5,491.7 L292.4,487.5 L291.9,485.6 L290.6,481.7 L291.3,481.2 L291.8,481.8 L295.1,482.6 L296.5,481.3 L297.6,481.8 L301.2,481.7 L301.8,481.4 L303,479.2 L305.6,481.3 L307.1,482 L308.4,481.5 L310.4,482.2 L312,482.4 L313.2,482 L312.4,479.7 L313.1,479 L312.1,477.9 L314.2,476.9 L316.3,476.3 L316.7,475.2 L316.5,473 L315.6,472.1 L316,470.7 L320.4,469 L321.1,468 L323.1,468 L323.1,466.3 L324,465.5 L326.5,466.1 L329.4,467.3 L331.1,468.5 L332,469.8 L334.7,471.6 L336.9,473.8 L338.2,474.5 L340.7,475.1 L342,476.4 L345.3,477.3 L350.2,477.5 L352.7,476.6 L353.8,475.2 L356.7,474.8 L356.7,474.8 Z" id="HR"></path>
            <polygon id="HU" points="392.3 436.8 393.8 436.8 395.2 439.1 397.4 439.9 398.3 441 400.6 441.4 401.5 442.1 402.2 443.8 400 446.1 395.4 447.2 393.5 449.6 392.3 450.6 392.4 452.3 391 453.7 390.3 456.2 388.9 457.7 388.9 458.9 387.3 461.6 387.5 462.9 385.4 464.4 383.9 469.1 382.6 470 380 469.7 377.5 471.7 376.1 471.2 372.9 472.1 371.9 471.6 369.1 471.3 368 471.5 365.1 471.1 364.1 471.4 362.6 473 360.4 474 358.8 473.5 356.7 474.8 353.8 475.2 352.7 476.6 350.2 477.5 345.3 477.3 342 476.4 340.7 475.1 338.2 474.5 336.9 473.8 334.7 471.6 332 469.8 331.1 468.5 329.4 467.3 326.5 466.1 324.6 463.9 323.2 460.6 320.8 460.5 322.6 458.8 325.1 458.3 325.4 456.5 324.3 454.9 324.8 454.2 324.4 452.7 326.6 451.5 327.1 450.1 326.6 449 324 448.3 325.3 446.9 327.8 447.8 331.7 447.5 331 445.5 331.6 443.6 332.2 442.9 334.3 443.2 338.5 445.9 340.1 446.6 344.8 446.7 351.8 446.3 352.4 445.3 351.9 444 352.3 443 353.7 442.3 358 441.9 360.4 441.3 361.4 439.8 362.1 439.6 365.6 441 370.6 438.5 372.2 435 374 434.6 376.7 434.7 379.2 435.3 383.8 434.6 385.2 435.5 387.4 437.7 388 437.9 392.3 436.8"></polygon>
            <polygon id="IE" points="50.6 351 51.3 352.1 49.1 352.5 50.6 357.7 51.2 358.6 51.2 362.7 52.1 365.9 52.2 368.4 50.9 370.2 50 372.3 49.8 374.1 48.2 376.2 46.7 377.1 48.3 378.6 45.5 379.4 42.9 379.1 41.6 379.9 37.7 380.1 34 380.8 32.3 382.6 29.8 383.3 28.8 384.3 26.5 385.1 24.8 383.9 23.8 384.1 24 386.2 21.1 387.5 19.3 387.8 18.3 388.5 12.5 389.9 10.6 389.4 7.3 390.2 6.1 390.1 7.7 388.3 9.3 387 5.5 387.6 4.1 388.1 3.5 387.5 6.7 385.6 3.4 385.7 0.4 385.3 5.68434189e-14 384.3 2.9 382 5.3 381.1 5.2 380.2 0.1 380.3 0.6 379.2 2.3 378.2 4.1 378.1 5.6 378.7 6.7 377.9 6.1 376.2 10 373.9 13 373.6 16.3 372.9 19.6 372.1 17.2 370.9 14.9 372.7 12.3 373 10.4 372.5 8.3 372.5 11 370.5 12.6 368.8 11.8 368.1 13.8 365.8 17.4 364.8 15.8 363.5 11.9 363.7 10.5 362.4 7.9 362.5 8.3 361.3 4.8 361.1 5.3 360.1 4.7 359 7.5 358.4 7.3 356.4 9.2 355.6 11.2 355.2 11.3 354.1 9.3 353.9 7.3 354.3 8.1 352.2 7.3 351.2 6.9 349.5 6 348.5 8.8 348.3 10 347.8 14.7 347.9 16.6 349.2 18.3 348 23.1 348.9 23.7 346.3 27.5 344.8 28.7 342.8 25 343.2 21.4 342.2 22.1 341.4 24.2 340.7 26.1 339.1 25.8 338 27.5 335.3 30.6 334.5 33 334.5 34.6 333.6 35.8 335.6 34.8 336.6 35.4 337.5 36.6 336.7 36.1 334.6 37 333.3 38.9 333 39.5 332.2 42.7 333.9 40.2 335.4 39.7 336.1 37.8 337 36.8 339.3 35.6 340.9 33.4 341.7 31.8 341.6 31.6 342.4 32.6 343.8 29.7 344.7 28.7 346.1 31.4 348.1 31.6 349.1 33.7 349.5 34.5 350.2 37.4 350.5 39.8 348.7 39.3 347.8 41.2 346.2 42.5 346.7 44.3 349.4 45.7 349.9 45.6 351.4 48.5 351.4 50.6 351"></polygon>
            <path d="M323.9,594.6 L322.7,597.1 L319.9,601.4 L318.4,606.5 L318.7,608.5 L320.3,609.9 L319.6,610.4 L321.2,612.2 L321.3,613.5 L319.5,615.4 L319.1,617.1 L319.2,618.6 L316.3,618 L314.9,618.3 L311.2,616.9 L309.3,614.1 L306.3,612.1 L303.3,612.1 L301.9,611.6 L299,609.7 L296,608.3 L293.4,606.2 L291.7,605.8 L290.2,604.8 L287.3,604.8 L285,603.2 L283.7,600.9 L285,597.2 L286.4,596.4 L287.3,595.2 L289.6,597.5 L291.4,596.7 L292.8,595.1 L295.2,595.2 L295.7,596.1 L297.1,596.4 L299.6,598 L301,598.4 L304.4,597.4 L307.4,597.8 L310.2,597.3 L311.9,596.7 L313.1,595.7 L314.5,595.4 L318,595.7 L320,594.5 L320.8,594.7 L322.8,593.5 L323.9,594.6 L323.9,594.6 Z M245.6,553.1 L246.3,554 L248.1,559 L247.5,560.6 L246.2,562.6 L247,565.4 L246.4,576.9 L245.8,579.8 L244.9,580.2 L242,579 L240.5,579.3 L239.3,578.7 L239,581.7 L237.2,583.8 L234.2,583.6 L233.5,583 L231.1,579.2 L230.7,574.9 L231.3,573.6 L231.3,571.1 L232.4,571 L232.4,569.3 L230.6,568.1 L230.6,566.2 L231.3,564.8 L231.2,562.2 L230.4,561.3 L229.6,559 L227.4,556.6 L227.5,553.2 L230.9,553.8 L232.2,553.5 L235.3,552 L237.4,549.5 L238.8,549 L240.3,547.2 L241,548.1 L243.2,548.9 L244.4,550.4 L245.3,550.9 L244.6,552.3 L245.6,553.1 L245.6,553.1 Z M253.9,522.3 L254.2,523.7 L251.7,524.2 L250.6,523.1 L253.5,522.9 L253.9,522.3 L253.9,522.3 Z M291.8,465.7 L291.6,466.6 L288.3,468.9 L289,470.3 L291.3,471 L289.7,473.1 L290,474.1 L291.3,474.3 L290.9,476.3 L292.8,477.4 L294.3,478.7 L294.5,480 L293,480.1 L293.7,479.5 L291.7,477.3 L289.7,478.2 L286.5,477.3 L284.4,479.3 L282.9,479.7 L281.2,480.8 L278,482 L276.2,481.6 L275.2,482.3 L274.8,485.4 L275.6,486 L277.1,488.6 L278.8,489.7 L278.1,491.6 L277.2,492.3 L275.9,491.8 L275.6,493.5 L276.5,498 L277.9,501.2 L279.1,502.5 L281.8,504.7 L284.5,505.8 L289.6,509.5 L292.4,510.6 L293.1,511.3 L294.9,514.1 L296.5,517.3 L298.3,522.4 L299.6,524.9 L301.9,527.8 L306.7,531.9 L311,534.8 L315,536.7 L318,537 L325,536.6 L327.6,537.3 L328,538.5 L327.6,539.4 L324.7,541.5 L324.7,543.2 L326.2,544.4 L333.3,547.6 L340.5,550.2 L342.7,551.6 L345.4,553.7 L351.8,556.6 L352.9,558 L356.9,561 L358.7,563.4 L359.2,565.2 L357.7,569.6 L356.1,569.1 L354.2,567.8 L351.1,562.4 L346.1,561.9 L343.2,560.6 L342.5,559.2 L340.2,558.8 L338.9,559.7 L337.5,561.7 L336,564.7 L334.5,569 L334.5,570.7 L335.6,572.4 L338.5,573.4 L340.9,574.9 L342.5,576.5 L342.8,580.3 L343.7,582.4 L342.8,583.7 L340.9,583.4 L338.4,584.1 L336.7,585.5 L336,586.9 L336.5,590.3 L336.2,591.7 L332.9,594.2 L331.3,596.7 L330.3,599 L326,599 L324.9,597.5 L324.8,595.3 L325.4,594 L327,593.3 L327.9,590.5 L327.4,588.5 L328.5,586.9 L331.3,586.2 L331.3,583.3 L329.9,582 L328.5,576.9 L326.1,572.6 L324.7,568.8 L323.6,567 L322.2,566 L318.5,565.7 L313.9,563.1 L313.6,562 L314.2,560.9 L313.1,558.1 L311.1,556.4 L308.5,557 L307.3,556.9 L307.2,555.4 L305.2,554.1 L302.5,553.9 L301.8,553.2 L299.2,549.2 L297.5,547.5 L295.2,547.6 L291.3,546.7 L289.3,547.4 L286.1,544.8 L283.3,543.9 L277.6,538.6 L275.8,536.6 L272.3,534.4 L270,531.2 L268.2,530 L264.2,528.6 L263.9,527.3 L260.8,524.2 L259.1,523.2 L257.8,521.1 L255.3,520.6 L255.4,517.9 L254.2,514.4 L252.5,512.2 L251.3,506.9 L250.5,505.4 L248.7,504.3 L244.7,503.1 L239,499.7 L237.9,499.6 L234.5,498.3 L232.4,498.1 L229.8,499.3 L226.7,502.5 L224.2,505.9 L223.3,506.5 L219.9,507.7 L216.9,508.2 L216.7,506.7 L218.8,504.1 L218.5,502.1 L215.2,502.7 L210.1,500.3 L209.2,499.4 L209.1,498 L208.4,496.7 L209.8,494.2 L210.6,493.5 L210.1,491.8 L206.9,490.4 L205.4,487.3 L206.2,486.9 L208.1,487.1 L209.8,485.8 L211,485.5 L211.8,483 L210,481.4 L208.3,478.8 L207.4,478.2 L207.3,476.6 L209.9,474.9 L211.3,475.6 L213.7,475.1 L216.3,474.1 L219.4,474.9 L221.8,473.5 L223.4,471.3 L222.8,469.8 L226.2,466.9 L227.2,467.5 L227.4,470 L229.8,472 L232,472.6 L231.6,473.8 L232.9,475 L233.8,476.4 L235,475.7 L234.3,474 L234.5,473 L236.7,470.4 L237.2,469.3 L237.2,466.4 L239.2,466.3 L240,468.4 L242,469.2 L244.9,468.1 L245.6,468.2 L247,470.1 L248.2,469.8 L246.7,466.3 L247.3,464.5 L248.6,464.2 L249.6,465.1 L251.5,465.3 L251,463.5 L251.5,460.4 L254.5,460.7 L255.4,461.5 L257.5,461.9 L258.6,461.5 L259.8,459.3 L261.2,458.7 L264.6,458.4 L267.7,458.6 L272.4,457.1 L272.4,459.4 L275.5,462.9 L276.6,463.4 L285.2,464.9 L289.2,465.2 L291.8,465.7 L291.8,465.7 Z" id="IT"></path>
            <polygon id="LI" points="240.7 457.5 239.5 457.4 239.4 455.7 239.9 454.2 241 456.7"></polygon>
            <polygon id="LT" points="429.2 327.5 429.2 329.3 428.5 332.4 432.4 333.4 431.1 334.4 430.7 335.5 427.1 335.4 426.1 337.4 425.3 338 422.7 338.6 421.6 341.6 422 343.9 421 345.4 420.5 347.4 422.4 347.9 423.3 349 423.3 350 421.3 350.2 419.6 347.9 418.6 348.6 416.5 349.1 415.1 350.3 413.1 350.1 412.3 352.7 410.5 352.6 407.2 353.9 405.6 353 401.9 353.3 400.3 353.6 397.4 353.2 396.6 350.2 395.5 349.3 391 347.1 388.7 346.4 388.1 347 386.8 345 386.8 342.9 387.8 339.8 386.5 338.5 385.1 337.9 384.2 336.6 378.5 336.5 376.1 335.9 372.2 334.5 370.2 333.3 368.4 333.5 367.8 332.3 368 330.7 366.9 328.3 365.3 325.4 364.6 321.6 367.4 319.9 371 318 375.7 316.6 381.6 317.1 385.9 317 386.9 317.9 388.5 317.2 393.4 317.7 395.7 317.8 399.4 318.7 404 318.3 405.7 317 408 316.8 410.4 319.7 416.5 320.7 417.4 321.1 422.8 324.2 425.4 326.3 426.9 327 429.2 327.5"></polygon>
            <polygon id="LU" points="196.7 410.7 197 412.9 198.5 414.5 201.3 415.6 201.3 417 200.4 417.9 199.8 420.9 198.5 420.2 196.5 420.8 195.1 420.8 193 419.6 194.1 417.9 192.1 415.5 192.3 413.8 193.7 411.3 195 410 196.7 410.7"></polygon>
            <polygon id="LV" points="432.9 300.2 434.8 300.5 435.3 301.6 438.5 303.3 439.2 305.5 438.4 307.1 438.1 310.2 439.9 309.9 440.9 310.5 441.2 311.7 442.9 313.8 444.2 314.6 446.1 318.8 445.8 320.5 444.5 320.7 443.1 321.5 440.6 323.9 440.2 325.6 437.1 325.5 434.1 325.1 433 325.4 431.8 326.9 429.2 327.5 426.9 327 425.4 326.3 422.8 324.2 417.4 321.1 416.5 320.7 410.4 319.7 408 316.8 405.7 317 404 318.3 399.4 318.7 395.7 317.8 393.4 317.7 388.5 317.2 386.9 317.9 385.9 317 381.6 317.1 375.7 316.6 371 318 367.4 319.9 364.6 321.6 363.8 318.8 363.2 313.3 363.3 310.5 365.2 308.9 366 307.7 366.6 303.2 369.1 299.6 371.5 299.2 374.6 298.2 378.1 297.3 379.5 299.2 384.4 302.2 385.6 303.2 387.9 306.6 392.3 308.4 395.4 307.8 399 305.4 400 304.3 400 303.2 398.8 298.5 397.7 296.5 397.8 295.2 406.2 292.4 407.7 293.4 408.8 292.7 414.4 295.2 416.7 295.7 417.3 296.4 420.8 299.1 423.6 300.2 427.6 299 431 300 432.9 300.2"></polygon>
            <polygon id="MD" points="472.7 482.2 470.7 479.9 471.6 479.2 470.2 474.2 470.1 471.6 471 466.8 470.5 463.9 469.1 461.6 467.7 458.7 464.7 456.6 463.4 454.9 461.3 453.1 458.8 449.9 457.3 448.6 454.3 443.7 451.8 440.7 449.3 439.1 447.2 439.1 447.4 438.5 449.7 437.1 450.4 437.3 454.4 437.4 455.6 436.4 456.4 436.7 458 435.7 461.5 436.7 465.1 439.1 467.6 439.4 468.2 440.6 473.8 441.2 475.2 443.1 476.6 444.1 478 443.4 479.4 444.8 480 447.1 479.4 450.2 480 451.4 482.3 452.6 485.2 454.6 485.2 457 486.1 458.9 488.1 460.2 490.2 461 491.2 462.6 491.4 465.5 494.3 467.2 493.7 467.9 490.8 468.3 489.6 467 488 467.6 485.9 466.8 484 466.6 481.9 465.6 479.4 467.2 479.9 469.3 480.9 471 480.5 473 478.2 474.7 478.2 476 475.7 478.9 476.2 480.3 475.8 481.3 473.8 481.5 472.7 482.2"></polygon>
            <polygon id="MK" points="405.1 530.8 408.4 534 411.8 535.8 413.5 539.1 414.4 540.1 413.9 541.8 413.9 546 411.9 546.3 411.7 548.4 408.8 549.4 405.5 548.8 402.5 549.2 401.7 549.5 400 552 397.6 553.3 395.3 552.7 394.4 553.3 389.8 553.6 388.5 552.5 386.9 552.7 385.6 550.3 384.4 549.2 383.2 547 383 545.1 382.3 543.1 383.1 542.3 382.8 540.2 383.3 537.6 385 537.9 385.5 537.1 385.7 534.5 389.1 533 390.1 532.9 391.7 534.1 393.2 532.2 395.3 531.8 397.5 531.5 399.5 530.6 401.4 530.9 403.7 530.1"></polygon>
            <polygon id="ME" points="363.7 511.9 364.1 513.1 366.7 514.8 368.6 516.8 371.6 518.4 373.7 518.9 379 521.8 379.1 522.8 377.5 523.2 377.3 523.9 375.3 524.3 376.2 525.8 376 527.1 372.6 528.3 371.8 526.2 370.7 525.9 367.5 531.2 366.7 531.5 364.2 531.3 365.8 533.2 367.5 534 367.8 534.6 367.8 537.7 365.7 536.5 364.8 534.7 361.7 531.8 358.2 529.8 358.3 528.8 356.7 528.9 355.5 527 356.6 526 356.7 525.2 355.6 523.6 355 520.6 355.5 519.9 357.2 519.7 357.1 518.2 357.6 516.5 359.6 514.8 361.9 514.6 360.5 512.4 363.7 511.9"></polygon>
            <path d="M179.3,259.9 L179.4,261.6 L178.4,261.5 L177.7,260.4 L177.5,258.4 L178.2,257.9 L179.3,259.9 L179.3,259.9 Z M177.5,248.8 L175.7,248.8 L176,247.5 L176.9,247.2 L177.5,248.8 L177.5,248.8 Z M210,216.9 L207.7,216.7 L206.7,215.9 L209.5,215.1 L210.2,215.6 L210,216.9 Z M213.6,212.3 L213.3,211.4 L216,210.8 L216.9,211.8 L213.6,212.3 L213.6,212.3 Z M241.6,195.7 L237.4,196 L237.1,194.9 L239.2,194.1 L240.4,194.1 L241.6,195.7 L241.6,195.7 Z M248.4,185.2 L246.4,185.5 L246.5,184.4 L248.3,184.1 L248.4,185.2 Z M252.5,179.5 L252.4,178.4 L253.4,177.2 L254.4,177.6 L254.1,179.1 L252.5,179.5 L252.5,179.5 Z M255.6,154.6 L254.1,155.3 L255.2,152.7 L256.3,152 L256.7,153.5 L255.6,154.6 Z M264.1,149.4 L266.4,149.6 L265.9,150.4 L264.5,150.7 L263.4,151.5 L261.5,151.7 L259.6,152.7 L258,153 L257.6,151.8 L258.5,150.8 L259.8,150.8 L260.8,149.6 L264.1,149.4 L264.1,149.4 Z M276.5,140.4 L278.7,142.5 L278.4,144 L277.2,144.7 L273.9,144.8 L272.3,143.9 L270.1,144.5 L268.5,143.4 L270.1,142 L272.7,142.4 L273.2,140.7 L274.9,141 L275.3,139.5 L276.5,140.4 L276.5,140.4 Z M282.8,145.4 L284.1,144.3 L285.6,143.9 L286.2,141.7 L288,141.2 L289.6,142.2 L290.5,143.4 L290.3,144.5 L287.2,145.7 L284.7,147.7 L283.1,147.5 L282.4,148.2 L280,148.8 L278.3,147.9 L277.4,148.8 L276,149.2 L274.8,148.8 L271.9,150.3 L269.1,150.6 L268.1,149.5 L271.2,147.6 L276.3,147 L279.2,144.7 L279.6,142.2 L280.2,141.3 L278.9,140.7 L279.1,139 L281.5,137.3 L282.8,135.9 L284.3,135.6 L285.2,136.7 L284.1,138.1 L282.5,139.3 L283.6,140.8 L284.2,143.2 L282.8,145.4 L282.8,145.4 Z M298.3,131.7 L299.7,132.5 L301.2,132.2 L303.5,132.9 L304.5,134.4 L303.3,135.3 L303.7,137 L299.9,137.5 L299,137 L297.5,137.9 L296.1,139.3 L293.9,138.7 L294.1,137.1 L293.8,134.8 L294.5,134.3 L297.4,134.6 L297,132.6 L298.3,131.7 Z M422.3,129.1 L420.5,129.5 L420.7,127.7 L422.3,129.1 L422.3,129.1 Z M329.9,125.3 L328.6,125.7 L326.8,125.4 L326.1,124.4 L328.3,123.4 L330,123.7 L329.9,125.3 L329.9,125.3 Z M314.8,125.6 L315.8,126.3 L317.3,125.8 L318.4,126.8 L317,127.6 L316.2,128.8 L314.2,128.9 L311.3,131.2 L311.2,132 L306.2,132.5 L304.7,132.2 L306.4,129.5 L308.1,129.5 L309.8,128.7 L309.5,127.9 L312,125.9 L312.6,124.2 L314,123.2 L314.8,125.6 L314.8,125.6 Z M319.6,123.6 L321,123.8 L322.3,125.4 L320,125.4 L318,123.6 L319.6,123.6 Z M356.9,119.3 L357.4,120.4 L354.1,122.5 L352.5,122.6 L350.4,121.4 L350.5,120.6 L352.4,119.7 L353.3,119.8 L356,118.4 L356.9,119.3 L356.9,119.3 Z M360.8,119 L359,119.5 L357.3,118.6 L357.1,117 L357.9,116.7 L361.1,117.9 L360.8,119 Z M354.4,115.8 L354,116.6 L351.3,118.7 L349.1,119.4 L347.3,119.1 L346.5,119.7 L344.5,119.7 L342.5,119.1 L340.5,117.9 L344,117.8 L344.6,117.3 L346.1,117.3 L348.9,116.9 L350,117.2 L352.1,115.8 L354.4,115.8 L354.4,115.8 Z M415,139.3 L413.3,138 L413.3,137.3 L416.5,134.4 L417.2,133.4 L414.6,130.7 L411,129.9 L406.8,128.8 L402.6,126.8 L400.8,125.6 L397.9,125.9 L394.4,127.5 L393.5,127.7 L389.7,127.3 L387.6,127.5 L385.9,129.3 L383.3,131 L382.6,134.8 L382,136.5 L382.7,139.7 L381.2,141.1 L379.1,141.4 L377.5,142.7 L377,144.4 L375.7,145 L373.1,144.2 L369.2,143.4 L365.6,142.3 L364.1,142.2 L362.9,143.4 L359.2,144.3 L357.4,144.4 L356.6,143.9 L349.7,143.3 L348.3,141.5 L340.4,136 L336.8,136 L334.9,137.1 L335.9,138.5 L335.4,139.1 L333.5,138.7 L331.4,138.7 L330.9,139.1 L325.8,139.3 L328.4,140.9 L328.5,142.9 L327.1,144.8 L325.5,145.7 L328.4,146.6 L325.9,148.2 L324.9,148.1 L316.3,146.4 L313.4,146.3 L309.3,145.4 L307.2,145.9 L307.2,146.7 L308,150.3 L305.9,153.4 L299.6,151.6 L298.1,152.5 L294.4,154.4 L292.9,157.9 L291.8,159 L289.1,159.6 L288.6,160.7 L291.3,163 L292.3,164.3 L292.1,165.7 L290.6,166.7 L287.3,169.6 L284.3,172.5 L283,173.4 L284,175.9 L280.7,177.4 L278.3,177.9 L274.5,178.3 L275.9,182.2 L275.3,184.9 L275.2,189.6 L271.9,194.6 L267.5,199.6 L272.2,201.2 L273.3,204.1 L273.4,205.3 L271.7,207.5 L264.6,206.6 L261.3,207 L258,208.5 L254.5,212.3 L253.3,213.3 L253.8,214.8 L251.8,217.6 L254.5,221.7 L253.4,222.8 L254,225.6 L253.9,227.4 L256.4,231.8 L256.4,233.4 L255.5,239.8 L259.3,241.9 L260.5,242.3 L263.9,245 L263.5,246.9 L262.2,249.4 L259.8,249.4 L258,250 L258.3,251.6 L261.4,256.5 L261.9,257.9 L261.3,260 L261.2,262.8 L259.3,264.8 L258,265.6 L255.4,266.3 L254.5,268.7 L253,270.2 L254.6,274.6 L254,278.5 L253.3,279.9 L251.4,280.1 L250.4,278.3 L250,277.3 L244,276.1 L241.7,273.2 L241.3,270.1 L238.8,271.3 L239.4,272.4 L239.4,274.7 L236.9,278.6 L235.8,278.4 L234.5,279.2 L233.2,279.4 L232.6,278.4 L231.5,278.6 L230.7,279.6 L227.3,280.9 L228.3,281.6 L226.6,282.6 L226,283.5 L223.3,285 L219,288.9 L216.7,290 L215.1,291.2 L213.7,291.2 L211.9,292.1 L207.3,293 L204.2,292.6 L202.1,293 L201,292.3 L201,291.2 L199.8,291.1 L199,292.3 L197.4,291.9 L198.1,289.5 L195,289.4 L191.2,287.8 L190.3,287 L187.2,285.7 L185.8,284.3 L185,282.7 L185.3,279.1 L185.9,278.6 L188.6,279.4 L191.4,280.7 L191.3,279.5 L188.9,277.9 L189.7,276.1 L189.5,274.5 L192.1,272.4 L191.7,271.7 L188.3,273.7 L185.2,274.6 L184.1,275.8 L183,276.4 L180.9,276.4 L180.4,275.5 L180.9,272.2 L182.1,269.5 L183.9,268.5 L187.3,269.2 L188.3,268.2 L189.6,268 L192,266.8 L187.9,267.3 L186.7,266.3 L189.5,263.9 L190.7,262.5 L191,261 L193.2,259.3 L195,258.5 L196.6,259.1 L198.1,257.2 L193.1,258.3 L191.1,259.4 L188.4,262.2 L188.2,263.3 L186.2,264.2 L184.7,265.7 L184.1,266.9 L181.3,268.8 L179.9,269.1 L179.9,266.7 L181,264.7 L180.7,263.1 L183.9,263.3 L185.7,262.1 L183,262.1 L181.6,261.4 L180.4,259.9 L179.8,258 L180.9,256.2 L178.7,254.2 L178.2,252 L178.1,249.5 L179,249 L181.1,249.4 L183.5,249.2 L188.7,248.3 L192.1,248.9 L193.5,248.8 L195.5,248.1 L197.4,248 L199.6,249.2 L200.3,248.7 L205.7,247.5 L202.7,246 L202.8,247.4 L199.2,247.7 L196,247.1 L194.7,246.5 L194.2,247.8 L193.1,248.1 L189.7,247.6 L185,247.9 L182.9,248.6 L181.5,248.5 L179,247.3 L178.1,246.4 L177.8,243.8 L180.6,243.5 L178.7,241.2 L176.8,239.9 L176.6,238.5 L177.3,237.2 L178.8,237.4 L182.6,237.3 L188.6,238.8 L193.5,238.5 L192.7,237.9 L189.8,237.9 L182.6,236.6 L180.4,236.7 L179.2,236.4 L178.5,235.4 L178.9,233.5 L180,233.1 L181.2,233.7 L183.1,231.4 L185,230.4 L187,229.9 L189,230.9 L190.3,230.8 L194.3,230 L193,229.5 L189.5,230 L189.3,229.5 L191.7,227.2 L195.9,226.8 L201.8,227.3 L204.1,228.1 L204.5,226.3 L209.8,224.9 L203,225.7 L201.2,225.2 L196.3,225.9 L196.2,224.6 L198.5,222.3 L202.6,221.4 L204.5,220.3 L207.6,220.1 L210.2,220.4 L211.4,221.7 L215.8,223.4 L210.7,219.4 L211.8,217.7 L215.1,217.3 L215.1,215.7 L212.9,215.4 L212.9,214.2 L214.8,213.3 L217.6,212.6 L220.8,213.4 L220.2,214.7 L221.1,215.2 L222.8,213.7 L226.7,212.9 L229.5,215 L230,216.1 L231.1,215.6 L233.8,215.1 L236.5,215.4 L238.3,215.2 L237.3,213.9 L237.7,212.9 L240.1,211.9 L241.8,211.6 L244.4,210.4 L243.6,209.4 L242.2,209.1 L245.1,207.6 L243.4,207 L241,207.9 L239.4,208.8 L240.9,209.8 L239.8,210.9 L233.7,213.7 L230.7,214.5 L229.3,214.4 L227.4,211.9 L225.3,211.8 L226.6,209.6 L228.2,208.8 L229.6,206.5 L231.9,205.2 L235.1,201.9 L237.9,200.8 L238.8,199.7 L241.8,198.2 L244.8,197.3 L245.1,196.3 L242.4,197.2 L242.8,195.1 L244.2,194.1 L251,191.3 L252.6,192.6 L254.7,192.4 L257,190.8 L256.7,190.1 L254.6,191.1 L253.1,191.1 L252.7,190.5 L250.6,190 L250.3,188.8 L251.6,186 L255,182.7 L255.5,181.4 L256.8,180.7 L258.5,180.9 L258.3,179.8 L256.2,178.7 L262.4,177.6 L265.4,177.6 L267.8,176.7 L268.3,175.7 L261.9,176.8 L259.5,176.9 L258.7,174.2 L258.9,172.7 L260.8,170.5 L262.2,170.3 L263.9,169.2 L264,167.7 L266.3,166.9 L268.4,164.8 L270.7,164.3 L272.1,164.5 L275.1,163.8 L281.7,163.7 L281.8,163.1 L275.5,162.8 L272,163 L271.6,162.4 L274.4,159.7 L276.4,158.7 L278.1,158.9 L279.9,159.9 L280.5,159.1 L278.9,157.6 L279.6,156.1 L277,157.2 L275.2,157.5 L274.3,155.5 L276.6,153.5 L278.9,153.5 L279.2,152 L282.5,150.7 L284.4,150.5 L285.9,149.9 L286.5,150.3 L287.4,152.6 L288.9,152.9 L289.9,152.1 L288.6,151 L287.5,149.2 L289.5,147.7 L291.8,147.5 L294.4,148.2 L296.7,148 L297.6,146.8 L291.3,146.7 L290.5,145.8 L291.7,144.6 L293.9,143.8 L296.4,143.7 L298.8,142.3 L299.7,141.2 L300,139.6 L301.4,138.3 L305.3,137.5 L304.7,135.3 L305.5,133.9 L306.5,133.3 L308.6,134.8 L310.4,135.3 L309.9,133.9 L310.2,132.7 L312.3,132.7 L313.3,132.2 L313.6,130.9 L315,129.7 L319.7,129 L320.2,131.5 L320.9,132.9 L321.7,130.1 L323.3,128 L325.7,127.1 L326.6,128.2 L326.2,132.5 L324.3,134.9 L325.8,134.7 L328.3,132.4 L328.9,131.2 L328.2,128.4 L328.8,127.6 L332.3,127.5 L334.2,127.9 L334.9,126.4 L336.6,126.3 L338.4,127.2 L342.5,128.6 L341.2,126.4 L340.2,125.6 L338.1,125.1 L335.9,124.1 L337.1,123.1 L339.5,123.4 L341.5,122.6 L343.7,122.4 L344.8,123 L345.6,122 L348.1,121.5 L350.9,122.4 L352.5,125.1 L354.9,126.5 L354.8,125.1 L355.4,123.2 L357.7,121.2 L359.8,120.2 L361.2,120.1 L364.1,116.7 L362.5,115.7 L365.8,113.4 L366.9,113.3 L372.3,115.4 L373.8,114.5 L377.2,115.3 L376.4,116.3 L373.3,119.2 L372.8,120 L372.7,122.2 L371.5,123.6 L372.3,125 L373.9,124.6 L375.7,123.3 L375.8,122 L380.1,118.3 L382,116.2 L384.3,114.5 L385.8,114.2 L386.7,115.3 L386.5,116.8 L386.7,121.1 L390.4,119.7 L391.5,116.7 L392.6,116 L391.8,114.6 L392.2,113.5 L394.5,112.2 L396.7,112.6 L400,112.9 L402.7,113.7 L402.9,115.1 L402.1,116 L399.2,117.1 L399.9,117.8 L401.9,117.2 L402.8,122.7 L403.7,120.6 L404.7,119.9 L404.8,118.4 L405.6,116.5 L407.4,115.2 L410.1,115.2 L413.4,116.9 L415.9,117.2 L417.7,118 L420.1,117.3 L422.1,118.3 L422.2,119.3 L426,119.6 L429.8,121.2 L430.4,122.8 L426,123.8 L424.2,124.8 L420.9,125.2 L409.4,124.5 L409.8,125.2 L418.1,126.7 L418.7,127.2 L419.1,129.3 L420.9,130 L424.4,129.8 L424.4,128.5 L427.6,129.1 L431.4,129.3 L432.5,131 L432.2,132.5 L429.8,132.6 L425.6,131.2 L425.2,133.5 L424.1,134.4 L418.3,135.7 L417.2,138.3 L415,139.3 L415,139.3 Z M374.5,111.6 L378.2,112.1 L380.4,113.5 L376.8,114 L375.1,113.9 L373.1,112.1 L374.5,111.6 L374.5,111.6 Z M34.9,115.5 L34.8,114.5 L39.3,113 L41.2,111.6 L44.6,111.1 L44.4,112.9 L41.4,113.7 L38.1,114.2 L34.9,115.5 L34.9,115.5 Z M304.1,70.5 L303.1,71 L301.2,70.2 L300.4,69 L303.4,68.9 L304.1,70.5 L304.1,70.5 Z M313.7,20.4 L317.6,20.6 L319.6,22.5 L321,24.5 L322.3,24.7 L327,24.3 L330.4,25 L329,26.1 L329,27.3 L334.5,28.6 L336.3,28.7 L339.3,28.3 L345.8,30 L339.2,31.1 L337.2,33 L333.5,34.3 L330.9,34.3 L328.6,35.6 L326.4,35.7 L324.9,33.8 L327.1,32.5 L324,32.1 L322.8,32.6 L312.3,33.6 L311.2,33.4 L310.3,32.2 L313.1,31.6 L313.3,30.5 L315.8,28.1 L310.3,26.5 L308.3,25.3 L307.5,24.3 L305,23.4 L305,22.4 L303.3,22.5 L302.9,21.3 L313.7,20.4 L313.7,20.4 Z M359.9,19.8 L358.6,19.8 L356,19 L356.7,18 L359.9,19.8 L359.9,19.8 Z M222.3,20.2 L225.8,21.7 L227.7,22.2 L230,23.7 L229.3,24.6 L227.3,23.4 L223.7,22.1 L221.4,21.9 L218.1,19.4 L216.6,18.6 L215.8,16.9 L219.4,17.6 L221,18.6 L220.7,19.4 L222.3,20.2 Z M377.9,16.8 L380.6,16.9 L380.5,17.5 L373.2,17.1 L369.4,17.8 L369.8,16.9 L372.2,16.3 L375.9,16.2 L377.9,16.8 L377.9,16.8 Z M268,6 L269.4,5.4 L274.8,6.2 L277.3,7.1 L278.6,8.1 L276.7,10 L278.4,11 L281.6,9.3 L284.3,9.6 L286,10.5 L287,11.6 L286.8,13 L289.9,14.1 L293.3,13.9 L295.7,14.2 L297.2,15.2 L299.1,15 L299.3,14.2 L301.9,14.4 L304.9,15.2 L302.8,16.1 L304.9,16.9 L308.3,17.5 L310.4,18.1 L308.9,19.5 L305.7,19.5 L302.8,19.8 L297.4,20.1 L294.4,21.7 L291.9,23.5 L291.5,25.1 L292.1,26.2 L290.6,26.7 L287.3,26.9 L287.5,30.8 L286.7,32.7 L283.4,33 L281.6,34.1 L280.4,36.2 L278.3,38.2 L279.3,39.2 L277.2,41.1 L278.4,42.9 L277.4,43.5 L275.3,43.8 L273.1,43.5 L270.8,42.4 L264.1,40.2 L259.8,37.8 L253.8,36.5 L250.5,34.9 L249,33.6 L249.3,32.2 L252.1,32 L255,32.7 L256.7,30.8 L268,29.7 L275.3,29.5 L273.4,28.2 L266.5,28.9 L262.2,28.7 L260.1,28.8 L258,29.4 L253.7,29.9 L249.1,29.8 L246.2,28.8 L244.9,26.8 L246.1,26.2 L249.9,26.3 L256.3,25.4 L259.3,24.6 L262.4,24.5 L261.9,23.7 L263.7,23.3 L266.1,23.1 L271.7,23.2 L271.9,22.6 L269.3,22 L268.4,21.4 L271,19.6 L268.8,19.7 L265.8,21 L264,21.5 L259.4,21.8 L257.7,20.2 L258.6,19 L257.8,18.3 L256.5,19.6 L254.4,19.9 L252.4,19 L250.5,19.5 L251.2,20.5 L250.6,21.5 L252.6,22.4 L250.3,23 L248.2,24.1 L244.3,24.3 L239.8,24.4 L235.2,22.8 L233,21.6 L231.2,20.4 L228.5,19.8 L226.8,19 L226.4,17.9 L225,17.2 L224.3,16 L228.7,16 L227,14.2 L227.5,12.6 L224.1,12.7 L224.5,13.6 L222.3,14.6 L221.1,14.4 L218.8,12.5 L216.4,10.1 L216.8,8.8 L215.6,7.8 L217.1,7.1 L219.6,8 L220.4,7.3 L224.2,6.9 L228.8,8 L229.2,6.9 L233.4,7.4 L236.4,6.8 L241.4,6.5 L243.4,6.9 L242.4,8 L236.1,8.3 L232.1,9.6 L237.8,9.4 L238.8,9.5 L239.4,10.6 L242.4,11.1 L244.7,12.1 L245.5,11.6 L244.9,9.4 L249.3,7.1 L251.4,7.5 L253.5,8.4 L257.5,11.4 L259.8,13.3 L265.9,16.1 L265.2,14.6 L261,10.1 L260.1,8.4 L261,6.7 L262.1,6.2 L261.7,4.9 L263,4.4 L265.4,4.7 L268,6 L268,6 Z M402.7,3.7 L394.7,4.1 L393.8,3.8 L409.5,2.4 L411.2,2.9 L402.7,3.7 L402.7,3.7 Z M283.8,1.8 L282,2.4 L278.8,1.9 L279.7,1.2 L283.8,1.8 Z M302.4,2.3 L308,2.4 L309.5,3.3 L315,4.4 L315.8,2.9 L315.2,0.7 L317.1,0.6 L318.8,0 L321.9,0.3 L322.1,1.6 L321.6,3 L323.7,3.1 L326.5,2.8 L328.4,1.7 L330.8,1.8 L332.1,1.2 L333.5,1.8 L341.7,2.5 L345,3.1 L350.2,3.1 L353.9,3.3 L356.7,4.3 L357.8,6 L356.9,6.4 L350.2,8.4 L348.6,9.1 L346.2,11.4 L342.1,12.1 L338.6,11.8 L335.6,12.5 L333.7,13.5 L332.2,13.7 L323,13.3 L320.8,12.2 L322,11.3 L313.8,11.6 L304.6,11.5 L303.6,11 L298,10.5 L293.8,9.4 L294.9,8.9 L300.7,8.9 L300,7.4 L297.1,7.3 L295.3,7.7 L291,7.9 L287,7.8 L285.1,7.5 L281.3,6.5 L280.6,5.7 L283.4,5.3 L285.5,4.6 L281,4.3 L279.1,4 L278.5,3.1 L284.4,2.9 L289.4,3.7 L288.7,1.5 L292.6,2.6 L292.8,1.5 L290.8,0.1 L292.8,0 L297.3,0.7 L302.4,2.3 L302.4,2.3 Z" id="NO"></path>
            <polygon id="PL" points="388.1 347 388.7 346.4 391 347.1 395.5 349.3 396.6 350.2 397.4 353.2 399.5 358.3 402.4 363.2 404.1 366.8 405 370.7 404.4 372.3 400.4 374 399.6 374.5 397.6 377.2 397.6 378.4 400.9 379.7 402.7 380.7 403.5 381.7 403.3 384.1 403.7 385.2 402.9 386.7 403 388 404 389.6 405.2 391.4 405.2 392.7 407.9 395.5 409.8 398.3 411.2 399.3 410 400.6 411.8 403.2 411.9 404.5 410.7 406.3 407.7 406.8 402.9 411.4 400.5 414.1 397.1 418.5 396.5 419.5 398 423.3 397.9 425.1 399.8 426.5 399.4 427.4 396.1 426.7 395.2 426.5 389.5 424.6 388.7 423.2 387.7 422.5 384.6 421.5 381 421.2 377.8 421.4 376.4 422.9 374.6 422.8 372.2 421.8 369.2 421.9 366.9 422.9 365.8 425 364.1 424.4 362.7 424.8 362.1 422.1 360.7 421.7 357.7 418.7 355.5 420 354.5 421.7 352.3 421.7 351.8 420.2 350.5 420 350 418.4 347.2 416.2 346.7 414.4 344 413.6 343.5 413.8 340 412 338.2 413 337.2 412.4 334.5 410.1 335.9 409.6 335.9 408 332.3 408.7 329 406.8 326.8 406.2 325.5 406.2 327.2 408.6 323.7 411.1 322.7 410.7 321.2 408.8 319.2 407 317.6 406.1 319.2 404.9 319.9 403.8 318.1 402.6 314.9 403.3 314.1 402.4 311.4 401.3 306.8 400.2 305.8 399.1 305.5 398 302.2 397.2 302.3 399.1 300.2 399.5 301.8 395.9 302.2 393.6 300.6 390.4 298.4 389.5 298.4 387.9 296.5 384.8 297.3 383.7 298 381.1 297.2 379.2 295.2 376.9 295.8 374.3 294.4 372.6 291.1 370.5 289.5 369.1 290.2 367.5 292.1 365.7 292.4 363 290.6 358.9 289.9 356.3 292.7 357.2 293.4 356.7 293.3 354.9 289.2 354.2 289.1 353 291.1 353.4 294.9 352 301.4 350.2 308.3 348.5 311.6 348 313.6 345.8 315.5 344.1 319.3 343.4 320.6 342.6 323.4 341.4 330 340.2 335.5 339.8 340.9 342.1 340 342.4 337 341.2 339.2 344.7 340.3 345.9 342.3 346.8 344 347.1 348.9 346.6 351.1 345.5 351.6 345.6 358.2 346 381.1 346.9 388.1 347"></polygon>
            <polygon id="PT" points="27.3 610.9 26.1 611.1 21.6 613.6 20.3 613.6 17.8 612.5 13.3 612.1 11.8 611.8 10 612.5 8.5 612.5 7.4 613.5 6.6 613.2 7.6 611.1 9.2 607 9.2 604.4 9.6 602.2 9.3 600.1 8.6 598.7 9.7 595.2 9.7 593.4 8.8 591.1 11.6 591.4 9.9 590 8.4 590 6.1 590.9 4.6 591 4.7 589.6 4.2 587.8 6.2 587.2 7.8 585.5 7.5 583.9 6.3 585 5.7 586.4 2.9 587.1 1.4 586.6 1.4 584.7 2 583 2.4 580.7 3.2 578.5 3 577.1 4.6 575.8 6 573.9 10.3 565 9.7 564 11.4 557.4 12.6 555.1 13.2 550.8 13 548.8 12.3 546.8 11.6 542.5 11.6 541.1 10.7 539.3 10.8 538.3 12.2 536.6 13.4 535.5 15.3 534.6 19.4 533.6 20.4 535.4 19.1 537.3 20 538.6 23 537.5 25.9 537.4 28.1 538.2 29.5 538.2 32 537.3 32.8 535.9 34.3 536.4 39.5 536.5 40.2 537.6 40.3 540.7 42.2 540.9 44.1 541.8 44.4 542.9 41.9 545.4 39.8 546.5 38.2 547.9 37.1 549.5 35.1 551.1 35.9 553.1 36.3 556.6 35.9 560.4 36.3 561.5 33.6 563.6 33.4 564.6 34.8 565.9 34.8 567.8 33.1 571.3 32.1 571.8 27.8 571.8 26.7 572.1 27.8 574 29.2 575.2 29.5 577.1 31.1 580.3 32.8 580.7 33.3 581.5 32.7 583.9 29.5 586.9 28.6 590.9 31.6 595.2 33.3 595 32.6 597.4 30.5 598 27 602.3 26.2 604.5 27.3 610.9"></polygon>
            <polygon id="RO" points="472.7 482.2 474.2 483.8 476 484.7 480 485.6 480.6 484.4 481.5 484.7 483.1 484.2 485.3 482.9 487.5 482.7 489.7 483.4 491.6 485.2 491.4 489.5 490.7 491.6 484.5 492.9 484.9 492.3 484.2 490.3 483.2 489.3 482.3 490.4 482.9 492.1 482.2 493.5 482 495.9 482.6 496.8 481 498.8 480.5 500.1 481.3 504.9 480.9 508.6 478.9 508.6 476.3 508.1 474.1 507.4 471.6 504.8 469.9 505.3 469 504.7 465.8 504.3 461.3 502 458.4 502.4 454 503.3 450.8 504.5 447.5 506.6 446.3 508.2 444.7 509.1 442.4 509.7 438.2 509.5 428.8 507.8 426.3 508.3 422.8 507.9 417.5 506.9 413.6 506.6 409.9 507.2 409 505.4 410.8 503.4 406.5 500.9 405.7 499.7 404.1 498.8 403.6 497.1 406.1 495.3 403.1 493.7 401.4 494.2 399.7 496 398.4 496.2 397.4 495 395.9 494.3 392.4 493.6 390.9 492.4 388.8 491.8 389 491.2 390.8 490.4 388.5 489.3 390 487.3 389.1 486.2 386.5 485.4 382.7 483.5 380.5 481.7 380.1 477.6 379.3 477.8 377.5 475.8 374.6 474.1 372.9 472.1 376.1 471.2 377.5 471.7 380 469.7 382.6 470 383.9 469.1 385.4 464.4 387.5 462.9 387.3 461.6 388.9 458.9 388.9 457.7 390.3 456.2 391 453.7 392.4 452.3 392.3 450.6 393.5 449.6 395.4 447.2 400 446.1 402.2 443.8 404.3 442.9 405.2 441.7 405.9 441.7 408.6 443.2 411.3 443.1 418.2 444.5 421.8 443.8 423 444.1 427.3 447.4 429.4 446.9 430.4 445.7 433.8 444.4 442.2 443.2 443.3 441.3 443.5 439.9 447.2 439.1 449.3 439.1 451.8 440.7 454.3 443.7 457.3 448.6 458.8 449.9 461.3 453.1 463.4 454.9 464.7 456.6 467.7 458.7 469.1 461.6 470.5 463.9 471 466.8 470.1 471.6 470.2 474.2 471.6 479.2 470.7 479.9 472.7 482.2"></polygon>
            <polygon id="RS" points="372.9 472.1 374.6 474.1 377.5 475.8 379.3 477.8 380.1 477.6 380.5 481.7 382.7 483.5 386.5 485.4 389.1 486.2 390 487.3 388.5 489.3 390.8 490.4 389 491.2 388.8 491.8 390.9 492.4 392.4 493.6 395.9 494.3 397.4 495 398.4 496.2 399.7 496 401.4 494.2 403.1 493.7 406.1 495.3 403.6 497.1 404.1 498.8 405.7 499.7 406.5 500.9 405.6 501.6 405.4 503.5 403.3 504.5 402.9 506.8 403.5 509.2 405.9 513.1 408.8 514.6 410.1 516.2 411.7 517.2 411.4 518.6 409.8 520.3 408.7 521.9 406.9 522 405.8 522.6 405.8 525.9 407.2 528.8 406.1 530.5 405.1 530.8 403.7 530.1 401.4 530.9 399.5 530.6 397.5 531.5 395.3 531.8 394.7 530.5 395.7 529.6 396.9 526.4 397.1 525.2 392.4 524 392.4 522.7 390.2 521.5 390 520.8 387.7 518.7 384.9 517.4 383.8 516.1 382.1 517 382.7 518.6 382.3 519.6 380.6 520.9 380.6 522.3 379.1 522.8 379 521.8 373.7 518.9 371.6 518.4 368.6 516.8 366.7 514.8 364.1 513.1 363.7 511.9 364.4 511.1 366.9 511.4 367.1 509.2 363.9 505.5 364.4 504.7 367.5 504.8 367.8 504 364.5 501.1 362.1 499.9 361.6 499.1 361.7 496.5 363.3 493.8 363.8 491.3 362.3 490.5 359.5 491.2 360.5 489.6 359.8 487 361.5 486.6 363.8 486.5 362.9 485 359.9 484 358.7 483 359.1 481 357.8 480.6 357.6 479 356 476.3 356.7 474.8 358.8 473.5 360.4 474 362.6 473 364.1 471.4 365.1 471.1 368 471.5 369.1 471.3 371.9 471.6 372.9 472.1"></polygon>
            <polygon id="SK" points="396.1 426.7 394.6 429.7 393.8 432.6 392.2 434.3 392.3 436.8 388 437.9 387.4 437.7 385.2 435.5 383.8 434.6 379.2 435.3 376.7 434.7 374 434.6 372.2 435 370.6 438.5 365.6 441 362.1 439.6 361.4 439.8 360.4 441.3 358 441.9 353.7 442.3 352.3 443 351.9 444 352.4 445.3 351.8 446.3 344.8 446.7 340.1 446.6 338.5 445.9 334.3 443.2 332.2 442.9 329.9 440 328.3 437.1 328.2 436.3 329.1 433.9 330.2 431.1 331.6 429.9 335.2 430.4 336.9 430.2 338.4 429.5 340.5 427.6 342.1 426.8 342.8 423.8 345.1 422.6 345.7 421.8 347.7 420.3 350.5 420 351.8 420.2 352.3 421.7 354.5 421.7 355.5 420 357.7 418.7 360.7 421.7 362.1 422.1 362.7 424.8 364.1 424.4 365.8 425 366.9 422.9 369.2 421.9 372.2 421.8 374.6 422.8 376.4 422.9 377.8 421.4 381 421.2 384.6 421.5 387.7 422.5 388.7 423.2 389.5 424.6 395.2 426.5 396.1 426.7"></polygon>
            <polygon id="SI" points="326.5 466.1 324 465.5 323.1 466.3 323.1 468 321.1 468 320.4 469 316 470.7 315.6 472.1 316.5 473 316.7 475.2 316.3 476.3 314.2 476.9 312.1 477.9 313.1 479 312.4 479.7 313.2 482 312 482.4 310.4 482.2 308.4 481.5 307.1 482 305.6 481.3 303 479.2 301.8 481.4 301.2 481.7 297.6 481.8 296.5 481.3 295.1 482.6 291.8 481.8 291.3 481.2 293 480.1 294.5 480 294.3 478.7 292.8 477.4 290.9 476.3 291.3 474.3 290 474.1 289.7 473.1 291.3 471 289 470.3 288.3 468.9 291.6 466.6 291.8 465.7 296.8 466.6 301.8 467.3 304.8 466.1 305.8 464.8 307.7 464.1 310.3 463.9 313.1 464.1 315.4 463 317 462.8 319.4 463.3 319.5 461.4 320.8 460.5 323.2 460.6 324.6 463.9 326.5 466.1"></polygon>
            <path d="M312.4,318.4 L310.9,318.1 L310.6,314.3 L312.6,309.7 L313.6,309.4 L316.3,302.9 L316.8,304.9 L315.3,308.1 L315,310.3 L314.4,310.8 L312.4,318.4 L312.4,318.4 Z M338.6,295.7 L337.3,297.1 L335.9,297.6 L336,300.9 L337.5,302.1 L336.2,302.6 L335.5,304.4 L333.7,305 L332.2,306.6 L331.9,308.2 L329.8,309.1 L331,306.7 L330.1,306 L328.7,303.9 L329.1,303 L328.5,299.8 L331.2,296.9 L332.5,295.8 L335.8,294.8 L337.1,294.8 L338.6,295.7 L338.6,295.7 Z M375.4,182.7 L372.7,183 L370.5,182.4 L369.5,182.7 L365.7,183 L364.6,183.7 L362.5,183 L360.5,181.8 L358.5,182.9 L356.9,181.9 L355.9,183.8 L356,185.6 L354.2,185.4 L354.5,186.5 L352.5,188 L349.3,188.2 L350,189.7 L349.1,190.4 L350.1,192.1 L348.8,193.6 L346.7,195.5 L346.2,196.5 L347.9,197.6 L349.5,200.1 L351.1,201.2 L350.7,202.4 L348.6,203.5 L346.4,205.2 L344.4,209.5 L341.3,210.8 L338.9,212.4 L335.9,213.1 L333.5,215.3 L331.7,214.5 L330.2,215 L329.2,216.8 L327.3,218.3 L324.9,218.1 L325.1,218.9 L322.8,219.2 L321.8,223.2 L319.6,223.8 L318.9,224.6 L318,224 L315.9,224.1 L317.5,226.9 L315.8,228.7 L314.6,228.7 L313.1,229.4 L311.2,228.6 L311,229.8 L311.8,231.1 L313.1,232.1 L313,233.4 L312.1,237.7 L312.8,239.5 L310.7,240.7 L309.9,241.8 L310.5,243.5 L310.4,244.6 L311.1,246.5 L311.9,250.7 L313,252.7 L312.9,254.3 L314.2,255.2 L316.3,255.1 L317.7,256.7 L320.8,255.9 L321.6,257 L324.5,259.2 L326.2,259.5 L328.1,260.7 L328.1,262.2 L331,263.2 L332.9,265.2 L333.7,266.8 L333.6,267.8 L331,269.3 L329.7,270.6 L325.9,272.7 L325.3,272.6 L323.2,273.6 L325.2,274.2 L326.6,273.5 L329.2,272.9 L330.6,274.1 L328.4,274.6 L328.1,276.2 L327.3,277.2 L325.3,277.9 L322.5,279.4 L318.5,280.8 L317.4,282 L314.8,283 L313.5,283.8 L309.7,283.8 L306,283.7 L307,284.6 L307.9,284.4 L311.5,284.8 L313.2,286.1 L310.2,287 L311.9,290.2 L311.2,291 L311.6,294.5 L310.5,294.6 L310.2,296 L310.8,298.5 L311.8,300.6 L311.7,301.6 L310.2,304 L311.1,306.9 L309.6,312.2 L307.7,315.3 L306.4,319.4 L304.6,320.8 L302.2,319.9 L298.8,320.4 L295.6,320.1 L292.6,320.3 L291.8,320.7 L292.5,322.1 L290.2,321.9 L288.5,323 L286.5,325.1 L286.5,326.6 L288.4,329.6 L286.7,331.6 L285.6,331.6 L282.4,331.1 L276.9,332.3 L271.8,331.3 L272.3,330.3 L272.5,327.2 L271.9,325.5 L270.6,324.4 L267.5,320.6 L266.3,318.3 L268.7,319.2 L269.7,318.7 L267.9,316.1 L270.1,316 L270.8,315 L270.2,313.5 L268.3,312.9 L266.4,310.5 L264.6,309.3 L261.1,304.6 L259.8,301.4 L258.7,301.7 L257.5,298 L255.8,297.4 L255.2,293.7 L253.4,293.3 L252.1,291.6 L251.7,288.4 L250.5,287.8 L249.7,286.4 L248.9,283.4 L248.6,280.7 L247.7,278.9 L248.2,277.7 L249.3,277.5 L250.4,278.3 L251.4,280.1 L253.3,279.9 L254,278.5 L254.6,274.6 L253,270.2 L254.5,268.7 L255.4,266.3 L258,265.6 L259.3,264.8 L261.2,262.8 L261.3,260 L261.9,257.9 L261.4,256.5 L258.3,251.6 L258,250 L259.8,249.4 L262.2,249.4 L263.5,246.9 L263.9,245 L260.5,242.3 L259.3,241.9 L255.5,239.8 L256.4,233.4 L256.4,231.8 L253.9,227.4 L254,225.6 L253.4,222.8 L254.5,221.7 L251.8,217.6 L253.8,214.8 L253.3,213.3 L254.5,212.3 L258,208.5 L261.3,207 L264.6,206.6 L271.7,207.5 L273.4,205.3 L273.3,204.1 L272.2,201.2 L267.5,199.6 L271.9,194.6 L275.2,189.6 L275.3,184.9 L275.9,182.2 L274.5,178.3 L278.3,177.9 L280.7,177.4 L284,175.9 L283,173.4 L284.3,172.5 L287.3,169.6 L290.6,166.7 L292.1,165.7 L292.3,164.3 L291.3,163 L288.6,160.7 L289.1,159.6 L291.8,159 L292.9,157.9 L294.4,154.4 L298.1,152.5 L299.6,151.6 L305.9,153.4 L308,150.3 L307.2,146.7 L307.2,145.9 L309.3,145.4 L313.4,146.3 L316.3,146.4 L324.9,148.1 L325.9,148.2 L328.4,146.6 L325.5,145.7 L327.1,144.8 L328.5,142.9 L328.4,140.9 L325.8,139.3 L330.9,139.1 L333.8,139.9 L334.2,140.8 L337.1,141.9 L341.9,144.2 L346.1,146 L354.4,147.7 L357.9,149.5 L359.1,151.1 L360.5,151.2 L362.4,152.7 L364.2,153.6 L363.1,154.6 L363.5,157 L364.2,158.4 L363.9,160.3 L366.7,160.7 L367.3,162 L366.3,162.8 L366.2,163.9 L367,165.5 L370.3,168.1 L370.9,169 L370.2,170.4 L370.3,172.2 L368.8,173.5 L368.8,174.8 L370.1,177.4 L371.9,178 L373.8,180.2 L375.4,182.7 L375.4,182.7 Z" id="SE"></path>
            <path d="M454.7,564.7 L451.8,565.2 L451.7,563.7 L453.9,563.1 L454.7,564.7 Z M649.2,543.2 L653.5,544.5 L654.6,543.5 L658.2,543.6 L661.6,544.4 L662.5,542.5 L663.9,542.1 L665.3,542.4 L665.9,543.5 L667.1,543.9 L670.6,546.4 L671.7,548.1 L673.6,548.3 L674.9,549.5 L676.2,551.1 L677.9,552.3 L679.6,555.6 L679.4,557.9 L678.4,559.3 L679.2,561.2 L681.1,564.2 L680.6,564.8 L682.4,565.7 L685.3,566.6 L688.8,566.2 L690.4,566.9 L692.7,568.6 L695.9,571.4 L696.7,572.3 L693.4,570.4 L692,572 L691.9,575.8 L691.3,576.2 L688.5,576.1 L687.3,576.5 L688.5,579 L689.9,580.2 L689.9,582.5 L692,585 L692.2,587.1 L693.1,589.3 L693.4,591.5 L693.9,592.2 L695.3,592.5 L694.7,596.3 L694.1,597.5 L693.7,599.5 L695.4,600.1 L698.6,602.1 L698.7,603.4 L699.3,604.9 L699.6,606.9 L702.8,609.2 L702.8,611.5 L700.7,611 L697,614.1 L695.8,612.9 L695.5,610.5 L694,609 L692.7,608.8 L690.6,610.2 L686.4,609.9 L683.5,608.8 L680.6,608 L678.7,608.6 L676.5,607.9 L675,609.8 L673,611.7 L671.8,612 L670.2,609.4 L668.9,609.2 L667.7,610.5 L665.5,611.3 L660.9,612.3 L657.7,612.6 L653.6,612 L650.4,612.2 L647.3,613.6 L642.1,616.4 L638,617.8 L633.8,618.7 L626.2,618.5 L625.1,618.2 L621.6,615.9 L618.2,615.3 L614.8,616.9 L612.5,617.7 L609,619.3 L604.2,619.2 L602.3,617.5 L598.6,616.8 L598,618.4 L597.7,622.2 L599.5,625.3 L596.2,626.7 L596.2,629.3 L594.4,630.4 L593.6,632 L591.4,630.8 L590.4,630.7 L591.1,629.4 L588.6,624.5 L589.3,623 L592.8,619.1 L592.4,616.7 L590.4,615.1 L587.5,617.2 L585.8,618 L585.5,619.2 L584.4,620 L582.6,620.4 L579.7,619.4 L576.5,618 L574.6,616.9 L573.2,616.6 L571.9,617.1 L568.4,619.9 L565.3,624 L564.5,624.8 L561.3,626.5 L559.1,627.1 L558.1,627 L553.7,627.8 L551.5,627.9 L549.9,628.8 L546.4,627.8 L544.2,626.5 L542.8,625.2 L540.5,622.3 L538.9,621 L535.6,619.8 L529.8,616.8 L524.5,616.1 L520.5,615.8 L519.8,616.9 L519.9,621.1 L519.4,622.3 L519.3,624.5 L518.2,625.6 L516.1,624.6 L514.2,625.5 L510.5,626.8 L509.3,626.9 L504.7,625.3 L501.8,623.2 L501.2,621.2 L499.9,618.5 L498.1,618.8 L495.8,618.4 L492.6,616.8 L490.2,616.7 L489,618.6 L488,619.3 L486.7,618.9 L487.5,617.6 L483.8,617.8 L482,618.8 L480.5,618.7 L479.5,617.7 L481.5,617.1 L485.4,616.7 L486.3,616.3 L487.2,615 L488.9,613.8 L487.7,613.3 L481.7,613.6 L477.5,613.4 L476.5,614.1 L476.1,612.5 L479.7,611.1 L479.4,609.8 L475.2,607.6 L474.9,606 L472.9,602.9 L474.8,602.4 L474.9,599.9 L474.5,598.4 L470.6,597.1 L469.8,597.2 L468.7,595.9 L467,595 L465.8,595.7 L462.5,594.3 L461.9,593.7 L462.4,592.3 L463.4,591.2 L462.5,589.3 L462.4,588.3 L464.2,588.2 L465.2,589.3 L465.5,591.5 L469.1,592.2 L472,591.6 L469.5,590.5 L468.4,589.3 L467.2,587 L469,585.9 L470.2,584.2 L467.5,583 L467.7,580.6 L465.2,577.9 L465.5,577.1 L467.8,574.3 L466.6,573.6 L462.3,574.3 L460.7,574.9 L457.6,575.1 L457.3,573.5 L457.9,572.2 L457.4,568.8 L457.6,567 L459.3,566.4 L461,563.7 L464,560.6 L467.5,560.6 L468.8,559.7 L470.9,559.7 L471.7,560.9 L473.6,561.8 L476.8,561.7 L478.2,560.8 L476.6,559.3 L478.3,558.8 L479.8,559.2 L479.7,561 L483.8,560.5 L488.2,560.9 L489.6,560.7 L493,560.7 L493.5,560.2 L489.9,558.5 L491.9,557 L498.7,555.8 L502.4,555 L496.7,554.2 L495.3,553.6 L493.3,552.2 L492.3,551.1 L492.6,548.5 L493.2,547.8 L495.4,547.7 L503.1,548.9 L508.4,548.1 L514.5,549.9 L520.1,549.5 L521.2,548.8 L522.3,546.2 L529.7,542 L532.1,539.9 L534.9,538.7 L539.9,537.3 L543.9,535.6 L545.1,535.4 L555.5,536.2 L562.5,536.3 L565.5,534.7 L567.5,535.2 L567.4,537.3 L570,539.9 L573.5,541.3 L577.9,540.1 L579.7,540.6 L581.9,544.6 L583.4,546 L585.2,546.9 L586.5,547.1 L588,545.7 L589.7,545.6 L592.6,546.9 L593.8,548.3 L598.6,549.4 L602.9,550 L604.9,551.2 L611.1,552.4 L613.3,552.2 L616.9,550.9 L623.9,549.6 L629.1,551.5 L631.6,551.6 L633.3,552.1 L635,551.8 L640,549.5 L641.4,548.3 L643.1,547.9 L648.3,544.6 L649.2,543.2 L649.2,543.2 Z M477.3,536.1 L477.2,537.9 L478.2,539.9 L480.5,542.6 L482.5,544 L490.6,547.3 L492,547.6 L491.1,551.1 L489,551.6 L482.6,550.1 L481,550 L478.1,551.4 L475.8,551 L472.7,551.6 L472.1,553.7 L470.1,556.1 L466.8,558 L464.3,559 L460.8,562.7 L459.3,564.9 L457.8,565.6 L458.3,563.6 L458,561.9 L460.3,559.9 L463.6,558.3 L464.3,557 L458.9,557.3 L455.6,557.3 L454.6,555.5 L455.4,555.1 L457.9,551.9 L457.4,547.5 L460.8,545 L459.9,541.9 L457.6,540.4 L456.4,540.1 L456.7,538.7 L458.6,538.4 L459.6,536.2 L463,535.8 L464.5,534.7 L468,534.4 L471.4,536.9 L472.9,536.3 L474.7,536.3 L475.6,535.9 L477.3,536.1 L477.3,536.1 Z" id="TR"></path>
            <path d="M518,470.6 L518,471.2 L514.1,470.4 L513.2,469.5 L518,470.6 L518,470.6 Z M491.6,485.2 L489.7,483.4 L487.5,482.7 L485.3,482.9 L483.1,484.2 L481.5,484.7 L480.6,484.4 L480,485.6 L476,484.7 L474.2,483.8 L472.7,482.2 L473.8,481.5 L475.8,481.3 L476.2,480.3 L475.7,478.9 L478.2,476 L478.2,474.7 L480.5,473 L480.9,471 L479.9,469.3 L479.4,467.2 L481.9,465.6 L484,466.6 L485.9,466.8 L488,467.6 L489.6,467 L490.8,468.3 L493.7,467.9 L494.3,467.2 L491.4,465.5 L491.2,462.6 L490.2,461 L488.1,460.2 L486.1,458.9 L485.2,457 L485.2,454.6 L482.3,452.6 L480,451.4 L479.4,450.2 L480,447.1 L479.4,444.8 L478,443.4 L476.6,444.1 L475.2,443.1 L473.8,441.2 L468.2,440.6 L467.6,439.4 L465.1,439.1 L461.5,436.7 L458,435.7 L456.4,436.7 L455.6,436.4 L454.4,437.4 L450.4,437.3 L449.7,437.1 L447.4,438.5 L447.2,439.1 L443.5,439.9 L443.3,441.3 L442.2,443.2 L433.8,444.4 L430.4,445.7 L429.4,446.9 L427.3,447.4 L423,444.1 L421.8,443.8 L418.2,444.5 L411.3,443.1 L408.6,443.2 L405.9,441.7 L405.2,441.7 L404.3,442.9 L402.2,443.8 L401.5,442.1 L400.6,441.4 L398.3,441 L397.4,439.9 L395.2,439.1 L393.8,436.8 L392.3,436.8 L392.2,434.3 L393.8,432.6 L394.6,429.7 L396.1,426.7 L399.4,427.4 L399.8,426.5 L397.9,425.1 L398,423.3 L396.5,419.5 L397.1,418.5 L400.5,414.1 L402.9,411.4 L407.7,406.8 L410.7,406.3 L411.9,404.5 L411.8,403.2 L410,400.6 L411.2,399.3 L409.8,398.3 L407.9,395.5 L405.2,392.7 L405.2,391.4 L404,389.6 L403.9,388.2 L405,387.7 L406.9,388 L408,388.5 L409.9,387.3 L411.5,385.7 L412.3,384.3 L418.2,383.8 L420.5,383.3 L422.9,383.2 L430.7,383.6 L437.2,385.1 L443.3,386 L445.6,386 L447.4,388.1 L448.4,388.4 L451.4,388.3 L452.5,388.7 L453.3,390.1 L454.5,388.4 L456.4,388.9 L458.3,388.2 L463.4,389.2 L464.2,390.5 L465.2,390.8 L465.8,389.7 L469.6,388.1 L472.1,391.1 L472.7,391.6 L475,390.8 L482.1,390.2 L484.1,391.3 L484.6,392.5 L487.3,393.4 L488.1,392 L486.3,388.4 L487.3,385.1 L488.1,383.9 L490.3,381.6 L491.4,381.1 L493.1,381.5 L494.5,380.7 L499.5,380.8 L502.1,381.6 L503.8,381.5 L505.6,380.6 L506.1,378.2 L507.7,377.6 L511.4,378.5 L512.4,378.4 L515.1,377.2 L516.7,377 L518.7,377.3 L522.1,377.1 L524.6,378.5 L526,379.9 L527.7,382.6 L531.7,385.6 L531.6,386.6 L528.7,387.1 L530,389 L530.5,391 L531.7,392.7 L531.3,393.7 L534.4,393.8 L537.3,394.8 L541.4,394.3 L542.9,396.5 L544.8,396.7 L545,397.6 L546.4,400.4 L547.3,401.5 L547.1,403.3 L547.6,404.3 L549.5,405.9 L550.2,406.9 L551.3,407.3 L553.6,405.9 L556.4,406.3 L559.1,408.3 L561.4,408.3 L563.1,409.4 L564.5,408.1 L568.8,407.2 L571.1,406.2 L572.1,406.3 L574.4,408.1 L574.9,409.3 L576.4,410.9 L581.1,413.8 L582.4,413.2 L583.3,411.7 L585.9,413.1 L588.3,413.3 L591.9,415.2 L593.3,415.3 L594.9,414.7 L596.9,416.5 L598.8,416.7 L603.2,419 L606.1,418.7 L607.1,419.5 L607,421.2 L608,422.1 L607.9,424.7 L606.2,426.8 L603.9,427.6 L605,429.1 L608.1,430 L607.2,430.9 L605.8,430.7 L605,431.7 L604.7,434 L607.2,434.7 L608.4,437.5 L608.4,438.6 L609.6,438.9 L608.3,443.6 L608.2,445.4 L604,445.6 L598,445.3 L597.1,445.5 L596.2,447.4 L593.9,448.8 L592.2,449 L591.4,449.8 L591.4,452.1 L591,453.4 L592.1,454.1 L591.4,455.7 L591.9,457 L591.4,457.1 L587.1,456.9 L583.7,457.2 L581.6,459.6 L580.1,459.6 L576.9,461.1 L575.5,462.8 L574.1,462 L571,462.5 L569.3,463.6 L566.2,463.5 L563.9,464.1 L559.3,467.9 L558,468 L557,467 L555.4,469.6 L553,470.8 L553.6,473.9 L556.4,478.4 L560,482.3 L561.7,483.7 L564.1,484.4 L567.2,483 L569.6,483.4 L571.3,482.2 L572.8,482.1 L576.5,483.1 L575.4,485.6 L575.1,488.2 L573.2,488.8 L571,488.7 L568.8,489.1 L566.1,487.6 L563.6,487.6 L562.5,489.5 L560.2,490.8 L559.6,492.2 L557,491.9 L554.9,492.1 L552.1,493.5 L550.2,496.3 L547.9,498.1 L546,498.6 L544,498.5 L542.7,497.9 L539.8,496.1 L540.5,494.1 L541,490.6 L539.8,487.7 L537.5,486.3 L535.9,486.5 L535,486.2 L531.3,483.8 L529.4,483.6 L527.5,484.1 L526,482.9 L529.5,480 L533,477.6 L534.7,477.4 L536.8,476.2 L539,474.6 L537.7,472.3 L535.8,472.9 L533.6,471.8 L532.7,471 L529.6,471.8 L527.8,471.7 L524,472.5 L522.1,471.7 L518.1,469.7 L515.5,469.4 L515.5,468.4 L517.3,468.1 L517.4,467.1 L513.6,466.5 L513.5,465.2 L515.5,465.7 L518.7,465.9 L521.6,466.4 L523.7,464.6 L521.3,465.1 L518.4,464.6 L516.3,462.8 L514.1,464 L510.9,463.5 L508.5,464.3 L506.2,464.1 L502.1,465.2 L501.7,468.1 L499.7,472.1 L496.6,475.8 L492,477.9 L490.3,477.5 L489.4,478.6 L489.6,479.9 L490.6,480.8 L491.7,483.9 L491.6,485.2 L491.6,485.2 Z" id="UA"></path>
            <polygon id="XK" points="395.3 531.8 393.2 532.2 391.7 534.1 390.1 532.9 389.1 533 385.7 534.5 385.5 537.1 385 537.9 383.3 537.6 383.2 535.4 381.8 532.2 379.9 530.9 378.5 530.4 376.5 527.5 376 527.1 376.2 525.8 375.3 524.3 377.3 523.9 377.5 523.2 379.1 522.8 380.6 522.3 380.6 520.9 382.3 519.6 382.7 518.6 382.1 517 383.8 516.1 384.9 517.4 387.7 518.7 390 520.8 390.2 521.5 392.4 522.7 392.4 524 397.1 525.2 396.9 526.4 395.7 529.6 394.7 530.5 395.3 531.8"></polygon>
            <path d="M173.5,391.5 L172.9,392.7 L169.7,394.2 L165.8,393.1 L164.6,393.7 L163.4,393 L163.1,391.7 L165.9,391.3 L169.4,392 L170.9,391.4 L172.1,391.9 L173.5,391.5 Z M170.1,386.2 L171.6,387.6 L170.1,387.9 L168.5,386.9 L170.1,386.2 Z M188.2,377.7 L185.2,377.3 L184.3,376.6 L186.7,374.9 L189.9,373.4 L191.6,373.8 L192.1,374.7 L191,375.8 L188.2,377.7 L188.2,377.7 Z M180.6,366.2 L179.5,367.3 L178.9,365.9 L180.6,364.5 L180.6,366.2 L180.6,366.2 Z M173.5,391.5 L170.9,390.7 L168.7,391.2 L165.9,390.5 L164.2,389.2 L165.4,388.5 L167.7,388.4 L171.7,389.1 L172.9,388.2 L172.3,387.2 L170,385.1 L171.6,382.4 L173,381.4 L176.2,377.6 L177.1,375.6 L178.3,370.1 L179.3,368.1 L180.7,368.6 L182.7,367.8 L186.1,365.8 L187.1,364.1 L188.1,363.2 L192.1,361.6 L194.2,361.2 L203.1,360.7 L204.9,362.4 L207.6,363 L207.7,367.3 L207,369 L205.9,372.8 L202.8,372.7 L202.2,374.3 L202.9,375.3 L205.5,375.6 L206.3,376.6 L205.7,379.2 L203.1,380.8 L202.8,381.7 L203.8,382.6 L203.1,383.6 L198.6,384.9 L196.3,384.1 L194.5,384.8 L193.8,385.9 L196.9,390 L196.9,391.2 L195.6,394 L196.3,395.2 L194.1,396.8 L193.6,397.6 L195.5,398.8 L194.9,401.2 L193.7,401.1 L191.3,400.8 L190.6,399.7 L191.7,398.4 L192.7,395.5 L190.1,394.4 L188.4,393.1 L186.5,393.5 L183.9,392.1 L183.4,390.5 L180.9,391.3 L179.8,390 L178.3,391 L176.8,390.2 L175.4,390.9 L175.6,391.8 L173.5,391.5 L173.5,391.5 Z M191.6,375.9 L192.5,375 L192,373.1 L189.9,372.8 L189.4,372 L189.8,369.5 L187,369.1 L186.6,366.6 L185.1,366.9 L182.8,368.4 L183.4,369.7 L185,371.3 L185,372.2 L182.9,372.9 L183,375.5 L182.8,377.1 L188.2,378.5 L191.6,375.9 L191.6,375.9 Z" id="NL"></path>
            <path d="M141.7,583.7 L141.3,584.7 L139.3,584.3 L139.3,582.8 L140.5,581.2 L143.2,580.5 L144,581.8 L141.7,583.7 L141.7,583.7 Z M163.4,570.1 L164.6,570.6 L165.9,570.1 L167.3,570.5 L167.5,571.5 L165.3,575 L164.7,576.4 L162.6,577.7 L158.6,576 L158.3,574.4 L156.9,573.7 L155.2,575 L153.8,574 L153.5,572.8 L158.8,569.1 L160.3,568.2 L163.5,567.3 L164,568.5 L163.4,570.1 L163.4,570.1 Z M178.1,569.3 L177.8,569.5 L173.9,567.6 L172.3,567.2 L172.4,565.8 L175,565.6 L177.1,566.3 L178.3,568.1 L178.1,569.3 L178.1,569.3 Z M100.7,513.8 L101.2,515.1 L105.5,516.4 L105.2,519.6 L107,519.2 L111.4,520.9 L113.6,521.1 L115.8,523.2 L119.4,522.8 L122.6,524.9 L125.7,524.5 L126.4,524.9 L131.1,524.9 L131.9,522.5 L135.9,523.6 L138.4,524.6 L140.1,524.9 L141.2,526.4 L141.2,528.5 L141.9,528.9 L144.7,527.8 L147.5,529 L148.8,530.2 L150.9,529.1 L155.6,530.3 L156.8,529.5 L160.6,528.4 L163.7,529 L164.9,531.2 L163.1,531.7 L162.9,533.1 L164.1,534.4 L164.2,536.5 L161.2,539.3 L152.5,544 L149.6,546.7 L143,548.2 L138.5,549.7 L136.3,550.2 L132.2,554 L133.3,554.3 L134.5,555.5 L134.1,556.1 L131.6,557.2 L130.7,557.2 L127.8,561.8 L125.2,565.1 L123.7,566.6 L122.2,568.7 L119,574.3 L118.9,575.9 L120.5,581.4 L122.7,584.1 L125.1,585.2 L125.7,586.2 L124.9,587.2 L122.5,588.9 L118.2,591.2 L116.4,593.1 L116.1,594.9 L114.8,595.7 L114.3,598.2 L112.5,602.6 L113.8,603.8 L112.5,604.6 L106,604.9 L101.9,607.7 L99.9,610.1 L98,614.6 L95.8,617.2 L94.8,617.7 L93.3,616.5 L91.4,616.4 L89.5,616.7 L88.5,617.7 L87,618.2 L85.5,617.7 L80.9,617.5 L78.6,618.3 L76.7,617.8 L73.5,617.5 L66.5,618.1 L62.5,621.5 L59.1,621.5 L56,622.7 L53.9,625.7 L53.4,627.3 L52.4,627 L52.1,628.2 L50,629 L47.6,628 L45.6,626.5 L44.6,626.4 L43,624.2 L41.8,621.1 L41.8,620 L40.3,619.4 L40,618 L40.2,616.4 L39,614.4 L34,610.7 L30.3,610.4 L27.3,610.9 L26.2,604.5 L27,602.3 L30.5,598 L32.6,597.4 L33.3,595 L31.6,595.2 L28.6,590.9 L29.5,586.9 L32.7,583.9 L33.3,581.5 L32.8,580.7 L31.1,580.3 L29.5,577.1 L29.2,575.2 L27.8,574 L26.7,572.1 L27.8,571.8 L32.1,571.8 L33.1,571.3 L34.8,567.8 L34.8,565.9 L33.4,564.6 L33.6,563.6 L36.3,561.5 L35.9,560.4 L36.3,556.6 L35.9,553.1 L35.1,551.1 L37.1,549.5 L38.2,547.9 L39.8,546.5 L41.9,545.4 L44.4,542.9 L44.1,541.8 L42.2,540.9 L40.3,540.7 L40.2,537.6 L39.5,536.5 L34.3,536.4 L32.8,535.9 L32,537.3 L29.5,538.2 L28.1,538.2 L25.9,537.4 L23,537.5 L20,538.6 L19.1,537.3 L20.4,535.4 L19.4,533.6 L15.3,534.6 L13.4,535.5 L12.2,536.6 L10.9,536.5 L10.9,534 L13.5,531.4 L11.9,531.2 L13.1,529.3 L12.1,528.3 L12.2,525.7 L9.9,526.6 L9.4,525.4 L10.8,523.2 L9.4,523 L7.1,520.5 L7.9,517.4 L9.9,516.4 L11.8,514.9 L14.4,515.2 L16.1,514.9 L19.7,513.3 L19.3,511.8 L19.7,511.1 L22.9,509.4 L24.9,509.2 L26.8,508.3 L28.1,508.8 L29.2,508.7 L30.5,509.3 L32.2,510.9 L34.7,511.5 L36.7,511 L40.3,510.9 L42,511.1 L45.2,510.8 L47,510.9 L49.9,510.1 L52.2,511.1 L56.6,511.5 L59.2,512.3 L66.4,513.7 L69.1,513.7 L72.8,512.9 L74.4,512.4 L75.9,512.7 L78,512.1 L80.3,513.1 L85,514.4 L87.1,513.1 L90.5,513.7 L93.8,515 L95.6,515.1 L98.2,514.8 L100.7,513.8 L100.7,513.8 Z" id="ES"></path>
            <path d="M242.5,523.1 L242.2,525.4 L243.2,527.1 L243.8,533.6 L242,536.8 L242.1,539.8 L240.5,544.1 L239.7,545.2 L235.9,543.2 L234.7,542.1 L235.7,540.3 L233.5,539.4 L233.9,537.7 L233.7,536.8 L232.1,536.3 L233.1,535 L233.1,534.2 L231.6,533.2 L231.3,532.3 L232.6,531.2 L232,530.3 L232.1,529 L233,527.1 L234.2,526.2 L237,525.4 L238.2,524.3 L240.1,524.9 L240.7,523.7 L240.5,521 L240.8,519.9 L242.1,520.4 L242.5,523.1 L242.5,523.1 Z M108.6,475.2 L108.2,476.6 L106.3,474.2 L107.3,473.7 L108.6,475.2 L108.6,475.2 Z M193,419.6 L195.1,420.8 L196.5,420.8 L198.5,420.2 L199.8,420.9 L201.2,421 L204.7,425.3 L206.5,424.6 L207.9,425 L208.2,425.9 L210.3,426 L213.3,425.4 L215.3,426.8 L220.1,427.6 L221.7,428.2 L221.8,429.5 L218.3,433.3 L216.9,438.8 L215.9,440.6 L215.6,442.1 L215.8,444.5 L215.2,446.5 L215.2,448 L216.3,449.3 L214.8,450 L214,451.4 L211.3,451.7 L210.5,450.9 L209.4,450.9 L207.6,452.3 L208.9,453.4 L208.3,454.3 L204.5,458.3 L202.4,459.2 L201.9,462.1 L198.9,464.3 L197.8,467.2 L198.6,467.9 L198.3,469.4 L196.8,470.4 L196.8,471.4 L198.2,471.5 L200.5,469.9 L200,468.6 L202.3,467.1 L204.2,467 L206.4,467.3 L207.2,469.5 L206.7,471.2 L209,473.5 L209.9,474.9 L207.3,476.6 L207.4,478.2 L208.3,478.8 L210,481.4 L211.8,483 L211,485.5 L209.8,485.8 L208.1,487.1 L206.2,486.9 L205.4,487.3 L206.9,490.4 L210.1,491.8 L210.6,493.5 L209.8,494.2 L208.4,496.7 L209.1,498 L209.2,499.4 L210.1,500.3 L215.2,502.7 L218.5,502.1 L218.8,504.1 L216.7,506.7 L216.9,508.2 L216.3,508.5 L215.5,508.8 L213.1,509.9 L209.2,513.3 L207.4,514.3 L206.7,516.1 L204.7,517.5 L202.3,518 L200,519 L198.9,518.6 L196.1,518.6 L194.4,517.4 L191,516.6 L189.9,514.8 L187.4,514.7 L186.6,513.2 L184.7,513.5 L183.2,514.2 L181.2,514.1 L175.3,512.3 L173.9,510.9 L172.2,511.4 L170.6,513 L164.1,517.1 L161.5,521.4 L161.4,522.6 L162.1,526.5 L163.7,529 L160.6,528.4 L156.8,529.5 L155.6,530.3 L150.9,529.1 L148.8,530.2 L147.5,529 L144.7,527.8 L144.7,526.3 L142.1,525.7 L141.2,526.4 L140.1,524.9 L138.4,524.6 L135.9,523.6 L131.9,522.5 L131.1,524.9 L126.4,524.9 L125.7,524.5 L122.6,524.9 L119.4,522.8 L115.8,523.2 L113.6,521.1 L111.4,520.9 L107,519.2 L105.2,519.6 L105.5,516.4 L101.2,515.1 L100.7,513.8 L102.7,513.3 L104.6,511.4 L106.3,504.3 L107.6,496 L108.6,494.4 L109.8,494 L108.8,492.8 L107.7,494.3 L108.4,486.7 L108.9,483.9 L109.8,480.9 L112.9,483.3 L113.7,484.3 L114.6,487.7 L115.2,487.8 L114.1,483.2 L112.3,480.9 L108.7,478.6 L108.2,477.3 L110,476.7 L109.5,474.9 L109,469 L106,468.4 L101.2,465.8 L99.5,463.2 L97.9,461.3 L97.5,459.6 L98.4,457.8 L97.6,456.7 L96.2,455.9 L97.3,454.3 L94.3,454.1 L92.5,453.6 L92.2,452.5 L93.5,451.1 L91.9,450.3 L89.3,450.5 L89.1,448.8 L86.9,449.1 L85.7,448.8 L84.6,447.7 L83.3,447.9 L81.1,447.5 L80.3,446.8 L75.5,445.5 L73.5,445.4 L71.6,446 L70.5,445.7 L69.2,443.5 L66.1,442.4 L66.7,441.7 L69.8,441.1 L70.4,440.4 L68.2,439.5 L68,438.3 L69.6,438.6 L69.7,437.4 L65.7,437.5 L65.3,436.2 L65.8,434.8 L68.1,433.6 L73.9,432.2 L76.4,432.4 L78.1,432.2 L81.1,430.6 L84,430.2 L86.7,431 L89.2,433.8 L90.4,434.8 L93.5,433.1 L97.9,433.2 L98.8,434.1 L100,432.4 L101,433.4 L105.7,433.2 L104.2,430.7 L104,424.7 L102.7,423 L100.6,418.7 L100.8,417.3 L104,417.6 L106.7,417 L108,417.4 L108.3,420.2 L109.4,421.8 L111.6,421.8 L113.9,422.3 L116.9,422.4 L121.2,423.2 L123,422.7 L126.5,420.7 L124.7,420 L124.5,419.3 L125.4,417.1 L130.6,414.6 L134.3,413.9 L138.1,412.6 L140.1,411.2 L141.3,409.4 L141.8,408.1 L142.1,401.3 L143.1,399.1 L146,397.5 L152.4,396.4 L153.3,395.9 L154.2,398.1 L154.2,399.3 L157.1,401.7 L160.3,400.7 L161.9,402.5 L162.4,404.5 L166.6,405.6 L167.2,407.6 L168.1,407.3 L171.7,407.7 L173.3,408.8 L172.9,410.4 L173.6,411.1 L172.9,412.5 L173.4,413.1 L175.7,413.4 L177.9,413.1 L179.2,412.5 L179.7,411.1 L181.6,410.5 L180.8,413.2 L181.4,413.8 L181.8,415.8 L183.5,415.9 L186.8,417.4 L189.6,420 L193,419.6 L193,419.6 Z" id="FR"></path>
            <polygon id="PT" points="27.3 610.9 26.1 611.1 21.6 613.6 20.3 613.6 17.8 612.5 13.3 612.1 11.8 611.8 10 612.5 8.5 612.5 7.4 613.5 6.6 613.2 7.6 611.1 9.2 607 9.2 604.4 9.6 602.2 9.3 600.1 8.6 598.7 9.7 595.2 9.7 593.4 8.8 591.1 11.6 591.4 9.9 590 8.4 590 6.1 590.9 4.6 591 4.7 589.6 4.2 587.8 6.2 587.2 7.8 585.5 7.5 583.9 6.3 585 5.7 586.4 2.9 587.1 1.4 586.6 1.4 584.7 2 583 2.4 580.7 3.2 578.5 3 577.1 4.6 575.8 6 573.9 10.3 565 9.7 564 11.4 557.4 12.6 555.1 13.2 550.8 13 548.8 12.3 546.8 11.6 542.5 11.6 541.1 10.7 539.3 10.8 538.3 12.2 536.6 13.4 535.5 15.3 534.6 19.4 533.6 20.4 535.4 19.1 537.3 20 538.6 23 537.5 25.9 537.4 28.1 538.2 29.5 538.2 32 537.3 32.8 535.9 34.3 536.4 39.5 536.5 40.2 537.6 40.3 540.7 42.2 540.9 44.1 541.8 44.4 542.9 41.9 545.4 39.8 546.5 38.2 547.9 37.1 549.5 35.1 551.1 35.9 553.1 36.3 556.6 35.9 560.4 36.3 561.5 33.6 563.6 33.4 564.6 34.8 565.9 34.8 567.8 33.1 571.3 32.1 571.8 27.8 571.8 26.7 572.1 27.8 574 29.2 575.2 29.5 577.1 31.1 580.3 32.8 580.7 33.3 581.5 32.7 583.9 29.5 586.9 28.6 590.9 31.6 595.2 33.3 595 32.6 597.4 30.5 598 27 602.3 26.2 604.5 27.3 610.9"></polygon>
            <path d="M564.5,645.3 L564.4,645.3 L564.3,645.3 L564.4,645.2 L564.5,645.3 Z M564.5,645.3 L564.6,645.3 L564.7,645.3 L564.8,645.4 L564.7,645.4 L564.6,645.4 L564.5,645.4 L564.5,645.3 Z M564.1,645 L564,645 L564,644.9 L564.1,644.9 L564.1,644.8 L564.2,644.9 L564.2,645 L564.1,645 Z M567.6,644.2 L567.8,644.3 L568.1,644.6 L568.3,645 L568.4,645.3 L568.6,645.5 L568.8,645.6 L568.6,645.6 L568.3,645.6 L568,645.5 L567.8,645.3 L567.6,645.3 L566.9,645.4 L566.3,645.5 L566.2,645.6 L566.1,645.7 L565.8,645.7 L565.5,645.7 L565.4,645.6 L565.6,645.5 L565.7,645.5 L565.6,645.2 L565.4,645.2 L565.2,645.1 L565.2,644.7 L565.1,644.6 L564.8,644.5 L564.8,644.3 L564.9,644.2 L565.1,644.1 L565.2,644.2 L565.3,644.3 L565.5,644.2 L565.6,644.1 L565.7,644 L565.8,643.9 L566,644.1 L566.2,644.2 L566.3,644.2 L566.5,644.3 L566.6,644.3 L566.9,644.2 L567.1,644.2 L567.2,644.3 L567.4,644.3 L567.5,644.3 L567.6,644.3 L567.6,644.2 L567.6,644.2 Z M563.6,645.3 L563.6,645.5 L563.3,645.6 L563,645.9 L563,646.1 L562.9,646.4 L562.9,646.7 L562.9,647 L562.9,647.3 L562.9,647.4 L562.8,647.4 L562.7,647.5 L562.7,647.8 L562.6,647.9 L562.4,647.9 L562,647.9 L561.8,648 L561.7,648.1 L561.6,648.3 L561.5,648.4 L561.3,648.5 L560.9,648.6 L560.5,648.8 L560.2,648.9 L560,648.6 L560.1,649.1 L559.7,649.3 L558.8,649.5 L558.6,649.6 L558.5,649.7 L558.3,649.8 L558.1,649.8 L557.2,649.7 L556.2,649.8 L556.1,649.9 L555.9,650 L555.3,650.5 L555.2,650.8 L554.9,650.8 L554.6,650.9 L554.6,651 L554.5,650.9 L554.4,650.7 L554.5,650.5 L554.6,650.6 L554.9,650.6 L554.8,650.2 L554.4,650.1 L554.2,650.3 L554.1,650.4 L553.9,650.3 L553.9,650.4 L553.5,650.3 L553.2,650.1 L553.1,650 L553.1,649.8 L553,649.8 L552.9,649.8 L552.8,649.8 L552.7,649.8 L552.6,649.9 L552.6,650 L552.4,650 L552.3,650.2 L552.1,650.2 L551.9,650.2 L551.8,650.3 L551.9,650.5 L551.7,650.6 L551.2,650.6 L550.6,650.5 L550.1,650.3 L549.4,649.9 L549.1,649.8 L548.8,649.7 L548.3,649.7 L548,649.6 L547.8,649.4 L547.2,649 L547.1,648.9 L547,648.5 L547,648.4 L546.9,648.3 L546.5,647.4 L546.4,647.3 L546.1,647.1 L545.9,647 L545.8,646.9 L545.7,646.7 L545.7,646.5 L545.8,646.3 L545.5,645.9 L545.4,645.7 L545.4,645.3 L545.3,645.1 L545,644.6 L544.8,644.3 L544.7,643.9 L544.8,643.6 L544.9,643.6 L545.2,643.7 L545.6,644.2 L545.9,644.3 L546.1,644.4 L546.7,644.4 L547.1,644.2 L547.4,643.8 L547.7,643.4 L547.8,642.9 L547.9,642.6 L548.1,642.5 L548.2,642.4 L548.2,642.3 L548.3,642.3 L548.4,642.4 L548.5,642.4 L548.7,642.4 L548.8,642.5 L549,642.7 L549.2,642.7 L549.3,642.7 L549.5,642.5 L549.6,642.3 L549.6,642.1 L550,642.2 L550.2,642.6 L550.3,642.8 L550.4,643 L550.6,643.1 L551,643.2 L551.3,643.3 L551.5,643.5 L551.7,643.6 L551.8,643.8 L551.8,644 L551.9,644.1 L552,644.2 L552.1,644.2 L552.5,644.1 L552.6,643.9 L552.7,643.7 L552.8,643.6 L552.9,643.7 L553,643.8 L553.2,643.9 L553.4,643.9 L553.6,643.8 L553.8,643.6 L554,643.4 L554.2,643.3 L554.5,643.1 L554.6,642.9 L554.8,642.9 L555.1,643 L555.4,643 L555.8,643 L555.9,642.9 L556,642.9 L556.1,642.7 L556.4,642.5 L556.6,642.5 L556.8,642.6 L556.9,642.7 L557.1,642.7 L557.2,642.7 L557.4,642.9 L557.6,643.1 L557.8,643.2 L558.1,643.3 L558.2,643.3 L558.3,643.2 L558.3,643.1 L558.4,642.9 L558.7,642.6 L558.8,642.6 L559,642.6 L559.3,642.6 L559.5,642.6 L559.6,642.6 L559.6,642.8 L559.7,643 L559.8,643.1 L560,643.3 L560.2,643.5 L560.2,643.6 L560.3,643.9 L560.3,644.1 L560.3,644.4 L560.3,644.8 L560.2,645.1 L560.3,645.3 L560.4,645.4 L560.6,645.4 L560.8,645.4 L560.8,645.1 L560.8,644.7 L560.9,644.6 L561,644.5 L561.1,644.4 L561.2,644.5 L561.3,644.9 L561.4,645.1 L561.5,645.2 L561.8,645.1 L561.8,644.9 L561.9,644.8 L562.1,644.8 L562.2,644.9 L562.4,644.9 L562.5,644.8 L562.6,644.9 L562.7,644.9 L563,645.1 L563.2,645.1 L563.3,645.1 L563.6,645.3 L563.6,645.3 Z" id="CY"></path>
            <circle id="0" cx="121.25" cy="389.85" r="1"></circle>
            <circle id="1" cx="296.75" cy="411.05" r="1"></circle>
            <circle id="2" cx="242.35" cy="265.65" r="1"></circle>
        </g>
    </g>
</svg>