<?xml version="1.0" encoding="UTF-8"?>
<svg width="181px" height="43px" viewBox="0 0 181 43" version="1.1" xmlns="http://www.w3.org/2000/svg" xmlns:xlink="http://www.w3.org/1999/xlink">
    <title>Logo</title>
    <g id="UI-Design" stroke="none" stroke-width="1" fill="none" fill-rule="evenodd">
        <g id="Homepage" transform="translate(-65.000000, -53.000000)">
            <g id="Logo" transform="translate(65.000000, 53.000000)">
                <g id="Group" transform="translate(0.000000, 4.000000)">
                    <path d="M23,6 L28,0 L23,6 Z" id="Fill-154" fill="#000000"></path>
                    <path d="M18.2726529,18 C19.7788914,18 21,19.3432836 21,21.000225 C21,22.6571664 19.7788914,24 18.2726529,24 L10.5573737,24 L9,24 L13.3636736,18 L18.2726529,18 Z" id="Fill-156" fill="#21314D"></path>
                    <path d="M9.9998875,9 C9.9998875,7.3431 11.3431459,5.99985 13.0000563,5.99985 L21.4871093,5.99985 L23.19982,5.99985 L28,0 L13.0000563,0 C8.02932518,0 4,4.0293 4,9 C4,13.9707 8.02932518,18 13.0000563,18 L13.59991,18 L18.40009,12.00015 L13.0000563,12.00015 C11.3431459,12.00015 9.9998875,10.6569 9.9998875,9" id="Fill-158" fill="#F9A800"></path>
                    <path d="M18.7586055,12.2293288 L19.3446608,12.2293288 C24.20105,12.2293288 28.1376885,16.0522638 28.1376885,20.7683839 C28.1376885,25.484504 24.20105,29.3074389 19.3446608,29.3074389 L7.62003776,29.3074389 L4.6897613,29.3074389 L0,35 L19.3446608,35 C27.4386428,35 34,28.6281571 34,20.7683839 C34,14.1574475 29.3577211,8.59937651 23.0663098,7 C23.030698,6.99104549 18.7586055,12.2293288 18.7586055,12.2293288" id="Fill-152" fill="#21314D"></path>
                </g>
                <text id="STIRDATA" font-family="Jost-Medium, Jost" font-size="30" font-weight="400" fill="#21314D">
                    <tspan x="44" y="32">STIRDATA</tspan>
                </text>
            </g>
        </g>
    </g>
</svg>