<?xml version="1.0" encoding="UTF-8"?>
<svg width="824px" height="661px" viewBox="0 0 824 661" version="1.1" xmlns="http://www.w3.org/2000/svg" xmlns:xlink="http://www.w3.org/1999/xlink">
    <title>path1364</title>
    <g id="UI-Design" stroke="none" stroke-width="1" fill="none" fill-rule="evenodd">
        <g id="Homepage" transform="translate(-616.000000, 0.000000)" fill="#A1ADC4" fill-rule="nonzero">
            <g id="Hero" transform="translate(96.000000, -343.000000)">
                <g id="Maps" transform="translate(520.000000, 0.000000)">
                    <path d="M556.695828,1001.83952 C555.93155,1000.62392 553.089462,999.614116 550.380061,999.595502 C547.670661,999.5769 543.936214,998.589038 542.0813,997.400257 C539.759262,995.912131 542.210475,995.622897 549.950659,996.471695 C566.677786,998.306042 571.310345,999.479365 571.310345,1001.88163 C571.310345,1004.73148 558.490818,1004.69453 556.695828,1001.83952 Z M734.315458,983.550674 C733.482011,981.411976 734.401699,978.157479 736.477928,975.8984 C742.819637,968.998108 736.371127,964.271646 729.647711,970.89216 C726.928783,973.569507 725.36298,973.847661 723.475154,971.988728 C719.853744,968.422731 711.735997,968.916514 708.372387,972.907406 C704.857367,977.077934 698.835037,980.346821 690.14567,982.80075 C684.696094,984.339759 682.655673,983.751127 678.186915,979.350742 C673.507386,974.742814 656.499799,967.304835 650.642882,967.304835 C649.54595,967.304835 648.328141,969.500678 647.936709,972.184489 C647.103511,977.897134 638.741043,982.642279 632.389222,981.006663 C629.948728,980.37822 627.02848,977.472277 625.899792,974.549025 C624.771116,971.625785 622.912079,969.80338 621.768629,970.499265 C620.625203,971.195112 618.23917,969.72533 616.466374,967.233025 C613.934104,963.673005 611.872213,963.026054 606.848343,964.215174 C603.331216,965.04764 601.14341,964.992877 601.98652,964.093494 C602.829654,963.19411 600.929373,960.09454 597.76368,957.20557 C594.597999,954.3166 593.156477,951.952913 594.560333,951.952913 C595.964165,951.952913 597.112764,950.472548 597.112764,948.66321 C597.112764,946.853872 595.609389,945.373507 593.771946,945.373507 C591.934491,945.373507 590.431128,943.893142 590.431128,942.083817 C590.431128,940.274479 591.683935,938.779001 593.215151,938.760543 C595.148248,938.737205 595.021848,938.117998 592.801551,936.734552 C590.177604,935.099585 590.117384,934.132972 592.465926,931.346437 C594.82655,928.545589 594.690462,927.323048 591.689034,924.367547 C588.686335,921.410785 588.550322,920.185175 590.911058,917.357132 C593.431695,914.337496 592.911083,914.09778 586.533503,915.341537 C580.603872,916.497909 579.301243,916.069109 579.328736,912.969988 C579.415176,903.428529 589.322351,899.595747 614.930445,899.196923 C622.892729,899.072922 627.903943,898.365743 626.066513,897.625429 C623.861827,896.737178 625.755425,895.361682 631.634535,893.580861 C636.676596,892.053584 638.561641,890.809153 635.977592,890.713756 C631.624748,890.553064 626.066513,886.768779 626.066513,883.965858 C626.066513,882.441576 644.363313,883.350357 653.322125,885.319638 C657.727271,886.287924 659.795795,885.693652 660.77609,883.178133 C663.161799,877.056207 689.823735,866.179413 701.452812,866.584002 C707.151524,866.782259 713.477524,866.261806 715.510539,865.427456 C718.065376,864.378911 719.635779,865.24088 720.595526,868.218495 C722.140782,873.012699 729.979035,875.995494 732.110011,872.60026 C732.862976,871.400595 734.65253,872.72687 736.086783,875.547574 C737.521036,878.368266 740.664386,880.778491 743.072002,880.903616 C745.479617,881.028728 750.456233,882.348974 754.131131,883.837526 C764.562485,888.062792 773.74375,888.97855 782.313461,886.648571 C787.490737,885.240927 791.548613,885.256415 794.156951,886.693774 C798.582158,889.132353 814.102577,885.532747 819.833855,880.738605 C821.67131,879.201593 827.86677,877.453944 833.601538,876.854979 C843.331582,875.838683 844.492387,876.281935 850.970796,883.487475 C855.60761,888.64471 857.172153,891.938731 855.681844,893.406241 C854.369926,894.698083 854.234774,897.046445 855.353837,899.105445 C856.400672,901.031546 857.606575,903.594351 858.033628,904.800568 C858.460643,906.006797 861.315659,906.993703 864.37808,906.993703 C869.473105,906.993703 870.166523,908.105247 869.16658,914.669664 C868.982827,915.875893 867.221912,916.862799 865.253394,916.862799 C862.82502,916.862799 862.133209,918.040399 863.101634,920.525479 C867.067148,930.701334 868.843073,943.814967 866.613862,946.459929 C864.9202,948.469421 865.126533,949.573289 867.352988,950.414603 C869.051725,951.056512 870.979086,953.605564 871.635999,956.079225 C872.770098,960.349644 872.056144,960.533424 857.496557,959.718767 C848.938803,959.239922 841.570431,959.804405 840.82244,960.996157 C839.97473,962.346793 838.400174,962.24729 836.537933,960.725441 C834.501576,959.061271 833.148639,959.028411 832.150354,960.618937 C831.35653,961.883735 826.293175,962.918564 820.898457,962.918564 C815.503753,962.918564 805.962525,964.908675 799.69571,967.341014 C789.832434,971.169279 787.108806,971.411628 779.424857,969.144673 C772.48916,967.098503 768.891153,967.115912 762.969863,969.224308 C757.186108,971.283745 754.252207,971.322358 750.580439,969.38736 C746.8,967.395077 745.358004,967.487716 743.848844,969.819804 C742.79252,971.452126 742.40797,974.074061 742.994276,975.646366 C743.580595,977.218646 742.193995,980.477611 739.912979,982.888547 C736.127964,986.889098 735.638971,986.946956 734.315458,983.550674 Z M70.5733531,982.543855 C69.2044887,981.662773 65.9780789,976.880009 63.4035093,971.915479 C60.2784016,965.889293 56.4713811,962.122015 51.949834,960.581359 C44.3825721,958.002882 43.3154458,953.636532 48.9149388,948.163335 C51.9672336,945.179884 52.159038,943.737165 49.9607155,940.296516 C47.8060962,936.924223 47.9223427,935.171067 50.543067,931.513823 C53.4310199,927.483693 53.4135079,926.341905 50.3946075,921.838421 C47.2919845,917.210013 47.3214089,916.390648 50.7092846,913.079167 C52.7649246,911.069921 53.9611688,907.610797 53.367598,905.39224 C52.7740484,903.173683 53.2632413,900.769614 54.4547126,900.049848 C55.6461851,899.330095 56.335256,896.078359 55.9859795,892.823793 C55.5978425,889.206801 57.3382035,884.437003 60.4627543,880.554392 C63.3955906,876.909966 64.5553847,873.870357 63.1836417,873.42342 C61.8686734,872.99497 60.7927793,870.763745 60.7927793,868.465169 C60.7927793,865.341532 59.2150442,864.285894 54.5465337,864.285894 C51.1110972,864.285894 47.3293064,865.234972 46.1425419,866.394975 C43.6508019,868.830511 34.0231496,866.920033 34.0231496,863.990049 C34.0231496,862.907808 31.5134967,862.637995 28.4461438,863.390505 C23.66453,864.563536 22.8691381,864.016677 22.8691381,859.556224 C22.8691381,856.694906 21.2762114,852.130895 19.3293,849.414007 C16.5386555,845.519633 16.356086,843.80689 18.4666711,841.321139 C19.9391341,839.586967 21.9433769,838.651078 22.920579,839.241391 C25.8117001,840.987884 31.7923468,837.897861 31.7923468,834.657589 C31.7923468,830.485251 42.2453075,828.295456 46.3330525,831.611479 C48.4243622,833.307955 53.7237242,833.930292 60.5884156,833.285546 C66.5980408,832.721129 73.368928,833.320412 75.6347998,834.6173 C77.9006929,835.914163 89.2912809,837.203073 100.947217,837.481497 C126.976342,838.103276 136.828412,839.279868 138.614781,841.979993 C141.77379,846.754928 154.332738,850.833672 165.725437,850.784698 C184.452446,850.704182 185.717713,850.95243 185.717713,854.707002 C185.717713,856.817249 186.96195,857.744328 188.845814,857.037728 C190.566284,856.39241 192.570046,856.447093 193.298626,857.159264 C195.667439,859.474616 208.025741,859.950266 208.025741,857.726076 C208.025741,856.536914 209.029595,855.563951 210.256549,855.563951 C211.483477,855.563951 212.487356,858.333325 212.487356,861.718088 C212.487356,868.882823 201.94035,876.748203 186.157481,881.353519 C180.878121,882.894014 175.932667,885.816603 175.167597,887.848183 C174.40254,889.879763 169.747559,897.174311 164.82326,904.058277 L155.869983,916.574597 L159.541453,924.100108 C163.177844,931.553702 163.14992,931.69158 156.618906,938.525343 C152.99218,942.32018 150.024876,947.283729 150.024876,949.555442 C150.024876,952.180138 148.457659,953.685804 145.72568,953.685804 C143.361113,953.685804 138.404045,957.269853 134.709947,961.650336 C128.635046,968.854007 126.967913,969.602944 117.258807,969.489745 C111.354781,969.42093 100.659005,970.405744 93.4904096,971.678237 C83.2480603,973.496325 79.9464048,975.086315 78.0744045,979.102226 C75.5250883,984.571167 74.472974,985.053901 70.5733531,982.543855 Z M516.934698,970.648626 C514.840997,966.340721 513.314615,965.33252 511.30696,966.931306 C507.912405,969.634537 505.031204,964.129808 508.232742,961.057808 C509.536012,959.807269 508.209829,957.127762 504.739138,953.999151 L499.144828,948.956197 L503.929868,944.974079 C506.561648,942.783897 509.823903,940.995568 511.179326,941 C514.83027,941.011956 529.088417,949.671006 531.192329,953.154059 C532.194956,954.813921 533.964081,955.609321 535.123732,954.921633 C536.283396,954.233921 537.232184,954.698529 537.232184,955.954085 C537.232184,958.848171 533.673008,958.86819 528.09843,956.005482 C522.909459,953.34078 522.719925,954.378347 526.958812,962.243788 C530.325876,968.491515 528.320334,976.517721 524.769622,971.004994 C523.426058,968.919066 522.58155,969.265841 521.392811,972.391581 C519.948853,976.188327 519.551612,976.033008 516.934698,970.648626 Z M394.144776,966.973671 C392.615957,964.549348 389.352654,962.548901 386.89303,962.528233 C380.556802,962.474982 361.781936,950.970633 362.87825,947.813113 C363.380709,946.365982 365.128024,945.689773 366.761183,946.310398 C368.394317,946.931036 370.368337,946.416837 371.147859,945.167735 C372.111965,943.622906 374.148526,943.611105 377.516604,945.130813 C380.708906,946.571223 387.006003,946.660229 395.241128,945.381366 C402.266355,944.290374 407.978767,943.991436 407.935632,944.717046 C407.892032,945.442656 406.479748,948.499456 404.797029,951.50994 C402.786444,955.106988 402.429249,958.263504 403.755159,960.716973 C408.46376,969.429811 399.410542,975.32376 394.144776,966.973671 Z M29.4062908,963.634514 C23.9905819,962.813331 23.6841466,962.104565 24.3116253,951.851074 C24.6788452,945.85072 25.461116,940.179294 26.0500592,939.247831 C27.5645575,936.852513 19.8647004,930.843473 16.6309571,931.897097 C13.0054638,933.078384 13.2234991,925.673647 16.9713257,920.337996 C22.3059193,912.743302 27.3977698,885.59481 25.0124231,877.464943 C22.1671234,867.767513 22.2060603,867.580975 27.3497174,866.266182 C29.9130895,865.610936 31.8219303,866.200499 31.827673,867.649231 C31.8331893,869.038044 35.3516978,870.350153 39.6465781,870.565023 C43.9414596,870.779893 47.4554773,870.042908 47.4554773,868.927292 C47.4554773,867.811675 49.8597015,866.898888 52.7982259,866.898888 C60.0924165,866.898888 62.731744,876.542625 57.1017965,882.623486 C54.7711578,885.140765 53.4003252,889.460829 53.7874732,893.068325 C54.1505611,896.451955 53.4714321,899.810112 52.2782673,900.530906 C51.0851025,901.251712 50.6499472,903.863801 51.3112254,906.335563 C52.1977098,909.649148 51.2471768,911.153374 47.6925465,912.061986 L42.8715423,913.294295 L47.1974082,920.460864 C51.0988852,926.924383 51.1951263,928.085367 48.1784792,932.295175 C45.6170505,935.86973 45.437328,937.673833 47.4110428,939.998422 C49.393024,942.332778 49.1230482,944.324823 46.2423181,948.622321 C44.1819917,951.695923 43.0719969,955.677243 43.7756986,957.469702 C44.8326812,960.162087 38.5083914,966.057392 35.8739787,964.835422 C35.4860266,964.655469 32.575584,964.115063 29.4062908,963.634514 Z M543.117135,948.794809 C542.350188,947.578225 537.060431,944.271156 531.362139,941.445816 C523.695648,937.644593 518.038879,936.456703 509.608082,936.87752 C499.562044,937.378987 497.938549,936.852296 495.880599,932.424141 C493.860219,928.076834 494.201066,927.277582 498.417475,926.475576 C502.886479,925.625555 502.916698,925.524733 498.783868,925.253494 C491.070004,924.747259 483.750695,905.421152 491.27281,905.421152 C492.401315,905.421152 493.324623,904.075507 493.324623,902.430818 C493.324623,900.786153 494.808218,898.233373 496.621479,896.758 C498.434729,895.282616 499.372328,893.20934 498.704962,892.150708 C497.667733,890.505339 502.160461,889.278736 506.95074,889.899467 C507.747286,890.002686 509.612928,888.653113 511.096622,886.900399 C512.580328,885.147698 516.66136,883.713683 520.165595,883.713683 C523.669867,883.713683 526.53698,882.73685 526.53698,881.542932 C526.53698,880.349027 528.963045,879.372181 531.928226,879.372181 C534.89342,879.372181 540.045519,878.356055 543.377341,877.114159 C547.864442,875.44159 551.490035,875.628534 557.35996,877.835083 C561.718575,879.473522 568.462228,880.606925 572.345859,880.353782 C576.854254,880.059901 579.858578,881.047246 580.656128,883.08486 C582.753852,888.444267 579.966959,890.013544 572.450868,887.705234 C564.620096,885.300278 563.497428,885.243369 555.321012,886.836586 C552.276541,887.429808 547.792873,888.286475 545.357301,888.74026 C542.921742,889.194059 540.794827,890.935025 540.630855,892.609076 C540.466871,894.283116 540.217076,896.629632 540.075738,897.823537 C539.934411,899.017455 537.383591,900.131797 534.407255,900.299867 C530.474887,900.52193 528.775523,899.335251 528.190112,895.958366 C527.438993,891.625709 527.180114,891.719157 524.363795,897.339747 C522.053188,901.951067 521.953583,903.966668 523.940051,905.914195 C525.368352,907.3145 526.53698,910.218503 526.53698,912.36755 C526.53698,914.516584 528.031531,916.274893 529.858204,916.274893 C531.684889,916.274893 533.179441,917.309388 533.179441,918.573753 C533.179441,919.83813 532.183077,920.268891 530.965279,919.531007 C527.09304,917.184738 523.820936,920.664039 526.70058,924.065765 C528.773837,926.514932 528.462638,927.146867 525.14745,927.219624 C522.062286,927.287329 522.736395,928.259245 527.782295,931.018438 C539.214193,937.269605 543.547733,941.029965 545.188867,946.122666 C546.80831,951.148082 545.59066,952.718619 543.117135,948.794809 Z M414.092974,945.685362 C412.451013,944.076582 416.399751,933.396246 419.281743,931.651106 C420.490972,930.918842 419.441458,924.804187 416.78243,917.08955 C413.273202,906.908231 410.98311,903.491417 407.014349,902.51546 C403.922489,901.755138 401.26452,899.0325 400.428675,895.76957 C399.529444,892.259185 397.46543,890.298508 394.66924,890.298508 C392.272388,890.298508 388.74067,887.949895 386.820995,885.079331 C384.395497,881.452354 380.396121,879.428982 373.711264,878.446807 C365.414363,877.227763 361.755862,874.681571 347.101547,859.927312 C337.756889,850.51895 330.10569,841.481794 330.098862,839.844732 C330.092046,838.207682 329.099688,833.388069 327.893636,829.134525 C326.142461,822.958353 323.616733,820.408748 315.352653,816.47491 L305.004472,811.54903 L296.543009,818.211376 C287.264154,825.517315 285.312394,826.256614 286.151143,822.147671 C286.457191,820.64836 284.822831,819.416211 282.519232,819.409559 C280.215645,819.402907 276.838209,817.194825 275.013793,814.502704 C272.580507,810.912063 272.430299,809.607924 274.450042,809.607924 C276.456452,809.607924 276.285834,808.235939 273.821161,804.550387 C270.718598,799.911029 270.793659,799.275824 274.729201,796.867731 C278.110686,794.798677 278.53715,793.359629 276.742489,790.074088 C273.390473,783.937441 273.657271,783.616184 283.368858,782.094634 C291.405078,780.83558 293.34039,779.16243 292.535758,774.169487 C291.968991,770.6525 296.618904,772.80563 300.777834,777.985939 C305.937632,784.412917 307.826879,784.845355 307.923757,779.621562 C308.019601,774.455177 313.784581,767.070199 314.979643,770.582929 C316.347503,774.603526 325.659627,775.341907 325.659627,771.429786 C325.659627,769.63812 326.661244,768.172217 327.88545,768.172217 C329.109656,768.172217 330.111272,766.595169 330.111272,764.667652 C330.111272,762.289876 331.306434,761.61244 333.828524,762.560686 C335.873025,763.32936 338.258451,762.828493 339.129472,761.447623 C341.79225,757.226258 355.354662,756.744316 358.366552,760.764019 C359.828549,762.71524 364.231026,764.954211 368.149785,765.739489 C374.321654,766.97623 375.382543,768.196205 376.080167,774.858873 C376.810512,781.834074 376.210227,782.795463 369.635681,785.180089 C357.455396,789.597942 356.395217,790.77952 358.875777,797.171911 C360.375716,801.037296 360.361324,803.360034 358.831692,804.286265 C357.48545,805.101489 357.216235,808.463203 358.170627,812.541568 C359.056126,816.325618 359.677842,821.13905 359.552181,823.238086 C359.426532,825.337134 360.2631,827.054539 361.411236,827.054539 C362.55936,827.054539 363.498726,826.064136 363.498726,824.853667 C363.498726,823.643185 367.025024,824.869899 371.334946,827.579704 C377.381964,831.381686 379.953708,835.102731 382.598618,843.877105 C387.250338,859.308812 399.629263,869.411054 411.266107,867.27212 C419.167831,865.819706 421.267157,867.718978 416.703008,872.190839 C414.931611,873.926436 418.138727,876.74046 428.388621,882.44411 C448.869744,893.841047 458.793741,902.423911 455.387173,905.794088 C453.247226,907.911193 452.371969,907.69346 451.22225,904.757893 C450.421667,902.713783 446.720053,899.497738 442.996472,897.611124 C436.511116,894.32521 436.05162,894.397412 432.073725,899.327399 C423.431377,910.038238 423.128169,911.705804 429.123078,915.554373 C435.843858,919.868975 436.438959,926.545741 430.273619,928.46297 C427.825207,929.224372 425.821974,931.287754 425.821974,933.04832 C425.821974,936.773323 419.380054,947 417.033628,947 C416.154247,947 414.830957,946.408404 414.092974,945.685362 Z M300.485493,923.995839 C296.752789,921.331692 296.471655,919.956794 298.556943,914.564297 C300.358518,909.905477 300.294186,905.924501 298.311342,899.369649 C295.646514,890.560129 295.682597,890.460756 302.73892,887.176239 C309.465847,884.045091 310.016,884.119156 312.842184,888.536384 C314.486083,891.105764 316.171873,896.06484 316.588367,899.556561 C317.541509,907.546964 313.341909,923.241124 310.680311,921.635463 C309.583585,920.973876 307.824289,921.936018 306.770744,923.773621 C305.098909,926.689566 304.299213,926.717831 300.485493,923.995839 Z M482.184125,910.063773 C482.15725,908.004403 480.072136,905.222716 477.550542,903.882219 C475.028985,902.541735 473.510397,900.904114 474.175898,900.243055 C474.84141,899.58197 474.46636,897.334332 473.342401,895.248285 C472.218467,893.162224 471.921446,890.837065 472.682328,890.081276 C474.942587,887.836123 475.092396,868.278531 472.882171,863.993726 C470.27082,858.931301 474.466766,853.507823 479.548187,855.377485 C486.852337,858.064976 490.66148,864.619213 489.401495,872.331642 C488.533617,877.643939 489.54472,881.849682 493.040501,887.468088 C495.702921,891.747201 496.878058,895.248285 495.651926,895.248285 C494.42577,895.248285 492.844965,896.967788 492.138991,899.069417 C491.43303,901.171046 488.915374,905.347005 486.544216,908.349327 C483.123536,912.680515 482.2229,913.034659 482.184125,910.063773 Z M587.535896,892.566581 C583.175353,890.933901 580.461393,880.294619 583.882856,878.245916 C584.914494,877.628164 585.235629,875.185228 584.596436,872.817112 C583.132294,867.392575 593.854565,862.511885 598.691536,866.401157 C600.338019,867.72506 602.734461,868.179902 604.016978,867.411954 C605.299494,866.644018 607.424841,868.303757 608.739994,871.100263 C610.055134,873.896769 614.349401,877.619297 618.282803,879.37253 L625.434483,882.560226 L613.443233,883.224329 C604.244248,883.733784 600.326756,885.08419 596.619783,889.023473 C593.198006,892.659692 590.54658,893.69385 587.535896,892.566581 Z M493.584516,884.19537 C491.681301,882.357699 490.124138,878.517957 490.124138,875.662585 C490.124138,869.982983 496.496914,861.397789 499.418663,863.141325 C500.423859,863.741188 501.246305,863.322347 501.246305,862.210598 C501.246305,858.568878 518.385917,859.707284 521.848823,863.579012 C529.298273,871.907884 526.843041,881.160993 517.183586,881.160993 C514.834872,881.160993 511.852592,882.39494 510.556295,883.90309 C507.122366,887.898201 497.589464,888.062356 493.584516,884.19537 Z M557.102693,875.420314 C551.389898,872.737341 548.892482,872.66458 541.685151,874.971153 C532.466158,877.921527 527.612916,876.705267 529.506885,871.919212 C530.150784,870.292014 528.642643,867.122223 526.155431,864.875222 C522.038234,861.155678 521.579753,858.046335 523.418802,846.315971 C523.558879,845.422456 525.181274,844.69141 527.024125,844.69141 C528.866963,844.69141 530.374741,843.229307 530.374741,841.442289 C530.374741,839.655272 529.395382,838.193181 528.198355,838.193181 C527.001329,838.193181 524.446892,835.239577 522.521786,831.629636 C519.495564,825.954885 519.451785,824.648916 522.198505,821.985418 C525.743055,818.548239 528.428127,819.784677 526.73123,824.072735 C525.479921,827.234797 534.917169,829.237632 556.062886,830.297721 C566.258563,830.808845 570.890224,830.015602 575.420223,826.982421 C585.242362,820.405799 593.971051,819.760099 603.025208,824.940341 C607.436163,827.464037 612.495481,829.528871 614.268106,829.528871 C619.028665,829.528871 618.182905,833.180314 613.125275,834.462839 C610.678915,835.083209 608.058079,838.279882 607.164126,841.733776 C606.286692,845.123882 604.230525,849.19531 602.594901,850.781401 C599.26643,854.009025 598.515492,858.60611 601.620731,856.745111 C604.512391,855.012094 606.884299,862.341468 604.256422,864.88973 C602.795862,866.306042 600.965753,866.167152 598.870535,864.480949 C594.565944,861.016677 583.932619,864.994637 582.410574,870.638671 C580.446653,877.92117 567.597166,880.348932 557.102693,875.420314 Z M303.834571,872.16399 C303.701235,870.667857 302.963023,866.321844 302.194055,862.506174 C301.050839,856.833398 301.704314,855.106272 305.778499,853.032638 C310.869558,850.441379 314.633876,852.861731 314.720495,858.782031 C314.856714,868.094975 304.595994,880.708378 303.834571,872.16399 Z M490.603847,861.808025 C490.603847,858.515529 485.666296,854.050992 480.115027,852.323993 C476.663828,851.25033 474.250441,852.318113 471.014546,856.350339 C466.887988,861.492431 466.398477,861.600665 463.237026,858.069964 C458.693237,852.99543 456.15058,844.450567 459.184362,844.450567 C460.495581,844.450567 461.568366,842.914683 461.568366,841.037505 C461.568366,839.160339 462.58056,838.23764 463.817635,838.987051 C465.054749,839.73645 466.669883,838.809441 467.406845,836.927018 C468.143806,835.044583 470.146851,833.504413 471.858073,833.504413 C475.598633,833.504413 475.966588,829.988462 472.449047,827.857582 C470.737464,826.820744 471.137502,825.667788 473.695738,824.264479 C477.135897,822.377435 477.052401,821.849324 472.733444,818.177775 C468.69976,814.748693 468.414488,813.513353 470.794015,809.778655 C473.040185,806.253299 473.012665,804.725363 470.65288,801.938342 C468.694746,799.625715 468.55401,798.476732 470.228897,798.476732 C471.607722,798.476732 472.735857,797.491582 472.735857,796.287512 C472.735857,792.250875 467.864598,794.04608 466.670221,798.522888 C465.753638,801.958374 464.814275,802.397998 462.468081,800.489426 C459.684901,798.225371 449.724978,796.996572 423.598908,795.69401 C414.796378,795.255134 413.462453,795.782884 412.857862,799.943563 C412.437381,802.837222 416.158948,810.291505 422.378499,819.013382 L432.589436,833.332496 L425.344013,832.871159 C417.80294,832.390973 404.099693,820.520987 408.211097,818.030375 C409.361914,817.333237 408.269575,814.958656 405.783707,812.753564 C403.29784,810.54846 401.263925,806.965038 401.263925,804.790405 C401.263925,802.615785 399.306329,799.048919 396.913735,796.864046 C394.145071,794.335749 393.231577,791.832093 394.401061,789.97734 C395.686562,787.938572 396.697493,787.790997 397.766301,789.486091 C400.285339,793.481182 407.56152,792.223667 409.081168,787.530591 C409.860953,785.122437 411.553519,783.152125 412.842433,783.152125 C414.131335,783.152125 414.656805,781.168931 414.010117,778.745006 C412.737594,773.97534 417.659191,770.173582 423.835081,771.155593 C425.80758,771.469242 431.35196,774.275348 436.155852,777.391429 C446.278754,783.957683 459.334875,787.28389 459.334875,783.296573 C459.334875,781.870928 460.366599,781.329512 461.627606,782.093399 C462.888613,782.857286 463.7746,784.639449 463.596479,786.053757 C462.934887,791.306636 463.871649,794.098278 466.295863,794.098278 C467.667561,794.098278 468.292619,792.374257 467.684903,790.26712 C467.077161,788.159996 466.206128,785.089113 465.749275,783.44294 C465.292422,781.796779 466.426234,780.090423 468.268876,779.651049 C482.696931,776.210741 483.571328,776.25899 488.151751,780.748643 C490.728828,783.274635 492.83735,786.787633 492.83735,788.555282 C492.83735,790.322956 495.098761,793.032128 497.862711,794.575661 C500.626674,796.119219 502.888097,799.245067 502.888097,801.521978 C502.888097,803.798914 504.898231,806.754364 507.355078,808.089665 C509.811938,809.424991 512.652395,811.502652 513.66724,812.706735 C514.86263,814.125018 515.911321,813.932284 516.645232,812.159427 C517.268302,810.654326 518.485486,809.422886 519.350155,809.422886 C521.855765,809.422886 521.889511,818.806084 519.394491,821.752801 C517.003123,824.577108 521.768155,836.208041 526.487963,839.067242 C528.001334,839.984011 527.102644,841.764155 524.078178,843.840596 C521.032068,845.931886 519.659983,848.670022 520.354222,851.272144 C521.710203,856.35465 519.427137,857.85113 510.117153,857.982298 C506.141183,858.038308 500.662033,859.449764 497.941281,861.118872 C491.993374,864.767797 490.603847,864.898293 490.603847,861.808025 Z M193.093742,854.039044 C190.45203,849.737235 178.905042,847.015143 165.993309,847.650372 C153.546668,848.262721 139.936085,843.658468 142.444223,839.684109 C143.170442,838.533391 142.279895,837.591875 140.465247,837.591875 C137.602668,837.591875 137.56623,836.50699 140.189979,829.39696 C141.85324,824.889753 144.099302,813.826617 145.181222,804.812216 C146.937871,790.176139 146.315871,785.020359 147.208966,780.647269 C148.28303,775.387901 147.542858,773.936195 142.681191,771.76686 C136.192578,768.871592 129.254637,759.86265 131.172828,756.823179 C131.858012,755.737436 130.284642,753.385337 127.67647,751.596268 C125.068273,749.807199 123.604517,747.281438 124.423637,745.983471 C125.309325,744.580064 124.014658,743.623513 121.229491,743.623513 C118.653572,743.623513 112.534914,741.619546 107.632537,739.170239 C102.730135,736.720945 97.7091236,735.328257 96.4747289,736.075381 C95.0730575,736.923743 94.7533569,735.393108 95.623243,731.99889 C96.6357597,728.048022 95.9036323,725.954246 92.9419532,724.331091 C87.5784304,721.391589 90.3012727,719.020178 99.375607,718.72782 C103.394257,718.598366 107.924868,717.017355 109.443649,715.214482 C111.848369,712.359915 112.745574,712.612206 116.389697,717.16775 C118.883932,720.285838 121.659156,721.742394 123.259908,720.773508 C124.737005,719.879508 129.219048,719.14804 133.220034,719.14804 L140.494502,719.14804 L138.950325,710.078997 C138.101038,705.091022 136.616996,699.174625 135.652423,696.931449 C134.096104,693.311987 134.439114,693.136174 138.699966,695.369339 C141.340654,696.753372 143.501223,698.708866 143.501223,699.714897 C143.501223,702.076148 159.957708,704.675054 164.381802,703.012466 C166.242794,702.313107 167.216386,700.339719 166.545318,698.627165 C165.717379,696.514188 168.562357,694.111091 175.397004,691.150313 C185.360665,686.834065 190.361752,679.502024 190.361752,669.210635 C190.361752,666.946654 193.01357,664.474578 196.845431,663.166414 C202.483284,661.241673 203.48171,661.524431 204.498936,665.33387 C205.374681,668.61352 206.830016,669.353879 210.288263,668.278968 C213.397116,667.312668 214.90774,667.80438 214.90774,669.78268 C214.90774,673.676568 222.221607,679.683048 225.614409,678.575518 C227.089544,678.093966 228.421999,678.765309 228.575397,680.067404 C228.72882,681.369475 229.004088,683.664059 229.187092,685.166453 C229.370108,686.66886 231.365723,687.743087 233.621766,687.55367 C235.877809,687.364228 240.62324,689.739332 244.167167,692.831691 C247.711107,695.924037 253.133202,698.717521 256.216272,699.039439 C259.299354,699.361356 267.270486,702.149033 273.929899,705.234291 C280.589299,708.319561 287.104246,710.843854 288.40752,710.843854 C291.499434,710.843854 291.413353,714.337693 288.175461,720.262658 C286.744496,722.881112 284.419549,729.454352 283.008871,734.869835 C281.491851,740.693512 279.136112,744.756747 277.242629,744.815493 C275.481883,744.870122 274.25246,745.982278 274.510564,747.286947 C274.768681,748.591604 273.011407,751.40363 270.605526,753.535906 C268.199645,755.668183 266.231187,758.630243 266.231187,760.118236 C266.231187,761.606242 264.661314,763.413667 262.742586,764.134726 C260.823844,764.855798 259.90614,766.479152 260.703237,767.742225 C261.500334,769.005286 260.810853,771.699572 259.171077,773.729529 C256.630198,776.875 257.151352,776.818145 262.698103,773.344738 C268.997704,769.399926 269.30234,769.397352 272.190151,773.265026 C274.080012,775.796121 274.394579,778.023952 273.048258,779.342438 C271.701937,780.660923 272.112678,783.677351 274.168716,787.571053 C277.176311,793.266844 277.075402,793.895955 272.794564,796.139629 C269.119423,798.065812 268.711419,799.194669 270.79966,801.658811 C272.243504,803.362561 272.866528,806.181401 272.184143,807.922867 C270.394366,812.490535 278.974432,822.400093 283.308773,820.771255 C286.291197,819.650444 286.438149,820.170049 284.263902,824.148648 C282.850651,826.734745 280.760136,828.850632 279.61833,828.850632 C278.476537,828.850632 274.373405,831.884295 270.500284,835.592086 C266.353968,839.561421 261.963789,841.885067 259.823944,841.242848 C257.825081,840.64296 252.926152,839.08437 248.937419,837.779352 C229.918895,831.556868 229.313546,831.528988 220.293809,836.460506 C214.554424,839.598491 211.304552,843.045597 210.813752,846.51587 C210.402999,849.420167 209.274085,852.606936 208.305027,853.597634 C205.405673,856.561746 194.831391,856.868579 193.093742,854.039044 Z M447.774985,847.521738 C443.196139,844.343492 439.449826,840.048451 439.449826,837.977232 C439.449826,835.905988 438.165016,833.730384 436.594679,833.142524 C432.221806,831.505511 414.951724,805.927791 414.951724,801.088386 C414.951724,795.800569 416.891469,795.641945 420.7599,800.613418 C423.360501,803.955517 423.727029,803.991668 423.789303,800.912181 C423.84118,798.346423 425.499225,797.63321 429.984653,798.247267 C433.353143,798.708438 441.006312,799.542665 446.991724,800.101112 C452.97711,800.659571 459.228064,802.212586 460.882718,803.55227 C462.537384,804.891928 465.407243,805.420492 467.260215,804.726826 C469.325008,803.953861 470.629204,804.700838 470.629204,806.656409 C470.629204,808.411345 469.627017,809.847217 468.402125,809.847217 C467.177208,809.847217 466.17502,811.802615 466.17502,814.19254 C466.17502,816.582453 467.145765,818.53785 468.332233,818.53785 C469.518675,818.53785 469.907657,820.016846 469.196606,821.8245 C468.485556,823.632166 469.140815,826.565257 470.652755,828.342472 C472.936761,831.027267 472.614019,831.573795 468.744702,831.573795 C465.316082,831.573795 464.462817,832.527441 465.509825,835.18919 C466.398522,837.448495 466.046008,838.270432 464.569998,837.380508 C461.390438,835.463486 454.747835,845.68545 456.416465,849.92755 C458.195693,854.450809 457.464146,854.247145 447.774985,847.521738 Z M541.514682,826.308882 C539.946209,825.333965 536.350839,824.521272 533.524969,824.502927 C530.579305,824.483789 528.990229,823.513548 529.800699,822.228982 C530.578197,820.996695 528.884972,818.08678 526.037976,815.762513 C523.080603,813.348137 522.110242,811.505518 523.774406,811.464079 C525.376436,811.424189 526.110025,810.476808 525.4046,809.358769 C524.699214,808.240705 521.170162,807.408167 517.562311,807.508646 C509.923398,807.721401 503.456742,803.285636 505.140363,798.987908 C505.83008,797.227251 504.044851,794.990181 500.791312,793.538082 C497.755837,792.1833 495.27226,789.319326 495.27226,787.173706 C495.27226,785.028073 493.519954,782.186028 491.378233,780.858062 C489.236512,779.530109 488.485522,777.994771 489.709361,777.446232 C499.740768,772.950051 502.950585,770.338957 504.249075,765.618609 C505.842362,759.826661 519.749037,737.295159 519.749037,740.505683 C519.749037,741.548781 522.053004,740.282 524.868958,737.690615 C528.996906,733.891924 531.26029,733.334319 536.551065,734.812676 C540.160261,735.821168 545.563406,736.275801 548.558086,735.822979 C551.661648,735.353673 554.749466,736.306375 555.739085,738.038555 C557.215479,740.622795 559.064323,740.581033 568.095536,737.759566 C573.936702,735.934721 580.296655,733.119257 582.228783,731.502987 C588.118927,726.575751 590.026902,727.973548 599.787967,744.366886 C607.614735,757.51166 609.320467,762.455901 609.929851,773.764083 C610.332782,781.241115 611.302196,789.333119 612.084091,791.746317 C613.653187,796.588962 621.823917,797.718511 625.962216,793.664832 C628.718828,790.964583 635.457471,792.557832 635.457471,795.909828 C635.457471,799.454585 627.965907,805.723889 627.02701,802.964836 C626.564426,801.605464 625.426562,800.493243 624.498428,800.493243 C622.44673,800.493243 617.656171,815.549473 617.656171,821.997857 C617.656171,825.196102 616.265863,826.649218 613.205836,826.649218 C610.758159,826.649218 608.755527,825.744442 608.755527,824.638583 C608.755527,821.442236 593.505081,817.377903 587.266529,818.911665 C584.144469,819.679235 579.009176,821.963699 575.854816,823.988262 C569.744266,827.910193 546.606439,829.473773 541.514682,826.308882 Z M698.138808,811.908344 C696.823922,811.429134 696.162999,808.269463 696.670079,804.886861 C697.42757,799.833832 696.286876,797.927592 690.276075,794.201489 L682.960102,789.666342 L691.264747,785.789066 C702.614503,780.490047 701.279552,775.509843 688.260812,774.582512 C682.756941,774.19045 676.778238,773.370731 674.974827,772.760888 C672.094843,771.786992 672.093546,771.411486 674.963965,769.674588 C677.737854,767.996144 677.58658,767.234979 673.963659,764.641304 C671.616008,762.960639 668.112487,761.881353 666.178004,762.24291 C652.80817,764.741755 650.409105,765.755762 650.409105,768.907974 C650.409105,775.669059 630.680607,790.626871 618.747742,792.913073 C614.287959,793.767529 615.133101,791.007429 623.67823,776.810621 C628.969312,768.020072 632.588517,765.083357 632.588517,769.580565 C632.588517,770.711206 634.728967,771.232686 637.345086,770.739428 C642.881154,769.695612 645.775852,767.524865 641.631747,767.524865 C640.071314,767.524865 639.343453,766.124492 640.014289,764.412912 C640.685112,762.70137 639.789979,760.127651 638.02505,758.693547 C636.260121,757.259455 634.816095,753.752735 634.816095,750.900846 C634.816095,747.590312 633.520687,745.715545 631.23324,745.715545 C628.6053,745.715545 627.993647,744.376518 628.938324,740.691457 C629.783728,737.393582 628.898695,734.583542 626.362459,732.512961 C614.466654,722.801299 589.471616,719.507544 583.397878,726.851268 C578.32037,732.990408 557.487392,739.580227 555.906683,735.547186 C555.250948,733.874165 552.079528,732.804163 548.562215,733.069191 C538.410876,733.834129 524.08099,730.398223 520.282118,726.288411 C515.585742,721.207644 519.492742,708.131474 525.079987,710.230599 C527.932486,711.302278 528.299316,710.54548 526.994256,706.28138 C526.106305,703.380159 525.193376,699.95371 524.965512,698.667056 C524.456674,695.793734 540.383617,678.106637 543.479818,678.106637 C544.70815,678.106637 545.865853,676.879864 546.052454,675.380467 C546.23908,673.881083 546.546527,671.18218 546.735685,669.382906 C546.924842,667.583646 545.453769,663.657956 543.466675,660.659176 C539.863132,655.221072 539.876662,647.573586 543.489832,647.573586 C544.537636,647.573586 546.985085,646.016766 548.928534,644.113989 C554.734228,638.429857 591.005787,639.914932 595.037175,646.001811 C595.824356,647.190335 601.003583,648.275541 606.546572,648.413398 C612.089561,648.551254 617.367725,649.391612 618.275852,650.280817 C619.183967,651.170048 621.20811,650.856606 622.77398,649.584249 C624.787436,647.9482 626.991745,647.989117 630.302692,649.724004 C632.877609,651.073196 636.832619,651.602767 639.091571,650.900813 C641.646886,650.106759 643.692876,650.885151 644.506456,652.960919 C646.842511,658.921112 650.409105,656.486144 650.409105,648.93108 C650.409105,639.448133 654.77621,636.078785 667.61759,635.654244 C673.313199,635.465963 678.335017,634.249292 678.777191,632.950537 C679.219389,631.65177 681.424783,631.0612 683.6781,631.638119 C685.931391,632.215024 688.365447,631.75175 689.087049,630.608611 C691.61988,626.596222 701.782978,630.607259 705.127369,636.939185 C706.949535,640.389065 707.585854,643.211715 706.541417,643.211715 C705.496968,643.211715 705.083812,646.155976 705.623264,649.754522 C706.547765,655.921711 708.987694,657.420102 716.579155,656.482656 C719.697041,656.097631 727.398599,666.703127 725.412902,668.647257 C724.677471,669.367294 725.103945,671.837371 726.360621,674.136344 C727.914134,676.978329 730.030255,677.885952 732.97179,676.9719 C735.535173,676.17534 738.725298,677.024832 740.800493,679.056567 C743.929664,682.12023 744.812528,682.136128 749.085809,679.205656 C755.899902,674.532812 758.081429,675.066902 762.570403,682.506981 C764.754337,686.126663 767.458044,688.533434 768.578661,687.855357 C771.138589,686.306355 791.310295,693.216379 797.437254,697.741202 C801.848915,700.999251 801.872421,701.291607 798.055429,705.429096 C794.064506,709.755113 792.9031,716.584964 795.4697,720.634821 C796.879858,722.859877 796.427359,728.537034 794.434691,733.621163 C793.742768,735.386494 791.092569,736.03486 787.396299,735.343069 C782.759031,734.475173 780.046171,735.757247 774.941352,741.229295 C771.351839,745.077008 768.910475,749.010057 769.516055,749.969382 C770.121648,750.928732 766.098677,752.952252 760.576114,754.466095 C755.053563,755.979925 750.000571,758.065336 749.34723,759.100291 C748.693914,760.135284 746.682728,760.98207 744.87792,760.98207 C743.073137,760.98207 737.869657,762.610834 733.314628,764.601566 C728.759637,766.592272 724.361282,768.309759 723.540569,768.418203 C719.93018,768.895191 710.553564,778.737326 710.553564,782.049982 C710.553564,784.05712 711.166253,785.099447 711.915101,784.366292 C712.663949,783.633125 715.786362,785.953444 718.853795,789.522553 C722.985554,794.330075 725.663524,795.666918 729.187021,794.680898 C731.80284,793.948872 735.697283,792.870989 737.841325,792.285582 C740.270692,791.622249 741.739583,792.421316 741.739583,794.406214 C741.739583,798.538838 736.116287,800.582289 729.331673,798.915114 C725.567754,797.990203 723.549684,798.643409 722.587649,801.097986 C721.832566,803.024492 719.68613,804.600722 717.817787,804.600722 C715.949432,804.600722 711.29523,806.440988 707.475121,808.690182 C703.655037,810.9394 699.453682,812.387566 698.138808,811.908344 Z M383.256889,784.018709 C377.578255,773.900727 378.98805,769.312043 387.902631,768.897641 C395.873329,768.527111 410.537188,765.416011 416.952153,762.734469 C423.727992,759.902045 423.599962,765.908322 416.802245,769.766105 C411.961627,772.51321 410.423481,774.712624 411.334008,777.585209 C412.217859,780.373625 411.251306,781.932842 408.137143,782.742278 C405.444704,783.442078 404.144832,785.123689 404.86151,786.979913 C406.266494,790.619036 404.597004,790.865798 398.937897,787.855537 C396.170943,786.383701 394.34473,786.383701 393.429528,787.855537 C390.980235,791.794516 386.718977,790.187303 383.256889,784.018709 Z M612.748078,784.166052 C612.571661,781.989842 612.221602,774.943269 611.970096,768.507031 C611.718614,762.070793 610.623987,756.165258 609.537633,755.383635 C607.488064,753.909019 605.927303,751.525153 596.794923,735.920473 L591.356322,726.627393 L596.74892,725.28334 C602.385552,723.878486 615.271314,727.989929 615.271314,731.193268 C615.271314,732.212544 616.758046,732.479955 618.575159,731.787523 C620.392247,731.095065 621.878979,731.618089 621.878979,732.949771 C621.878979,734.281465 623.365698,735.371013 625.182811,735.371013 C629.079269,735.371013 629.457527,737.906451 626.063822,741.276547 C624.301787,743.026329 624.84317,744.876293 628.048955,748.059767 C630.473305,750.467256 633.117091,754.502701 633.924023,757.027423 C634.730944,759.552145 636.284406,761.617817 637.376148,761.617817 C638.467902,761.617817 638.793351,763.087206 638.099373,764.88309 C637.261479,767.051408 635.127931,767.722271 631.748677,766.880033 C627.382768,765.791891 626.042664,766.997017 622.316396,775.362278 C617.434245,786.322396 613.235937,790.185247 612.748078,784.166052 Z M442.305076,778.532345 C428.654166,771.867021 423.497105,764.64995 425.332814,754.780383 C426.142107,750.429288 427.670615,746.537139 428.729455,746.131132 C429.78832,745.725124 430.087139,744.487149 429.393503,743.380098 C428.699891,742.273035 429.59023,741.367241 431.372021,741.367241 C433.153836,741.367241 435.242027,739.746891 436.012451,737.766433 C437.288189,734.487072 437.759482,734.474711 441.291862,737.62807 C446.105202,741.924912 464.093638,740.305564 464.093638,735.5754 C464.093638,733.830401 466.439358,732.563947 469.671445,732.563947 C472.739228,732.563947 475.249238,731.666306 475.249238,730.569174 C475.249238,729.472042 477.139803,729.062064 479.4505,729.65812 C482.034252,730.32461 484.846692,729.059034 486.755441,726.37092 C488.90753,723.340106 492.407799,722 498.172004,722 C502.744115,722 506.484914,722.891329 506.484914,723.980746 C506.484914,725.070151 508.841312,725.96148 511.721335,725.96148 C514.601345,725.96148 519.320674,727.983004 522.208715,730.45378 C527.447497,734.935648 527.448708,734.948898 522.736724,736.164367 C517.806704,737.436093 502.022676,760.420962 502.022676,766.328348 C502.022676,770.930681 499.278243,772.287231 485.721069,774.386039 C467.782279,777.163171 460.931607,778.864275 458.627392,781.113718 C455.53955,784.128139 452.915644,783.713177 442.305076,778.532345 Z M273.873571,774.354667 C271.939567,769.803359 270.022213,768.322131 267.046648,769.080636 C261.993269,770.368801 259.360194,767.130648 264.03817,765.38081 C265.880288,764.691745 267.387494,762.806248 267.387494,761.190802 C267.387494,759.575331 270.244132,755.585797 273.735584,752.32514 C279.847651,746.617088 284.868243,745.148516 304.468991,743.335307 C313.248389,742.523176 313.548267,742.713766 314.042496,749.420237 C314.582437,756.747427 320.246463,762.623528 325.040669,760.830224 C329.176672,759.283124 328.574407,761.155118 323.273913,766.321949 C319.552035,769.949948 317.998716,770.318371 315.374624,768.195522 C313.57813,766.742145 311.880475,765.938954 311.602066,766.410636 C311.32367,766.882293 310.015169,769.176136 308.694296,771.508014 C305.248882,777.590582 300.911463,778.299988 299.493094,773.012928 C298.502013,769.318659 297.478069,768.879789 294.037536,770.674684 C291.708015,771.889965 289.802042,774.212915 289.802042,775.83679 C289.802042,777.460691 286.823215,779.215489 283.182445,779.736382 C277.573918,780.538765 276.152086,779.716775 273.873571,774.354667 Z M374.648676,765.249931 C365.547244,763.341149 361.826926,761.422266 360.183627,757.789122 C358.765009,754.652734 356.766944,753.369897 354.614174,754.213285 C352.767733,754.93667 349.022373,755.791136 346.291116,756.112064 C343.559872,756.432993 339.906724,757.843771 338.172972,759.247081 C335.72602,761.227672 334.28786,761.083818 331.745367,758.60416 C329.632829,756.543835 327.704016,756.156822 326.31241,757.514039 C322.786393,760.95291 316.726437,757.238844 316.726437,751.638871 C316.726437,746.055057 318.198893,745.352814 323.303397,748.502148 C325.082817,749.600009 327.589057,749.844443 328.872837,749.045329 C330.156617,748.246229 333.713239,747.438733 336.776453,747.250926 C339.839641,747.063094 346.742223,745.673446 352.115542,744.162793 C359.475166,742.093727 362.884442,742.024786 365.935882,743.883358 C371.280855,747.13886 373.035633,743.953906 370.077638,736.365997 C368.098991,731.290437 368.375277,729.802212 371.73251,727.451546 C373.949045,725.899586 377.549341,723.16428 379.733176,721.373116 C382.612627,719.011385 384.837019,718.707926 387.827513,720.268826 C391.034731,721.942843 393.248135,721.249008 397.786424,717.147014 C403.30144,712.162167 404.094493,712.035512 412.240548,714.838583 C416.980969,716.469759 422.677553,717.647639 424.899625,717.456061 C427.790973,717.206806 429.481051,719.270049 430.843499,724.712309 C433.993424,737.29456 433.865957,738.483728 429.229246,739.770867 C426.77869,740.451127 424.673448,742.229878 424.550919,743.723617 C424.428377,745.217368 424.17777,748.849437 423.99397,751.79489 C423.533485,759.174715 416.747521,762.406924 392.470908,766.809569 C389.40772,767.36509 381.387698,766.663243 374.648676,765.249931 Z M320.528308,743.980707 C316.94216,741.641492 312.759526,740.188434 311.23357,740.751672 C309.707614,741.31491 308.459101,740.919362 308.459101,739.872656 C308.459101,737.7444 299.543061,738.186294 289.905014,740.792248 C283.640457,742.486063 283.579523,742.412536 285.181832,735.093246 C286.074623,731.015017 288.630756,724.118716 290.862155,719.768128 L294.919231,711.857971 L281.15808,706.517616 C269.32258,701.924577 267.396917,700.398964 267.396917,695.61528 C267.396917,692.55619 266.172173,688.59123 264.675255,686.804286 C262.633776,684.367231 262.587616,682.929688 264.490641,681.052046 C266.393691,679.174365 266.072063,676.457748 263.203672,670.181587 C260.310828,663.851951 259.914972,660.42503 261.578078,656.109037 C262.78724,652.971112 263.259871,648.454279 262.628383,646.071633 C261.771725,642.83947 262.83914,641.403061 266.832525,640.414142 C273.638239,638.728778 278.987043,628.502835 274.042158,626.630588 C269.8304,625.035948 269.717802,621.463768 273.879288,621.463768 C277.840206,621.463768 280.425103,610.42532 278.494805,601.753865 C277.082353,595.408777 277.304243,595.183885 284.977164,595.183885 C289.346872,595.183885 292.672351,595.923014 292.367162,596.82638 C291.732692,598.704384 293.662369,599.563872 298.513282,599.563872 C300.975554,599.563872 301.519792,598.128423 300.531165,594.241886 C299.329583,589.518169 299.761484,589.068523 304.373124,590.241932 C307.230804,590.969059 310.567702,592.771705 311.788469,594.247806 C313.009236,595.723894 316.505077,597.57093 319.55699,598.352305 C324.62102,599.648864 324.727504,599.541465 320.775446,597.12324 C315.214021,593.720272 304.961248,581.685627 305.68462,579.409744 C305.989809,578.449563 304.991006,577.634004 303.46505,577.597378 C301.918406,577.560254 302.402692,576.546697 304.559415,575.307077 C308.181161,573.22538 308.193214,572.729512 304.74813,567.541706 L301.067998,562 L309.757601,563.527644 C320.409684,565.40029 324.120929,568.293134 319.538439,571.151658 C316.557562,573.011094 317.9722,574.222461 322.331458,573.543326 C323.247037,573.400697 323.996142,574.10199 323.996142,575.101764 C323.996142,576.101537 327.491983,576.805099 331.764663,576.665224 C339.617464,576.408143 342.212251,578.97706 336.34396,581.198919 C334.589901,581.863062 333.60289,583.556752 334.150619,584.962678 C335.263958,587.820442 346.191906,589.137015 346.191906,586.413369 C346.191906,584.487498 362.784073,575.473982 366.32928,575.473982 C367.563491,575.473982 370.680425,577.410895 373.255792,579.778224 C375.831146,582.145566 378.82958,583.538968 379.91895,582.874675 C386.80672,578.674542 394.393994,598.935819 389.459223,608.351374 C386.642558,613.725639 386.724614,614.733126 390.234272,617.867001 C392.39317,619.794716 395.298924,626.073718 396.691482,631.820326 C402.18898,654.506208 402.224118,655.968065 397.386799,660.740908 C394.865743,663.228372 391.151093,665.263573 389.132079,665.263573 C387.113039,665.263573 379.038374,668.807501 371.188368,673.138948 C358.060258,680.38273 357.031026,681.480443 358.354637,686.826382 C359.146125,690.023028 364.973463,697.882226 371.304296,704.291271 L382.814938,715.944101 L374.373156,723.003955 C366.649528,729.463209 366.13029,730.579952 368.269319,736.131079 C371.388763,744.226423 371.280328,744.555074 366.468604,741.590136 C363.297621,739.636225 360.054025,739.68727 352.596235,741.808385 C347.242696,743.331044 340.365525,744.731737 337.313613,744.921061 C334.261676,745.110361 330.703547,745.933185 329.406626,746.749553 C328.109717,747.565897 324.114468,746.319922 320.528308,743.980707 Z M438.811976,734.169936 C430.767166,726.685897 431.128607,717.012229 439.495415,715.878204 C445.740835,715.031734 452.835946,709.566767 452.835946,705.602773 C452.835946,704.164165 455.337283,701.855262 458.394493,700.471818 C462.529528,698.600645 463.953039,698.597529 463.953039,700.459629 C463.953039,701.912801 465.644478,701.442451 467.985551,699.33832 C471.096182,696.542505 472.621121,696.312828 474.655804,698.333609 C476.10656,699.774441 477.29357,702.245116 477.29357,703.823984 C477.29357,707.593849 481.777563,707.361407 487.168066,703.312128 C492.845106,699.04761 504.201114,699.195736 513.621291,703.65716 L521.195402,707.244306 L517.58771,715.779851 C514.141291,723.933823 510.076928,726.598891 507.472009,722.412872 C506.805448,721.341763 502.245617,720.410361 497.338994,720.343121 C490.569055,720.250335 487.834988,721.30257 486.000511,724.706896 C484.425498,727.629663 482.100557,728.807933 479.328839,728.088064 C476.988973,727.480357 474.51426,727.883555 473.829427,728.984068 C473.144594,730.084568 470.141976,730.984971 467.156946,730.984971 C463.814955,730.984971 461.729613,732.257647 461.729613,734.297277 C461.729613,736.119054 459.978678,737.623155 457.838633,737.639742 C455.698588,737.656316 451.946576,738.188968 449.500801,738.823378 C446.619502,739.570754 442.856449,737.9325 438.811976,734.169936 Z M375.8224,706.285578 C367.909384,698.699642 360.861327,690.05516 360.16002,687.075635 C359.03995,682.316887 360.30632,680.885629 370.577012,675.302327 C385.546561,667.164694 405.734241,662.216654 405.734241,666.685281 C405.734241,668.365488 406.484664,669.580253 407.401824,669.384746 C410.771568,668.666472 421.235397,672.420241 420.239784,673.990234 C419.674472,674.881683 421.532318,677.735482 424.368314,680.332046 C428.937277,684.515262 429.846397,684.675292 432.348717,681.73683 C434.849719,678.799884 436.477409,679.099537 446.578948,684.356773 C462.883151,692.842076 464.624009,695.747615 455.761707,699.682931 C452.70448,701.040488 450.203105,703.47003 450.203105,705.081899 C450.203105,708.782472 440.324441,714.080561 437.074449,712.123008 C435.734966,711.316198 434.639005,711.674644 434.639005,712.919595 C434.639005,715.683872 418.459358,714.437996 409.1355,710.955741 C403.958781,709.022369 402.036361,709.102347 400.24172,711.32573 C392.379325,721.066464 390.928144,720.766947 375.8224,706.285578 Z M515.710263,702.748339 C505.321362,696.853929 493.186556,696.169648 486.031289,701.074737 C481.268369,704.33981 480.735797,704.214745 476.39314,698.811434 C472.853072,694.406728 471.109063,693.650445 468.805957,695.521201 C466.51035,697.385826 465.139096,696.853544 462.904958,693.230629 C459.293166,687.373717 428.651351,671.63671 430.616059,676.647723 C432.680263,681.912478 428.712583,682.720595 424.28882,677.9364 C421.365449,674.774857 421.107759,673.625431 423.322373,673.625431 C428.09465,673.625431 422.634301,669.320991 416.37256,668.146828 C413.398188,667.589089 409.851145,665.648998 408.490272,663.835474 C407.129386,662.021987 405.073478,660.538191 403.921576,660.538191 C402.769674,660.538191 401.827193,657.267632 401.827193,653.270267 C401.827193,641.687849 396.144061,621.656394 391.755106,617.768989 C388.138099,614.565293 388.052302,613.592021 390.909937,608.183534 C393.186868,603.874166 393.52383,600.229802 392.095923,595.356998 C389.818693,587.585638 390.445209,587.060841 409.121603,581.095595 C415.462441,579.070345 421.713203,576.15996 423.012184,574.62808 C426.429626,570.597972 448.702243,563.623943 453.000323,565.238166 C455.008472,565.992364 456.651526,568.50731 456.651526,570.826939 C456.651526,575.81715 468.509916,580.685089 474.143319,578.007469 C479.254006,575.578278 529.768145,576.317334 532.12179,578.855739 C534.247001,581.147776 541.339514,608.066487 541.339514,613.840425 C541.339514,615.855634 538.636792,619.955957 535.333467,622.952233 C529.377961,628.354141 529.365036,628.429831 533.796745,631.94203 C537.133531,634.586496 538.20379,637.912861 538.020344,645.068864 C537.876996,650.661237 539.60551,658.27541 542.170036,663.348484 C545.979933,670.885118 546.131778,672.366568 543.310048,674.470251 C541.519591,675.805088 535.761541,681.497466 530.51438,687.119951 C522.138894,696.094567 521.287038,697.914955 523.537158,702.029912 C527.0646,708.480745 525.987816,708.579571 515.710263,702.748339 Z M245.59738,693.260881 C243.029892,690.543558 240.929238,686.495303 240.929238,684.264757 C240.929238,680.475401 240.663256,680.448568 236.876516,683.855908 C232.57472,687.726728 229.677422,688.580688 230.111057,685.849999 C230.922602,680.739566 229.174449,678.225884 223.422267,676.232131 C219.887764,675.007038 216.467371,671.995081 215.821358,669.538863 C214.939361,666.185477 213.503936,665.433657 210.059016,666.520774 C206.562264,667.624267 205.471264,667.011288 205.471264,663.943183 C205.471264,658.220786 213.342337,653.76723 218.554304,656.540613 C221.573081,658.146971 224.95746,657.619443 231.245974,654.562296 C236.13798,652.184069 240.158956,651.326034 240.607603,652.564606 C241.040172,653.758703 243.78262,655.638617 246.701939,656.742185 C250.3673,658.127786 252.009854,660.47024 252.009854,664.31187 C252.009854,667.728527 253.262353,669.875013 255.256068,669.875013 C259.751719,669.875013 263.285192,677.032476 260.753644,681.010966 C259.63849,682.763524 258.680481,683.205864 258.624742,681.993974 C258.569027,680.782072 257.495693,681.545741 256.239559,683.691024 C254.983424,685.836294 254.544838,689.437194 255.264939,691.692993 C257.255279,697.928172 250.970376,698.947468 245.59738,693.260881 Z M257.645868,691.529249 C257.399722,687.938178 258.002289,685 258.984915,685 C262.3135,685 265.642538,690.961869 264.30318,694.524324 C262.118764,700.334527 258.126288,698.538334 257.645868,691.529249 Z M84.1245404,675.123668 C95.8155565,659.810579 99.1918773,657.163254 107.081143,657.123765 C114.518553,657.086514 118.165699,654.334295 123.066336,645.06087 C125.059166,641.28982 124.977446,641.165453 122.472333,644.157149 C120.874682,646.065119 117.231984,648.848542 114.377428,650.342518 C110.003203,652.63186 108.760514,652.48546 106.472189,649.411164 C104.978847,647.404918 102.306705,646.006532 100.534078,646.303587 C98.7614631,646.60068 95.545716,646.086556 93.3879311,645.1611 C91.0831045,644.172589 88.099261,644.591722 86.1546101,646.177181 C84.3340387,647.661464 82.7700837,648.509434 82.6791218,648.061561 C80.7125278,638.378758 80.8924705,637.964726 87.9126414,636.019556 C92.8257563,634.658233 96.3103721,631.636541 98.9734806,626.428174 C101.258616,621.959013 101.941041,618.521945 100.628842,618.090918 C99.4008922,617.687573 98.9623546,616.457733 99.6542493,615.357945 C100.346194,614.258145 99.3156591,613.358293 97.3641805,613.358293 C94.5057622,613.358293 94.2791175,612.50832 96.1983393,608.985529 C98.7703838,604.264339 110.388615,602.822245 112.957395,606.905318 C113.946852,608.478024 115.366237,608.409856 117.477978,606.688187 C120.08725,604.560847 120.045362,603.67666 117.203004,600.884428 C115.156499,598.874001 114.603126,596.615576 115.783008,595.088979 C119.036656,590.879175 117.736717,579.469328 114.003429,579.469328 C106.969522,579.469328 105.571404,569.168376 111.777799,563.071443 C116.229059,558.698679 116.229059,558.698679 110.664971,558.698679 C107.604727,558.698679 105.100884,559.577293 105.100884,560.65114 C105.100884,563.875183 98.0689579,565.503826 94.9893645,562.993061 C92.849861,561.248748 91.9299388,561.616932 91.3766,564.439011 C90.6734323,568.025267 90.4298582,568.024396 86.7631218,564.422277 C83.0853902,560.809372 83.1123643,560.195081 87.3029723,552.125667 C90.1363863,546.669675 90.8915,543.132627 89.4143231,542.235774 C88.1495387,541.46789 87.7718031,538.80581 88.574902,536.320089 C89.684738,532.884975 89.2375188,532.101241 86.7109976,533.053658 C84.8827477,533.742848 82.2633284,533.202982 80.8900659,531.853939 C79.044702,530.041098 78.3524161,530.228294 78.2367951,532.571384 C78.1420943,534.490614 77.3774992,534.016078 76.2992222,531.368866 C75.1262669,528.489244 75.9717855,524.009806 78.7753549,518.250562 L83.0326655,509.505023 L77.5911377,515.833159 C74.0829989,519.912885 70.8864501,521.685154 68.5945113,520.82116 C63.8354091,519.027118 64.0617784,515.014314 68.9342776,514.798365 C71.0765857,514.703436 71.6256285,514.14538 70.1544607,513.558137 C68.1727088,512.767112 68.460974,510.404613 71.2672794,504.438627 C73.3504089,500.010075 76.0563159,495.663874 77.2804161,494.780396 C78.5372341,493.873316 77.8106307,493.159529 75.6111887,493.140605 C69.799828,493.090677 70.2433742,480.742733 76.1223731,478.909736 C78.5457126,478.15417 80.3434936,476.858016 80.1174359,476.029417 C79.8913793,475.200819 80.9110758,471.079314 82.3834248,466.870518 L85.0604203,459.218172 L99.5319127,459.015349 C116.437775,458.778386 117.916951,461.232791 106.171986,470.033099 C101.864716,473.260489 98.9017283,476.793033 99.5875678,477.883192 C100.273432,478.973362 99.175481,482.352788 97.1476776,485.393019 C93.009818,491.596801 94.6705595,492.248679 102.875242,487.641179 C108.879835,484.269181 130.813218,483.197125 132.692222,486.18377 C134.97479,489.811928 123.235942,513.86211 117.477093,517.356135 C109.268137,522.336671 107.653218,524.497131 113.447028,522.747605 C121.90255,520.194339 118.988053,524.835008 110.168436,527.967966 C102.184232,530.804191 102.074304,530.981285 107.152534,532.826723 C110.051258,533.880104 114.11206,534.215318 116.176568,533.571627 C121.379901,531.949267 134.470082,541.145379 136.382613,547.766751 C137.250942,550.773029 139.08518,557.296572 140.458678,562.26351 C142.359809,569.138429 144.567946,571.950244 149.708298,574.04189 C159.365456,577.971483 161.276567,582.716226 155.852608,589.296392 L151.384204,594.717311 L158.118668,597.416778 C166.461684,600.761044 169.171515,607.831732 164.184785,613.244838 C160.813373,616.904499 160.836111,617.298773 164.49812,618.679231 C166.66979,619.497877 168.799571,619.127515 169.230932,617.856194 C170.356157,614.540096 181.146065,615.133747 186.049344,618.781551 C192.457626,623.548975 189.282222,636.365184 180.599968,640.775782 C176.942531,642.633749 174.477859,644.99279 175.122895,646.018077 C175.767918,647.043378 174.735677,648.470343 172.828952,649.189094 C167.434085,651.222811 171.375702,654.899604 178.950773,654.899604 C184.865349,654.899604 185.388335,655.350027 182.897338,658.298563 C177.79865,664.333724 171.020467,666.753616 158.516165,667.002859 C133.884626,667.493854 129.321558,668.020097 130.69984,670.210902 C132.241375,672.661139 125.581778,672.129124 121.216835,669.45332 C116.866021,666.786188 110.483716,669.73628 107.721769,675.691167 C105.528894,680.419126 104.552295,680.796916 99.9027846,678.715846 C95.7744662,676.868031 93.0566445,677.116515 87.7148049,679.830166 C77.6865736,684.924505 77.1644612,684.24008 84.1245404,675.123668 Z M252.265555,655.724768 C249.236179,654.404416 245.574281,652.199117 244.128,650.824128 C242.681719,649.449139 238.716,648.695606 235.315288,649.149605 L229.132177,649.97506 L235.462105,647.004148 L241.792034,644.033223 L235.158074,642.712472 L228.524138,641.391721 L233.785313,631.046948 C236.67896,625.357319 239.046475,619.389061 239.046475,617.784152 C239.046475,616.179231 240.097432,614.86613 241.381935,614.86613 C242.741426,614.86613 243.280545,617.625368 242.67205,621.468824 C241.299486,630.138126 248.255066,634.719201 254.393839,629.189006 C257.673671,626.234317 257.927518,624.691309 255.862949,620.258758 C254.490249,617.311633 252.623558,614.89265 251.714756,614.88324 C248.15477,614.846374 250.174976,604.168009 253.917941,603.237709 C272.988758,598.4976 283.540781,608.126168 271.543365,619.320633 C266.936997,623.618736 266.853068,624.141912 270.357332,626.714112 C273.692726,629.162336 273.762299,630.00253 270.959512,633.985811 C269.216612,636.462839 265.267062,639.119953 262.182715,639.890558 C257.476397,641.066391 256.935181,641.961872 258.816265,645.460678 C260.04903,647.753649 260.318737,651.541244 259.415584,653.877571 C258.017021,657.495512 256.956715,657.769436 252.265555,655.724768 Z M645.895478,652.069124 C645.198502,650.273051 641.71254,648.609511 638.14889,648.372357 C634.58524,648.135227 624.29488,647.50186 615.281448,646.964889 C606.268029,646.427905 598.270619,645.042836 597.509461,643.886919 C593.539142,637.857726 554.793344,636.569536 548.384261,642.253669 C543.404349,646.670288 539.448281,645.028143 541.005891,639.190937 C541.732999,636.466041 540.537028,634.196489 537.54781,632.628713 C532.626348,630.047488 533.345,623.76724 538.56183,623.76724 C543.252169,623.76724 544.666703,614.120976 541.733435,602.138322 C538.693415,589.71954 539.777338,586.644457 546.732125,587.957028 C552.803483,589.102886 559.939712,587.084945 558.407596,584.655506 C557.355286,582.986886 567.542328,579.109877 571.053672,579.842637 C571.92607,580.024688 572.107835,578.814954 571.457593,577.15435 C570.807364,575.493771 571.34317,573.488343 572.648291,572.697852 C573.953413,571.907373 575.021243,569.84891 575.021243,568.123501 C575.021243,564.680092 582.731257,556.278113 585.891072,556.278113 C588.816332,556.278113 590.704727,550.153194 588.047127,549.285051 C586.560676,548.799468 586.72084,546.501211 588.509224,542.654677 C590.673711,537.999119 592.320363,537.031632 596.38006,538.03019 C600.207764,538.971661 602.929844,537.71495 607.080088,533.090289 C610.141522,529.678867 612.677945,528.081557 612.716559,529.54071 C612.75516,530.99985 614.286269,531.629798 616.119013,530.940583 C617.951745,530.251344 619.451254,530.82978 619.451254,532.225924 C619.451254,533.622081 620.360711,534.213575 621.472291,533.540317 C624.865978,531.484851 630.354598,534.672708 629.07007,537.953207 C627.635887,541.615844 630.872134,542.037775 634.339069,538.640179 C637.991574,535.060731 648.759565,540.855172 652.440038,548.380647 C654.754292,553.112593 654.894769,555.851128 653.029157,559.86383 C651.086342,564.042563 661.1877,581.259124 663.325897,582.823766 C665.464095,584.388383 667.21353,587.136779 667.21353,588.931267 C667.21353,590.725779 668.713051,592.29099 670.54577,592.409549 C678.318785,592.912328 679.626605,593.395136 678.41591,595.314909 C677.71294,596.429573 678.153796,597.956912 679.395544,598.709011 C683.193426,601.009275 681.929107,604.143824 676.165304,606.717442 C672.065202,608.548228 669.892569,608.529633 667.57405,606.643916 C663.76607,603.546781 658.077293,608.96254 660.726324,613.163016 C661.645109,614.619939 663.099027,619.574966 663.957211,624.174218 C665.359595,631.689856 665.001475,632.663438 660.419913,633.790329 C653.432469,635.508998 648.85036,641.017956 647.93257,648.803529 C647.462054,652.794947 646.669893,654.064827 645.895478,652.069124 Z M14.1971935,648.540007 C14.0522751,647.700776 14.0522751,646.280234 14.1971935,645.383254 C14.3420894,644.486287 13.4004345,643.752394 12.1046255,643.752394 C10.8088215,643.752394 10.3921434,642.734658 11.1786764,641.490765 C12.1086494,640.020023 10.4041204,639.69985 6.30436657,640.575225 L0,641.921313 L5.19571987,637.794773 C8.13865745,635.457429 10.0678589,631.898811 9.64514685,629.587315 C9.07537682,626.471706 11.0037314,624.87501 17.7977142,622.836915 C25.5485706,620.511771 25.9073277,620.145827 20.5786054,620.000261 C13.2807455,619.800931 12.3597318,614.628987 18.9100709,610.630615 C25.3474561,606.70119 24.3895836,604.616557 16.1291784,604.578532 C12.1524962,604.560219 7.42928566,603.636784 5.63314509,602.526479 C2.88492066,600.8276 3.14932011,599.844894 7.30168083,596.324895 C13.4416373,591.119975 13.6413495,587.216003 7.76764437,587.216003 C3.85627085,587.216003 3.64569131,586.673979 6.07807882,582.867056 C9.18397187,578.006029 15.7159837,577.068166 17.4366879,581.236196 C18.3228578,583.382797 18.5957185,583.374099 18.7344298,581.194768 C18.8546083,579.306656 20.7819006,578.894434 24.8376408,579.889365 C29.7049128,581.083404 30.5182019,580.714304 29.3842438,577.825965 C26.6860221,570.953298 32.8515914,571.55291 39.2390548,578.784344 L45.726297,586.128776 L50.0664228,580.692576 C52.4534728,577.702672 54.4287951,576.441407 54.4560033,577.889765 C54.4832116,579.338135 56.6372026,582.464324 59.2426308,584.836848 C64.512508,589.635609 67.94384,609.925529 65.1610121,619.833152 C61.9235215,631.359584 60.7686942,633.079201 57.8535203,630.714436 C55.8132354,629.059398 54.4563595,629.024033 53.4598884,630.599953 C52.6669342,631.853993 50.2975028,632.880019 48.1944598,632.880019 C46.0914168,632.880019 42.5849337,634.91861 40.4022462,637.410231 C38.2195811,639.90184 35.0583961,641.424578 33.377425,640.794093 C31.696454,640.163597 29.9730584,640.668276 29.5476924,641.915559 C28.615449,644.649176 14.5717908,650.709661 14.1971935,648.540007 Z M535.888961,581.111436 C534.785742,578.65406 531.779706,575.619609 529.208926,574.368208 C525.472034,572.549192 524.914047,571.080442 526.426305,567.043715 C528.869188,560.522847 524.265434,555.753864 515.527597,555.753864 C507.31717,555.753864 502.593256,550.477081 500.72735,539.22145 C499.499687,531.815864 500.047092,529.652107 504.052732,526.077143 C508.097915,522.466862 511.543518,521.895035 526.088666,522.420126 C535.571194,522.76245 545.649241,523.483636 548.484284,524.022777 C551.319328,524.561893 554.45346,523.788897 555.449076,522.305013 C556.804488,520.284792 557.834084,520.570132 559.547465,523.440764 C560.805954,525.549334 563.586911,527.274528 565.727352,527.274528 C571.827318,527.274528 584.611854,541.501381 583.223344,546.744381 C582.579823,549.174268 583.195301,551.624713 584.591014,552.189809 C585.986752,552.754904 585.381595,553.295068 583.246221,553.390185 C581.110847,553.485315 579.363722,555.041879 579.363722,556.849225 C579.363722,558.656572 577.86618,560.135308 576.035881,560.135308 C574.037607,560.135308 572.708016,562.158409 572.708016,565.199019 C572.708016,571.009259 565.250241,579.851769 560.349845,579.851769 C558.528761,579.851769 556.506107,581.22246 555.855073,582.897765 C553.907545,587.909241 538.314531,586.514166 535.888961,581.111436 Z M61.6277472,582.399751 C59.0220506,581.447883 56.1696307,578.884232 55.2890134,576.702721 C53.8022396,573.019555 53.3793358,573.100978 49.365934,577.842866 L45.043978,582.949391 L40.8383918,577.94386 C36.6488535,572.957407 36.6646527,572.907938 44.9733246,564.979866 C55.6391996,554.802573 62.7355848,552.444972 66.7554268,557.743319 C68.3924831,559.901012 69.7318918,563.427117 69.7318918,565.579098 C69.7318918,567.73108 70.7418525,569.491788 71.976248,569.491788 C75.5677108,569.491788 74.5699159,575.807498 70.2929815,580.14616 C67.4836095,582.996066 65.0164782,583.63769 61.6277472,582.399751 Z M373.772142,574.545104 C371.93518,569.720581 372.800022,568.848968 376.893896,571.398909 C379.262471,572.874235 379.472112,574.076259 377.676495,575.885942 C375.880865,577.695625 374.834973,577.336431 373.772142,574.545104 Z M29.1648793,564.326164 C30.6074151,562.592227 31.3065616,560.6936 30.718569,560.107005 C30.1305552,559.520422 33.7121009,556.762651 38.677534,553.978639 C43.6429647,551.194627 48.2605266,549.470398 48.9387646,550.147004 C49.6170263,550.823624 48.2499277,554.672942 45.9008118,558.701057 C42.6179698,564.330209 39.8841117,566.193089 34.085889,566.751838 C27.7821735,567.359315 26.9732529,566.960566 29.1648793,564.326164 Z M305.153327,560.877529 C302.604308,560.217646 301.300298,557.745721 301.300298,553.573456 C301.300298,549.770372 299.752061,546.446012 297.400125,545.199102 C294.125192,543.462832 293.531849,540.253129 293.698981,525.177926 C293.875875,509.222425 294.459554,506.774106 298.943962,503.176891 C301.719212,500.950689 305.959541,499.12925 308.366917,499.12925 C310.774317,499.12925 315.663551,496.033138 319.231913,492.249031 C327.860672,483.098486 331.997714,486.292475 327.807525,498.86985 C324.132326,509.901471 326.193668,518.759117 332.436127,518.759117 C336.335659,518.759117 336.62729,519.28426 334.282157,522.083477 C332.750362,523.911865 330.986345,524.901869 330.362115,524.283478 C328.257573,522.19868 323.568367,527.774016 324.784942,530.914599 C325.531796,532.84264 324.594835,534.026785 322.322397,534.026785 C320.304946,534.026785 319.266634,535.008274 320.015054,536.207884 C320.76345,537.407481 320.07885,538.392098 318.493686,538.395933 C316.555685,538.4006 315.592483,541.615726 315.553276,548.210866 C315.521218,553.60523 316.511991,558.033867 317.755003,558.052223 C318.99804,558.070592 318.528875,559.037064 316.712439,560.199935 C313.25127,562.415749 311.493255,562.518802 305.153327,560.877529 Z M348.877667,554.95166 C344.91947,552.218846 342.22675,549.454157 342.893821,548.807901 C343.560929,548.161671 343.03523,545.693395 341.725637,543.322868 C339.617856,539.507528 340.535088,538.470693 349.717261,534.289456 C358.051758,530.494223 360.459665,530.130946 361.971324,532.440727 C364.614507,536.479326 364.385757,543.451455 361.663555,541.821596 C360.421736,541.078123 358.761376,542.09643 357.973856,544.084547 C357.186335,546.072652 357.782507,548.442004 359.298672,549.349758 C361.322715,550.5616 361.044516,551.375991 358.251854,552.414147 C355.16159,553.562932 354.967618,554.434114 357.217411,557.060231 C361.209144,561.71965 357.219281,560.710884 348.877667,554.95166 Z M492.42516,558.102534 C494.047324,557.077247 496.215355,554.914186 497.243003,553.29574 C498.619456,551.127979 499.120148,551.627525 499.144467,555.192846 C499.169052,558.797214 497.939285,560.02417 494.326636,559.99964 C490.753102,559.97538 490.25241,559.475834 492.42516,558.102534 Z M397.867145,556.526256 C395.360401,552.48709 398.215385,551.631693 401.409835,555.464788 C403.246906,557.669159 403.423614,559 401.879188,559 C400.516946,559 398.711532,557.886806 397.867145,556.526256 Z M371.899014,547.738699 C371.09082,546.454913 370.93758,544.597569 371.558516,543.611249 C372.179439,542.624942 370.750795,538.691588 368.383758,534.870458 C366.01672,531.049341 365.066974,527.922958 366.273221,527.922958 C369.02245,527.922958 369.174681,514.232276 366.45669,511.424711 C362.166349,506.993018 347.769649,476.698181 344.865734,465.991067 C341.213723,452.525618 340.691487,442.034435 343.922991,447.052382 C347.505883,452.615957 351.797346,445.809606 351.558776,434.941833 C351.441385,429.59409 352.299795,425.218664 353.466342,425.218664 C354.63289,425.218664 355.07929,423.918936 354.458354,422.330335 C353.837406,420.74177 355.135899,418.334445 357.343865,416.980763 C362.365992,413.90172 364.80499,400.183445 361.998268,390.801812 C360.362828,385.335178 360.546846,383.699909 362.79744,383.699909 C365.308398,383.699909 368.337554,377.536737 368.436017,372.227629 C368.452739,371.326226 366.212687,368.37622 363.458138,365.672038 C359.634283,361.918082 358.34592,357.913078 358.010282,348.736756 C357.768497,342.126527 357.402803,334.259818 357.197627,331.255173 C356.992439,328.250528 356.983966,322.842165 357.178775,319.236581 C357.373583,315.631009 357.459674,311.205981 357.370119,309.403201 C356.79854,297.898305 363.406439,284.358383 370.702124,282.085168 C372.936968,281.388804 377.329674,281.450891 380.463673,282.223096 C385.09146,283.363359 386.633483,282.610876 388.672583,278.21737 C391.28092,272.597366 388.447607,263.514044 384.08629,263.514044 C382.96941,263.514044 384.983601,257.368182 388.562232,249.856563 C393.47189,239.551058 395.218677,232.384904 395.679445,220.658406 C396.275983,205.475591 396.443815,205.073075 402.967729,203.176835 C408.065168,201.695223 409.652584,199.943128 409.675799,195.772927 C409.692521,192.76827 412.289195,186.376571 415.446159,181.569134 C426.535159,164.682807 427.002718,165.708384 423.158938,159.949295 C418.851201,153.494999 418.802119,152.37074 422.828122,152.37074 C424.569526,152.37074 427.200305,148.683223 428.674268,144.176249 C430.148218,139.669275 432.840614,134.30937 434.657343,132.265342 C437.598702,128.955968 438.503079,128.897947 442.9145,131.73558 C447.513204,134.693669 448.054392,134.521844 450.45941,129.339882 C451.884403,126.269593 453.05029,120.362107 453.05029,116.212163 C453.05029,112.062206 454.051934,108.666783 455.276175,108.666783 C456.500415,108.666783 457.502059,109.650119 457.502059,110.851984 C457.502059,112.053837 459.555115,113.037173 462.064378,113.037173 C464.573654,113.037173 469.759712,114.62769 473.588963,116.571692 C480.131593,119.893152 480.733315,119.861729 483.571998,116.050585 C485.402346,113.593172 485.70793,111.70545 484.347433,111.260245 C483.037564,110.831616 483.600658,108.280283 485.699083,105.136219 C488.565491,100.841496 488.789532,98.6556231 486.802119,94.3734963 C484.812911,90.08744 484.926053,89 487.361175,89 C489.040302,89 490.965413,90.410286 491.639156,92.1339675 C492.312913,93.8576366 500.091297,100.250542 508.924457,106.340422 C530.175402,120.991535 536.287269,129.860293 535.657898,145.132514 C535.39478,151.517274 536.138851,156.741142 537.31138,156.741142 C538.483934,156.741142 538.949997,158.592964 538.347117,160.856281 C537.744211,163.119622 538.761182,165.351541 540.607018,168.855794 C543.24789,173.869264 543.496379,177.375481 541.773068,185.307833 C540.305696,192.062107 540.342106,198.155992 541.883381,203.775225 C543.148579,208.387895 544.212564,213.063299 544.248276,214.165002 C544.345007,217.205596 529.446981,216.558499 525.510357,213.351129 C522.98659,211.294877 522.052919,211.23136 522.052919,213.115899 C522.052919,214.535859 521.051274,215.089894 519.827022,214.347098 C518.533675,213.562372 517.601137,215.71947 517.601137,219.495909 C517.601137,223.856599 515.447076,227.991149 511.054881,232.060876 C507.454457,235.396972 505.036642,238.965277 505.682026,239.990393 C506.327372,241.01551 505.046909,244.515199 502.836526,247.767471 C498.257958,254.504212 498.512528,259.033432 503.690026,262.951815 C506.929779,265.403743 506.760838,266.208004 501.949743,271.235551 C499.019088,274.298068 495.582259,279.922735 494.312351,283.734862 C492.683067,288.625687 488.727267,292.52834 480.87392,296.992737 C470.711203,302.769968 450.824393,323.748019 450.824393,328.69117 C450.824393,329.824917 448.253238,332.406417 445.110716,334.427838 C440.839352,337.17538 439.995271,338.810836 441.766992,340.906581 C443.47879,342.931497 442.870153,347.290521 439.575275,356.603066 C436.050486,366.565408 435.338837,372.322743 436.444515,381.931213 C437.744653,393.229554 438.431891,394.48627 443.962523,395.678772 C450.351165,397.056317 466.405634,415.371271 466.405634,421.281903 C466.405634,423.061292 463.661115,425.74477 460.306663,427.245221 C454.609321,429.793644 454.471507,430.162673 458.21397,432.849197 C462.530329,435.947688 459.503678,439.802243 454.93225,437.028587 C453.507681,436.164241 452.960861,436.419964 453.705268,437.602418 C454.443845,438.775584 453.158523,441.323808 450.849003,443.265124 C447.844232,445.790866 446.343915,446.057109 445.57405,444.20122 C444.908618,442.597112 444.438791,442.858132 444.342508,444.885448 C444.256892,446.68824 441.125758,450.634004 437.384405,453.653832 C431.374676,458.504579 430.454736,460.796397 429.490038,473.320615 C428.889475,481.117502 427.786962,489.463474 427.040025,491.867193 C426.293087,494.270911 425.483747,499.427929 425.241513,503.327249 C424.999267,507.226532 422.953401,514.439342 420.695144,519.355708 C416.61652,528.235061 416.525433,528.285123 406.996112,526.882249 C399.044389,525.711619 397.402993,526.075786 397.402993,529.01061 C397.402993,530.957969 396.51484,532.012395 395.429323,531.353783 C392.363371,529.493567 388.382027,535.528647 389.029566,541.054681 C389.449214,544.635831 388.36609,546.167804 385.160592,546.526985 C382.712111,546.80136 379.057234,547.711404 377.038644,548.549364 C375.020042,549.387299 372.707232,549.022498 371.899014,547.738699 Z M577.321922,533.791635 C573.53801,529.521137 568.775569,526.027062 566.738719,526.027062 C564.701881,526.027062 561.786205,524.334228 560.259439,522.26519 C558.185701,519.454947 556.721689,519.105686 554.472089,520.88451 C552.815844,522.19419 549.964138,523.026773 548.134973,522.734697 C546.305808,522.442646 537.436142,521.585808 528.424598,520.830626 C514.217904,519.640067 511.049663,520.064004 504.590094,524.02001 L497.14023,528.582472 L497.153883,522.361444 C497.161392,518.939882 498.657985,513.308582 500.479629,509.847438 C502.301273,506.386307 503.806988,501.442978 503.825668,498.862275 C503.871827,492.48327 505.947105,490.110491 513.768948,487.493695 C519.660842,485.522562 520.990138,485.938397 525.409059,491.134946 C528.152794,494.361511 530.397665,498.059772 530.397665,499.353274 C530.397665,500.646801 532.393123,502.763347 534.832002,504.056748 C543.75994,508.791441 554.018502,498.02029 551.481695,486.575134 C550.28276,481.165961 551.025626,479.878298 557.068534,476.891062 C564.943214,472.998317 569.450072,474.770965 578.815871,485.444786 C582.564745,489.717197 584.609701,490.538279 587.50409,488.93321 C590.16499,487.457601 593.148296,487.92212 597.547036,490.496921 C603.101853,493.748441 603.672382,495.096703 602.627092,502.502038 C601.968153,507.170269 602.324717,510.308307 603.436684,509.627312 C604.52961,508.95797 606.578922,511.878507 607.990706,516.11735 C610.284877,523.005707 610.009473,524.51961 605.397922,530.369423 C601.936913,534.759755 598.805373,536.596339 595.885739,535.948088 C593.491828,535.416558 589.883616,536.460941 587.86748,538.268945 C584.563331,541.232015 583.523253,540.790437 577.321922,533.791635 Z M452.036782,492.350368 C452.036782,486.078097 461.022227,475 466.109652,475 C469.470441,475 468.243839,479.435219 464.504967,480.802328 C462.421476,481.56415 461.222779,484.12476 461.614897,486.975982 C462.28777,491.868642 457.79881,499 454.046172,499 C452.940996,499 452.036782,496.007662 452.036782,492.350368 Z M580.181508,483.38842 C574.206371,476.123631 564.08579,470.246714 560.908547,472.196782 C554.940898,475.859564 552.126002,474.838135 553.185462,469.394376 C554.289976,463.719129 550.901039,459.721933 548.38077,463.727355 C546.554552,466.629716 543.445066,464.602297 539.737925,458.092125 C537.479542,454.126171 537.479542,453.150238 539.737925,453.123252 C541.474772,453.102482 541.695255,452.474107 540.315116,451.478166 C539.086878,450.591828 537.755005,447.572811 537.355368,444.769232 C536.833858,441.110682 537.936959,439.335809 541.263353,438.481399 C543.812387,437.82665 545.897954,436.577451 545.897954,435.705393 C545.897954,432.925816 557.423652,428.845366 561.598586,430.146901 C563.810564,430.836475 566.182908,430.506566 566.870508,429.413753 C568.367884,427.034021 575.930292,427.718565 584.564961,431.015403 C588.022529,432.335561 595.249869,433.41568 600.625726,433.41568 L610.4,433.41568 L604.973538,442.737894 C599.239111,452.589153 597.859309,465.800682 601.808035,473.047834 C603.612726,476.360025 603.158321,478.313076 599.745945,481.910753 C597.338674,484.448767 594.243164,485.841857 592.86705,485.00647 C591.490961,484.171121 589.004419,484.596827 587.341379,485.952497 C585.010514,487.85255 583.369939,487.265041 580.181508,483.38842 Z M268.053519,342.6975 C265.384894,338.140789 264.740463,339.599276 266.924967,345.251737 C267.701295,347.260581 268.813386,348.430684 269.39624,347.851945 C269.979095,347.273206 269.374862,344.953708 268.053519,342.6975 Z M524.423708,43 C526.260167,41.8999862 526.761009,41 525.536706,41 C524.312404,41 521.808148,41.8999862 519.971688,43 C518.135241,44.1000138 517.634387,45 518.858702,45 C520.082992,45 522.587248,44.1000138 524.423708,43 Z M515.181609,463.980349 C515.181609,461.377064 517.156706,459.390284 520.558676,458.571468 C528.012422,456.777451 532.054195,459.486762 526.897775,462.820733 C518.911254,467.984618 515.181609,468.353751 515.181609,463.980349 Z M520.669795,450.306015 C518.028119,447.714858 519.060909,445 522.688326,445 C524.623538,445 526.206897,445.974257 526.206897,447.165015 C526.206897,450.066287 522.543868,452.144197 520.669795,450.306015 Z M529.022543,414.862877 C528.33792,413.107112 528.292179,409.734684 528.920913,407.368615 C529.879385,403.76165 529.405099,403.413752 525.985032,405.215038 C519.652079,408.550468 514.262139,407.906263 515.786827,403.99615 C516.555072,402.025952 515.962391,400.763769 514.358335,400.953929 C512.850511,401.13268 509.526092,400.606353 506.970714,399.784318 C503.200626,398.571513 502.442865,396.774842 502.951848,390.255489 C503.296846,385.836678 503.756495,381.729376 503.973335,381.128155 C504.190139,380.526921 504.286658,379.407883 504.187801,378.641422 C504.088969,377.874935 504.934556,374.068753 506.066888,370.183235 C507.600592,364.920493 507.255035,361.461724 504.712007,356.622198 C502.834474,353.049146 501.855345,348.697193 502.536175,346.951181 C503.216992,345.205182 502.61971,339.529263 501.208852,334.338031 C498.875166,325.75133 499.078787,324.439768 503.465023,319.806513 C506.116783,317.005397 508.036065,313.177879 507.730055,311.300877 C507.358443,309.021285 509.222831,307.656502 513.345143,307.190476 C516.739441,306.806748 519.268305,305.331016 518.964832,303.911081 C517.967036,299.242257 524.854677,287.094908 529.284242,285.711376 C534.884791,283.96208 536.80227,281.894308 545.904469,267.788519 C555.836262,252.397107 558.971162,249.529532 564.110645,251.134824 C567.986891,252.345527 568.254609,251.610317 567.069012,243.010516 C564.792669,226.498785 563.905706,224.037095 559.767016,222.744394 C547.090415,218.78494 539.829521,201.841334 543.517318,184.825123 C545.235578,176.896672 544.988903,173.38029 542.363993,168.384915 C540.496609,164.83116 539.612792,162.213337 540.358776,159.288372 C541.142193,156.216529 540.713076,154.058162 539.318946,154.058162 C537.899407,154.058162 537.139495,149.868488 537.428491,143.635278 C538.086413,129.445773 530.328276,118.349149 510.364715,104.925397 C493.837673,93.8124008 485.705997,84.4880513 495.100476,87.422372 C499.041266,88.6532664 499.794252,88.266577 498.736873,85.5549118 C497.86757,83.3255447 498.968837,81.6461618 501.900576,80.7304711 C504.374036,79.9578761 506.675997,79.6615826 507.016033,80.0719596 C507.356068,80.4823738 510.281154,85.3339856 513.516205,90.8533102 C521.249146,104.046482 528.742053,107.585295 536.765334,101.833624 C542.613815,97.6409889 542.673808,97.6455174 551.922135,102.979273 L561.207198,108.334228 L562.624548,101.983575 C563.481526,98.1438393 566.261878,94.6374965 569.656686,93.1153099 C574.465959,90.9588591 575.058291,89.6425577 573.785577,83.9400029 C571.867452,75.3455771 580.444052,53.4949402 585.741988,53.478609 C587.738325,53.4724433 593.325481,51.112236 598.157873,48.2337067 L606.944051,43 L616.26717,50.518227 C627.940155,59.93138 629.996871,66.7963717 623.736261,75.4489004 C621.176369,78.9868108 619.742927,82.9339909 620.550806,84.2204093 C621.358686,85.5068276 620.357097,88.3673486 618.325005,90.5770964 C615.888382,93.2267186 615.438098,95.0861169 617.002595,96.0376749 C618.675873,97.0554062 618.682165,98.7543537 617.023886,101.803654 C615.673905,104.286007 615.294558,110.206577 616.132944,115.708534 C617.307908,123.419269 618.778025,125.773369 623.661593,127.764056 C626.999293,129.12461 631.810916,133.820892 634.354131,138.20024 L638.978089,146.162668 L631.448756,160.876384 L623.919399,173.101899 L630.466718,188.726976 C639.777462,210.947034 641.916992,219.353715 638.581816,220.613199 C633.118104,222.676517 632.453529,251.519672 637.781336,255.353548 C640.084056,257.010594 640.902718,259.675058 640.070924,262.805312 C639.186697,266.132841 640.277094,269.053912 643.509719,272.017705 C649.721517,277.712907 649.488957,281.842031 642.710234,286.213032 L637.177227,289.780808 L641.706196,296.040095 C644.197128,299.482703 649.143885,303.990305 652.698961,306.056982 C662.764283,311.908231 665.075733,319.820683 659.710517,330.058534 C655.560161,337.978226 639.527329,359.369817 632.514281,366.344732 C630.779381,368.070204 623.485307,376.002996 616.3052,383.973162 C605.201801,396.298316 602.211822,398.425954 596.301768,398.207304 C592.479981,398.065913 586.15786,399.576281 582.252613,401.563659 C578.347353,403.551037 573.067936,405.177106 570.520555,405.177106 C567.973161,405.177106 563.474239,406.734115 560.522949,408.637156 C557.571671,410.540197 552.858234,412.423072 550.048681,412.821319 C547.239104,413.219591 541.63894,414.560152 537.603857,415.80034 C531.708876,417.612164 530.022751,417.427963 529.022543,414.862877 Z M519.190805,412.641489 C519.190805,411.531877 520.702131,410.058972 522.549295,409.368355 C524.614807,408.596097 525.584389,409.057904 525.067803,410.567896 C524.011029,413.656773 519.190805,415.357489 519.190805,412.641489 Z M477.094253,408.5 C477.094253,406.575002 478.686585,405 480.632791,405 C482.78825,405 483.62923,406.368 482.784433,408.5 C482.021629,410.424998 480.42931,412 479.245895,412 C478.062507,412 477.094253,410.424998 477.094253,408.5 Z M389.894253,120.799937 C389.894253,117.420364 399.155004,112.828335 404.067322,113.772123 C405.574712,114.061728 406.667097,112.559566 406.494824,110.433984 C406.32255,108.308389 407.013084,106.569265 408.029344,106.569265 C409.045629,106.569265 410.201401,104.411097 410.597735,101.773337 C411.49136,95.8262536 416.929703,93.6565741 417.028035,99.2079125 C417.095652,103.024022 417.270426,103.036589 420.069984,99.4262628 C423.170939,95.427304 425.977011,96.3726509 425.977011,101.416323 C425.977011,104.338372 421.823665,109.038502 413.61754,115.402896 C409.692533,118.446982 409.479823,118.367534 410.993197,114.422512 C412.599387,110.235552 412.526253,110.230362 408.032677,114.21267 C405.498624,116.458429 403.425278,117.454986 403.425278,116.427288 C403.425278,115.399565 402.156743,116.10046 400.606329,117.984808 C396.42464,123.067124 389.894253,124.783326 389.894253,120.799937 Z M400.647532,104.787379 C404.34272,99.4844318 404.3163,99.4014877 399.675899,101.736726 C396.160711,103.50569 394.905747,103.494043 394.905747,101.692456 C394.905747,100.347839 396.9787,98.7379477 399.512327,98.114943 C402.045967,97.491926 404.222252,95.8775982 404.348509,94.5275452 C404.474792,93.1774922 405.346678,94.5094159 406.28605,97.4874029 C407.22541,100.46539 407.131078,103.966208 406.076434,105.267012 C405.021803,106.567804 404.623665,108.06914 405.191732,108.603298 C405.759799,109.137443 404.115078,109.72388 401.536812,109.906505 C397.0511,110.224256 397.012766,110.003598 400.647532,104.787379 Z M443.2534,69.1022597 C446.466163,67.4123338 447.780234,67.6295402 448.707183,70.0037088 C449.378861,71.7239929 448.967566,73.7151646 447.793187,74.4284923 C446.618819,75.1418409 446.137071,76.487347 446.722589,77.4185023 C447.308132,78.3496675 445.302008,80.2244353 442.264562,81.584638 C435.549563,84.5916996 440.92547,70.3267466 443.2534,69.1022597 Z M467.69461,68.4025856 C465.936087,61.5884665 468.0281,56 472.337439,56 C474.749854,56 475.444932,58.1720211 474.929784,64.1008027 C474.104126,73.6028082 469.710777,76.2149519 467.69461,68.4025856 Z M454.400531,61.564088 C454.969421,58.5038398 456.191079,56 457.115316,56 C460.084511,56 461.165371,62.0517916 458.656907,64.6313248 C454.775736,68.622445 453.287746,67.5501573 454.400531,61.564088 Z M463.601236,50.6176163 C461.355447,47.8474214 461.505967,47.2352326 464.432876,47.2352326 C466.398415,47.2352326 468.021767,45.9668387 468.040312,44.4165804 C468.064196,42.4217861 468.648422,42.5267744 470.039193,44.7758336 C472.132626,48.1611493 470.86754,54 468.040633,54 C467.107105,54 465.109383,52.4779276 463.601236,50.6176163 Z M541.011754,18.6278868 C539.277979,14.0244845 540.491444,12.7881488 544.355316,15.2212227 C546.728278,16.7154651 546.843182,17.6899215 544.881991,19.6881141 C542.920824,21.6862861 542.076524,21.4549982 541.011754,18.6278868 Z" id="path1364"></path>
                </g>
            </g>
        </g>
    </g>
</svg>